G04 #@! TF.GenerationSoftware,KiCad,Pcbnew,(5.1.8)-1*
G04 #@! TF.CreationDate,2021-03-30T22:00:51-03:00*
G04 #@! TF.ProjectId,PIC18F4550,50494331-3846-4343-9535-302e6b696361,rev?*
G04 #@! TF.SameCoordinates,Original*
G04 #@! TF.FileFunction,Copper,L2,Bot*
G04 #@! TF.FilePolarity,Positive*
%FSLAX46Y46*%
G04 Gerber Fmt 4.6, Leading zero omitted, Abs format (unit mm)*
G04 Created by KiCad (PCBNEW (5.1.8)-1) date 2021-03-30 22:00:51*
%MOMM*%
%LPD*%
G01*
G04 APERTURE LIST*
G04 #@! TA.AperFunction,ComponentPad*
%ADD10C,1.800000*%
G04 #@! TD*
G04 #@! TA.AperFunction,ComponentPad*
%ADD11C,1.600000*%
G04 #@! TD*
G04 #@! TA.AperFunction,ComponentPad*
%ADD12O,1.600000X1.600000*%
G04 #@! TD*
G04 #@! TA.AperFunction,ComponentPad*
%ADD13R,1.600000X1.600000*%
G04 #@! TD*
G04 #@! TA.AperFunction,ComponentPad*
%ADD14O,1.700000X1.700000*%
G04 #@! TD*
G04 #@! TA.AperFunction,ComponentPad*
%ADD15C,1.700000*%
G04 #@! TD*
G04 #@! TA.AperFunction,ComponentPad*
%ADD16C,3.500000*%
G04 #@! TD*
G04 #@! TA.AperFunction,ComponentPad*
%ADD17O,1.050000X1.500000*%
G04 #@! TD*
G04 #@! TA.AperFunction,ComponentPad*
%ADD18C,2.000000*%
G04 #@! TD*
G04 #@! TA.AperFunction,ComponentPad*
%ADD19C,1.905000*%
G04 #@! TD*
G04 #@! TA.AperFunction,ComponentPad*
%ADD20O,1.905000X2.000000*%
G04 #@! TD*
G04 #@! TA.AperFunction,ComponentPad*
%ADD21C,2.300000*%
G04 #@! TD*
G04 #@! TA.AperFunction,ViaPad*
%ADD22C,0.800000*%
G04 #@! TD*
G04 #@! TA.AperFunction,Conductor*
%ADD23C,0.254000*%
G04 #@! TD*
G04 #@! TA.AperFunction,Conductor*
%ADD24C,0.508000*%
G04 #@! TD*
G04 #@! TA.AperFunction,Conductor*
%ADD25C,0.100000*%
G04 #@! TD*
G04 APERTURE END LIST*
D10*
X173890000Y-54575000D03*
X171350000Y-54575000D03*
D11*
X174725000Y-61875000D03*
D12*
X167105000Y-61875000D03*
D13*
X150057500Y-81675000D03*
D12*
X165297500Y-129935000D03*
X150057500Y-84215000D03*
X165297500Y-127395000D03*
X150057500Y-86755000D03*
X165297500Y-124855000D03*
X150057500Y-89295000D03*
X165297500Y-122315000D03*
X150057500Y-91835000D03*
X165297500Y-119775000D03*
X150057500Y-94375000D03*
X165297500Y-117235000D03*
X150057500Y-96915000D03*
X165297500Y-114695000D03*
X150057500Y-99455000D03*
X165297500Y-112155000D03*
X150057500Y-101995000D03*
X165297500Y-109615000D03*
X150057500Y-104535000D03*
X165297500Y-107075000D03*
X150057500Y-107075000D03*
X165297500Y-104535000D03*
X150057500Y-109615000D03*
X165297500Y-101995000D03*
X150057500Y-112155000D03*
X165297500Y-99455000D03*
X150057500Y-114695000D03*
X165297500Y-96915000D03*
X150057500Y-117235000D03*
X165297500Y-94375000D03*
X150057500Y-119775000D03*
X165297500Y-91835000D03*
X150057500Y-122315000D03*
X165297500Y-89295000D03*
X150057500Y-124855000D03*
X165297500Y-86755000D03*
X150057500Y-127395000D03*
X165297500Y-84215000D03*
X150057500Y-129935000D03*
X165297500Y-81675000D03*
D11*
X141375000Y-130675000D03*
X143875000Y-130675000D03*
X133875000Y-73625000D03*
X136375000Y-73625000D03*
X149575000Y-136975000D03*
X147075000Y-136975000D03*
X168325000Y-136975000D03*
X165825000Y-136975000D03*
X145975000Y-56500000D03*
X148475000Y-56500000D03*
D10*
X173525000Y-130525000D03*
X176065000Y-130525000D03*
D11*
X164125000Y-61625000D03*
D12*
X156505000Y-61625000D03*
X145975000Y-66625000D03*
D11*
X153595000Y-66625000D03*
D14*
X142136250Y-136950000D03*
X139596250Y-136950000D03*
D15*
X137056250Y-136950000D03*
X173258750Y-136950000D03*
D14*
X175798750Y-136950000D03*
X178338750Y-136950000D03*
D15*
X137056250Y-142875000D03*
D14*
X139596250Y-142875000D03*
X142136250Y-142875000D03*
G04 #@! TA.AperFunction,ComponentPad*
G36*
G01*
X183100000Y-60365000D02*
X184850000Y-60365000D01*
G75*
G02*
X185725000Y-61240000I0J-875000D01*
G01*
X185725000Y-62990000D01*
G75*
G02*
X184850000Y-63865000I-875000J0D01*
G01*
X183100000Y-63865000D01*
G75*
G02*
X182225000Y-62990000I0J875000D01*
G01*
X182225000Y-61240000D01*
G75*
G02*
X183100000Y-60365000I875000J0D01*
G01*
G37*
G04 #@! TD.AperFunction*
G04 #@! TA.AperFunction,ComponentPad*
G36*
G01*
X182975000Y-54615000D02*
X184975000Y-54615000D01*
G75*
G02*
X185725000Y-55365000I0J-750000D01*
G01*
X185725000Y-56865000D01*
G75*
G02*
X184975000Y-57615000I-750000J0D01*
G01*
X182975000Y-57615000D01*
G75*
G02*
X182225000Y-56865000I0J750000D01*
G01*
X182225000Y-55365000D01*
G75*
G02*
X182975000Y-54615000I750000J0D01*
G01*
G37*
G04 #@! TD.AperFunction*
G04 #@! TA.AperFunction,ComponentPad*
G36*
G01*
X178400000Y-57365000D02*
X180150000Y-57365000D01*
G75*
G02*
X181025000Y-58240000I0J-875000D01*
G01*
X181025000Y-59990000D01*
G75*
G02*
X180150000Y-60865000I-875000J0D01*
G01*
X178400000Y-60865000D01*
G75*
G02*
X177525000Y-59990000I0J875000D01*
G01*
X177525000Y-58240000D01*
G75*
G02*
X178400000Y-57365000I875000J0D01*
G01*
G37*
G04 #@! TD.AperFunction*
D15*
X133575000Y-63625000D03*
X136075000Y-63625000D03*
X136075000Y-61625000D03*
X133575000Y-61625000D03*
D16*
X128805000Y-58915000D03*
X140845000Y-58915000D03*
D17*
X160315000Y-66925000D03*
X159045000Y-66925000D03*
X161585000Y-66925000D03*
D12*
X167105000Y-76675000D03*
D11*
X174725000Y-76675000D03*
D12*
X180140000Y-130525000D03*
D11*
X187760000Y-130525000D03*
X174725000Y-66875000D03*
D12*
X167105000Y-66875000D03*
D11*
X145975000Y-61875000D03*
D12*
X153595000Y-61875000D03*
X145975000Y-71775000D03*
D11*
X153595000Y-71775000D03*
X167105000Y-71775000D03*
D12*
X174725000Y-71775000D03*
D18*
X180810000Y-74125000D03*
X180810000Y-69625000D03*
X187310000Y-74125000D03*
X187310000Y-69625000D03*
D19*
X159575000Y-52725000D03*
D20*
X157035000Y-52725000D03*
X154495000Y-52725000D03*
D21*
X155232500Y-136975000D03*
X160132500Y-136975000D03*
D15*
X187010000Y-124775000D03*
D14*
X187010000Y-122235000D03*
X187010000Y-119695000D03*
X187010000Y-117155000D03*
X187010000Y-114615000D03*
X187010000Y-112075000D03*
X187010000Y-109535000D03*
X187010000Y-106995000D03*
X128355000Y-99415000D03*
X128355000Y-96875000D03*
X128355000Y-94335000D03*
X128355000Y-91795000D03*
X128355000Y-89255000D03*
X128355000Y-86715000D03*
D15*
X128355000Y-84175000D03*
X128355000Y-105800000D03*
D14*
X128355000Y-108340000D03*
X128355000Y-110880000D03*
X187010000Y-81695000D03*
X187010000Y-84235000D03*
X187010000Y-86775000D03*
X187010000Y-89315000D03*
X187010000Y-91855000D03*
X187010000Y-94395000D03*
X187010000Y-96935000D03*
D15*
X187010000Y-99475000D03*
X128355000Y-117225000D03*
D14*
X128355000Y-119765000D03*
X128355000Y-122305000D03*
X128355000Y-124845000D03*
X128355000Y-127385000D03*
X128355000Y-129925000D03*
X128355000Y-132465000D03*
D11*
X164525000Y-56500000D03*
X167025000Y-56500000D03*
D15*
X151332500Y-142875000D03*
D14*
X153872500Y-142875000D03*
X156412500Y-142875000D03*
X158952500Y-142875000D03*
X161492500Y-142875000D03*
X164032500Y-142875000D03*
D22*
X153575000Y-117425000D03*
X130750000Y-114050000D03*
X163000000Y-124800000D03*
X136175000Y-128075000D03*
X147625000Y-118450000D03*
X138600000Y-128125000D03*
X147575000Y-121200000D03*
X162975000Y-119525000D03*
X142050000Y-69175000D03*
D23*
X149575000Y-136975000D02*
X155232500Y-136975000D01*
D24*
X145975000Y-61875000D02*
X145975000Y-59085000D01*
X145975000Y-61875000D02*
X145975000Y-66625000D01*
X145975000Y-71775000D02*
X145975000Y-66625000D01*
X145975000Y-56500000D02*
X145975000Y-59085000D01*
X149750000Y-52725000D02*
X145975000Y-56500000D01*
X154495000Y-52725000D02*
X149750000Y-52725000D01*
X153895000Y-66925000D02*
X153595000Y-66625000D01*
X159045000Y-66925000D02*
X153895000Y-66925000D01*
X167105000Y-61875000D02*
X163805000Y-65175000D01*
X159045000Y-66585471D02*
X159045000Y-66925000D01*
X160455471Y-65175000D02*
X159045000Y-66585471D01*
X163805000Y-65175000D02*
X160455471Y-65175000D01*
X146595000Y-73625000D02*
X153595000Y-66625000D01*
X136375000Y-73625000D02*
X146595000Y-73625000D01*
D23*
X176065000Y-130525000D02*
X180140000Y-130525000D01*
D24*
X157035000Y-61095000D02*
X156505000Y-61625000D01*
X157035000Y-52725000D02*
X157035000Y-61095000D01*
X173890000Y-61040000D02*
X174725000Y-61875000D01*
X173890000Y-54575000D02*
X173890000Y-61040000D01*
D23*
X187010000Y-129775000D02*
X187760000Y-130525000D01*
X187010000Y-124775000D02*
X187010000Y-129775000D01*
X187760000Y-130525000D02*
X184285000Y-134000000D01*
X184285000Y-134000000D02*
X150000000Y-134000000D01*
X150000000Y-134000000D02*
X147825000Y-131825000D01*
X147825000Y-129627500D02*
X150057500Y-127395000D01*
X147825000Y-131825000D02*
X147825000Y-129627500D01*
X187010000Y-122235000D02*
X175040000Y-122235000D01*
X166212999Y-131062001D02*
X151184501Y-131062001D01*
X151184501Y-131062001D02*
X150057500Y-129935000D01*
X175040000Y-122235000D02*
X166212999Y-131062001D01*
X175537500Y-119695000D02*
X165297500Y-129935000D01*
X187010000Y-119695000D02*
X175537500Y-119695000D01*
X175537500Y-117155000D02*
X165297500Y-127395000D01*
X187010000Y-117155000D02*
X175537500Y-117155000D01*
X165377500Y-114615000D02*
X165297500Y-114695000D01*
X187010000Y-114615000D02*
X165377500Y-114615000D01*
X186930000Y-112155000D02*
X187010000Y-112075000D01*
X165377500Y-112075000D02*
X165297500Y-112155000D01*
X187010000Y-112075000D02*
X165377500Y-112075000D01*
X165377500Y-109535000D02*
X165297500Y-109615000D01*
X187010000Y-109535000D02*
X165377500Y-109535000D01*
X165377500Y-106995000D02*
X165297500Y-107075000D01*
X187010000Y-106995000D02*
X165377500Y-106995000D01*
X160132500Y-136975000D02*
X165825000Y-136975000D01*
X150057500Y-114695000D02*
X151870000Y-114695000D01*
X153575000Y-116400000D02*
X153575000Y-117425000D01*
X151870000Y-114695000D02*
X153575000Y-116400000D01*
X149412500Y-114050000D02*
X150057500Y-114695000D01*
X130750000Y-114050000D02*
X149412500Y-114050000D01*
X150017500Y-96875000D02*
X150057500Y-96915000D01*
X128355000Y-96875000D02*
X150017500Y-96875000D01*
X150017500Y-94335000D02*
X150057500Y-94375000D01*
X128355000Y-94335000D02*
X150017500Y-94335000D01*
X150017500Y-91795000D02*
X150057500Y-91835000D01*
X128355000Y-91795000D02*
X150017500Y-91795000D01*
X150017500Y-89255000D02*
X150057500Y-89295000D01*
X128355000Y-89255000D02*
X150017500Y-89255000D01*
X150017500Y-86715000D02*
X150057500Y-86755000D01*
X128355000Y-86715000D02*
X150017500Y-86715000D01*
X150017500Y-84175000D02*
X150057500Y-84215000D01*
X128355000Y-84175000D02*
X150017500Y-84175000D01*
X143712500Y-110880000D02*
X150057500Y-104535000D01*
X128355000Y-110880000D02*
X143712500Y-110880000D01*
X143712500Y-108340000D02*
X150057500Y-101995000D01*
X128355000Y-108340000D02*
X143712500Y-108340000D01*
X143712500Y-105800000D02*
X150057500Y-99455000D01*
X128355000Y-105800000D02*
X143712500Y-105800000D01*
X186990000Y-81675000D02*
X187010000Y-81695000D01*
X165297500Y-81675000D02*
X186990000Y-81675000D01*
X186990000Y-84215000D02*
X187010000Y-84235000D01*
X165297500Y-84215000D02*
X186990000Y-84215000D01*
X186990000Y-86755000D02*
X187010000Y-86775000D01*
X165297500Y-86755000D02*
X186990000Y-86755000D01*
X186990000Y-89295000D02*
X187010000Y-89315000D01*
X165297500Y-89295000D02*
X186990000Y-89295000D01*
X186990000Y-91835000D02*
X187010000Y-91855000D01*
X165297500Y-91835000D02*
X186990000Y-91835000D01*
X186990000Y-94375000D02*
X187010000Y-94395000D01*
X165297500Y-94375000D02*
X186990000Y-94375000D01*
X186990000Y-96915000D02*
X187010000Y-96935000D01*
X165297500Y-96915000D02*
X186990000Y-96915000D01*
X186990000Y-99455000D02*
X187010000Y-99475000D01*
X165297500Y-99455000D02*
X186990000Y-99455000D01*
X150047500Y-117225000D02*
X150057500Y-117235000D01*
X128355000Y-117225000D02*
X150047500Y-117225000D01*
X150047500Y-119765000D02*
X150057500Y-119775000D01*
X128355000Y-119765000D02*
X150047500Y-119765000D01*
X150047500Y-122305000D02*
X150057500Y-122315000D01*
X128355000Y-122305000D02*
X150047500Y-122305000D01*
X164170499Y-123727999D02*
X165297500Y-124855000D01*
X129472001Y-123727999D02*
X164170499Y-123727999D01*
X128355000Y-124845000D02*
X129472001Y-123727999D01*
X129472001Y-126267999D02*
X160132001Y-126267999D01*
X128355000Y-127385000D02*
X129472001Y-126267999D01*
X161532001Y-126267999D02*
X163000000Y-124800000D01*
X160132001Y-126267999D02*
X161532001Y-126267999D01*
X134325000Y-129925000D02*
X136175000Y-128075000D01*
X128355000Y-129925000D02*
X134325000Y-129925000D01*
X163972500Y-118450000D02*
X165297500Y-119775000D01*
X147625000Y-118450000D02*
X163972500Y-118450000D01*
X134260000Y-132465000D02*
X138600000Y-128125000D01*
X128355000Y-132465000D02*
X134260000Y-132465000D01*
X161312001Y-121187999D02*
X162975000Y-119525000D01*
X147587001Y-121187999D02*
X161312001Y-121187999D01*
X147575000Y-121200000D02*
X147587001Y-121187999D01*
D24*
X155137500Y-101995000D02*
X150057500Y-107075000D01*
X165297500Y-101995000D02*
X155137500Y-101995000D01*
X174725000Y-76675000D02*
X172375000Y-79025000D01*
X172375000Y-79025000D02*
X162975000Y-79025000D01*
X155137500Y-86862500D02*
X155137500Y-101995000D01*
X162975000Y-79025000D02*
X155137500Y-86862500D01*
X173258750Y-136950000D02*
X178338750Y-136950000D01*
X139596250Y-142875000D02*
X142046250Y-140425000D01*
X169783750Y-140425000D02*
X173258750Y-136950000D01*
X142046250Y-140425000D02*
X169783750Y-140425000D01*
X152568499Y-144179001D02*
X153872500Y-142875000D01*
X143440251Y-144179001D02*
X152568499Y-144179001D01*
X142136250Y-142875000D02*
X143440251Y-144179001D01*
X167055000Y-66925000D02*
X167105000Y-66875000D01*
X161585000Y-66925000D02*
X167055000Y-66925000D01*
X167105000Y-71775000D02*
X167105000Y-66875000D01*
D23*
X139125000Y-69175000D02*
X142050000Y-69175000D01*
X133575000Y-63625000D02*
X139125000Y-69175000D01*
X155057500Y-76675000D02*
X150057500Y-81675000D01*
X167105000Y-76675000D02*
X155057500Y-76675000D01*
D24*
X169655000Y-74125000D02*
X180775000Y-74125000D01*
X180775000Y-74125000D02*
X187275000Y-74125000D01*
X167105000Y-76675000D02*
X169655000Y-74125000D01*
X156723000Y-71775000D02*
X160315000Y-68183000D01*
X160315000Y-68183000D02*
X160315000Y-66925000D01*
X153595000Y-71775000D02*
X156723000Y-71775000D01*
X159575000Y-52725000D02*
X161025000Y-52725000D01*
X164525000Y-56225000D02*
X164525000Y-56500000D01*
X161025000Y-52725000D02*
X164525000Y-56225000D01*
X183975000Y-62115000D02*
X182215000Y-63875000D01*
X182215000Y-63875000D02*
X172275000Y-63875000D01*
X164900000Y-56500000D02*
X164525000Y-56500000D01*
X172275000Y-63875000D02*
X164900000Y-56500000D01*
D23*
X191290000Y-147140000D02*
X122760000Y-147140000D01*
X122760000Y-142728740D01*
X135571250Y-142728740D01*
X135571250Y-143021260D01*
X135628318Y-143308158D01*
X135740260Y-143578411D01*
X135902775Y-143821632D01*
X136109618Y-144028475D01*
X136352839Y-144190990D01*
X136623092Y-144302932D01*
X136909990Y-144360000D01*
X137202510Y-144360000D01*
X137489408Y-144302932D01*
X137759661Y-144190990D01*
X138002882Y-144028475D01*
X138209725Y-143821632D01*
X138326250Y-143647240D01*
X138442775Y-143821632D01*
X138649618Y-144028475D01*
X138892839Y-144190990D01*
X139163092Y-144302932D01*
X139449990Y-144360000D01*
X139742510Y-144360000D01*
X140029408Y-144302932D01*
X140299661Y-144190990D01*
X140542882Y-144028475D01*
X140749725Y-143821632D01*
X140866250Y-143647240D01*
X140982775Y-143821632D01*
X141189618Y-144028475D01*
X141432839Y-144190990D01*
X141703092Y-144302932D01*
X141989990Y-144360000D01*
X142282510Y-144360000D01*
X142350492Y-144346477D01*
X142780757Y-144776742D01*
X142808592Y-144810660D01*
X142943960Y-144921754D01*
X143098400Y-145004304D01*
X143193009Y-145033003D01*
X143265976Y-145055137D01*
X143282576Y-145056772D01*
X143396584Y-145068001D01*
X143396591Y-145068001D01*
X143440251Y-145072301D01*
X143483911Y-145068001D01*
X152524839Y-145068001D01*
X152568499Y-145072301D01*
X152612159Y-145068001D01*
X152612166Y-145068001D01*
X152742773Y-145055137D01*
X152910350Y-145004304D01*
X153064790Y-144921754D01*
X153200158Y-144810660D01*
X153227998Y-144776737D01*
X153658258Y-144346477D01*
X153726240Y-144360000D01*
X154018760Y-144360000D01*
X154305658Y-144302932D01*
X154575911Y-144190990D01*
X154819132Y-144028475D01*
X155025975Y-143821632D01*
X155147695Y-143639466D01*
X155217322Y-143756355D01*
X155412231Y-143972588D01*
X155645580Y-144146641D01*
X155908401Y-144271825D01*
X156055610Y-144316476D01*
X156285500Y-144195155D01*
X156285500Y-143002000D01*
X156265500Y-143002000D01*
X156265500Y-142748000D01*
X156285500Y-142748000D01*
X156285500Y-141554845D01*
X156539500Y-141554845D01*
X156539500Y-142748000D01*
X156559500Y-142748000D01*
X156559500Y-143002000D01*
X156539500Y-143002000D01*
X156539500Y-144195155D01*
X156769390Y-144316476D01*
X156916599Y-144271825D01*
X157179420Y-144146641D01*
X157412769Y-143972588D01*
X157607678Y-143756355D01*
X157677305Y-143639466D01*
X157799025Y-143821632D01*
X158005868Y-144028475D01*
X158249089Y-144190990D01*
X158519342Y-144302932D01*
X158806240Y-144360000D01*
X159098760Y-144360000D01*
X159385658Y-144302932D01*
X159655911Y-144190990D01*
X159899132Y-144028475D01*
X160105975Y-143821632D01*
X160222500Y-143647240D01*
X160339025Y-143821632D01*
X160545868Y-144028475D01*
X160789089Y-144190990D01*
X161059342Y-144302932D01*
X161346240Y-144360000D01*
X161638760Y-144360000D01*
X161925658Y-144302932D01*
X162195911Y-144190990D01*
X162439132Y-144028475D01*
X162645975Y-143821632D01*
X162762500Y-143647240D01*
X162879025Y-143821632D01*
X163085868Y-144028475D01*
X163329089Y-144190990D01*
X163599342Y-144302932D01*
X163886240Y-144360000D01*
X164178760Y-144360000D01*
X164465658Y-144302932D01*
X164735911Y-144190990D01*
X164979132Y-144028475D01*
X165185975Y-143821632D01*
X165348490Y-143578411D01*
X165460432Y-143308158D01*
X165517500Y-143021260D01*
X165517500Y-142728740D01*
X165460432Y-142441842D01*
X165348490Y-142171589D01*
X165185975Y-141928368D01*
X164979132Y-141721525D01*
X164735911Y-141559010D01*
X164465658Y-141447068D01*
X164178760Y-141390000D01*
X163886240Y-141390000D01*
X163599342Y-141447068D01*
X163329089Y-141559010D01*
X163085868Y-141721525D01*
X162879025Y-141928368D01*
X162762500Y-142102760D01*
X162645975Y-141928368D01*
X162439132Y-141721525D01*
X162195911Y-141559010D01*
X161925658Y-141447068D01*
X161638760Y-141390000D01*
X161346240Y-141390000D01*
X161059342Y-141447068D01*
X160789089Y-141559010D01*
X160545868Y-141721525D01*
X160339025Y-141928368D01*
X160222500Y-142102760D01*
X160105975Y-141928368D01*
X159899132Y-141721525D01*
X159655911Y-141559010D01*
X159385658Y-141447068D01*
X159098760Y-141390000D01*
X158806240Y-141390000D01*
X158519342Y-141447068D01*
X158249089Y-141559010D01*
X158005868Y-141721525D01*
X157799025Y-141928368D01*
X157677305Y-142110534D01*
X157607678Y-141993645D01*
X157412769Y-141777412D01*
X157179420Y-141603359D01*
X156916599Y-141478175D01*
X156769390Y-141433524D01*
X156539500Y-141554845D01*
X156285500Y-141554845D01*
X156055610Y-141433524D01*
X155908401Y-141478175D01*
X155645580Y-141603359D01*
X155412231Y-141777412D01*
X155217322Y-141993645D01*
X155147695Y-142110534D01*
X155025975Y-141928368D01*
X154819132Y-141721525D01*
X154575911Y-141559010D01*
X154305658Y-141447068D01*
X154018760Y-141390000D01*
X153726240Y-141390000D01*
X153439342Y-141447068D01*
X153169089Y-141559010D01*
X152925868Y-141721525D01*
X152719025Y-141928368D01*
X152602500Y-142102760D01*
X152485975Y-141928368D01*
X152279132Y-141721525D01*
X152035911Y-141559010D01*
X151765658Y-141447068D01*
X151478760Y-141390000D01*
X151186240Y-141390000D01*
X150899342Y-141447068D01*
X150629089Y-141559010D01*
X150385868Y-141721525D01*
X150179025Y-141928368D01*
X150016510Y-142171589D01*
X149904568Y-142441842D01*
X149847500Y-142728740D01*
X149847500Y-143021260D01*
X149900956Y-143290001D01*
X143808487Y-143290001D01*
X143607727Y-143089242D01*
X143621250Y-143021260D01*
X143621250Y-142728740D01*
X143564182Y-142441842D01*
X143452240Y-142171589D01*
X143289725Y-141928368D01*
X143082882Y-141721525D01*
X142839661Y-141559010D01*
X142569408Y-141447068D01*
X142329198Y-141399287D01*
X142414485Y-141314000D01*
X169740090Y-141314000D01*
X169783750Y-141318300D01*
X169827410Y-141314000D01*
X169827417Y-141314000D01*
X169958024Y-141301136D01*
X170125601Y-141250303D01*
X170280041Y-141167753D01*
X170415409Y-141056659D01*
X170443249Y-141022736D01*
X173044508Y-138421477D01*
X173112490Y-138435000D01*
X173405010Y-138435000D01*
X173691908Y-138377932D01*
X173962161Y-138265990D01*
X174205382Y-138103475D01*
X174412225Y-137896632D01*
X174450733Y-137839000D01*
X174606767Y-137839000D01*
X174645275Y-137896632D01*
X174852118Y-138103475D01*
X175095339Y-138265990D01*
X175365592Y-138377932D01*
X175652490Y-138435000D01*
X175945010Y-138435000D01*
X176231908Y-138377932D01*
X176502161Y-138265990D01*
X176745382Y-138103475D01*
X176952225Y-137896632D01*
X176990733Y-137839000D01*
X177146767Y-137839000D01*
X177185275Y-137896632D01*
X177392118Y-138103475D01*
X177635339Y-138265990D01*
X177905592Y-138377932D01*
X178192490Y-138435000D01*
X178485010Y-138435000D01*
X178771908Y-138377932D01*
X179042161Y-138265990D01*
X179285382Y-138103475D01*
X179492225Y-137896632D01*
X179654740Y-137653411D01*
X179766682Y-137383158D01*
X179823750Y-137096260D01*
X179823750Y-136803740D01*
X179766682Y-136516842D01*
X179654740Y-136246589D01*
X179492225Y-136003368D01*
X179285382Y-135796525D01*
X179042161Y-135634010D01*
X178771908Y-135522068D01*
X178485010Y-135465000D01*
X178192490Y-135465000D01*
X177905592Y-135522068D01*
X177635339Y-135634010D01*
X177392118Y-135796525D01*
X177185275Y-136003368D01*
X177146767Y-136061000D01*
X176990733Y-136061000D01*
X176952225Y-136003368D01*
X176745382Y-135796525D01*
X176502161Y-135634010D01*
X176231908Y-135522068D01*
X175945010Y-135465000D01*
X175652490Y-135465000D01*
X175365592Y-135522068D01*
X175095339Y-135634010D01*
X174852118Y-135796525D01*
X174645275Y-136003368D01*
X174606767Y-136061000D01*
X174450733Y-136061000D01*
X174412225Y-136003368D01*
X174205382Y-135796525D01*
X173962161Y-135634010D01*
X173691908Y-135522068D01*
X173405010Y-135465000D01*
X173112490Y-135465000D01*
X172825592Y-135522068D01*
X172555339Y-135634010D01*
X172312118Y-135796525D01*
X172105275Y-136003368D01*
X171942760Y-136246589D01*
X171830818Y-136516842D01*
X171773750Y-136803740D01*
X171773750Y-137096260D01*
X171787273Y-137164242D01*
X169415515Y-139536000D01*
X142089909Y-139536000D01*
X142046249Y-139531700D01*
X142002589Y-139536000D01*
X142002583Y-139536000D01*
X141905174Y-139545594D01*
X141871974Y-139548864D01*
X141770308Y-139579704D01*
X141704399Y-139599697D01*
X141549959Y-139682247D01*
X141414591Y-139793341D01*
X141386751Y-139827264D01*
X139810492Y-141403523D01*
X139742510Y-141390000D01*
X139449990Y-141390000D01*
X139163092Y-141447068D01*
X138892839Y-141559010D01*
X138649618Y-141721525D01*
X138442775Y-141928368D01*
X138326250Y-142102760D01*
X138209725Y-141928368D01*
X138002882Y-141721525D01*
X137759661Y-141559010D01*
X137489408Y-141447068D01*
X137202510Y-141390000D01*
X136909990Y-141390000D01*
X136623092Y-141447068D01*
X136352839Y-141559010D01*
X136109618Y-141721525D01*
X135902775Y-141928368D01*
X135740260Y-142171589D01*
X135628318Y-142441842D01*
X135571250Y-142728740D01*
X122760000Y-142728740D01*
X122760000Y-137978397D01*
X136207458Y-137978397D01*
X136285093Y-138227472D01*
X136549133Y-138353371D01*
X136832661Y-138425339D01*
X137124781Y-138440611D01*
X137414269Y-138398599D01*
X137689997Y-138300919D01*
X137827407Y-138227472D01*
X137905042Y-137978397D01*
X137056250Y-137129605D01*
X136207458Y-137978397D01*
X122760000Y-137978397D01*
X122760000Y-137018531D01*
X135565639Y-137018531D01*
X135607651Y-137308019D01*
X135705331Y-137583747D01*
X135778778Y-137721157D01*
X136027853Y-137798792D01*
X136876645Y-136950000D01*
X137235855Y-136950000D01*
X138084647Y-137798792D01*
X138333722Y-137721157D01*
X138334481Y-137719564D01*
X138401072Y-137831355D01*
X138595981Y-138047588D01*
X138829330Y-138221641D01*
X139092151Y-138346825D01*
X139239360Y-138391476D01*
X139469250Y-138270155D01*
X139469250Y-137077000D01*
X139723250Y-137077000D01*
X139723250Y-138270155D01*
X139953140Y-138391476D01*
X140100349Y-138346825D01*
X140363170Y-138221641D01*
X140596519Y-138047588D01*
X140791428Y-137831355D01*
X140866250Y-137705745D01*
X140941072Y-137831355D01*
X141135981Y-138047588D01*
X141369330Y-138221641D01*
X141632151Y-138346825D01*
X141779360Y-138391476D01*
X142009250Y-138270155D01*
X142009250Y-137077000D01*
X142263250Y-137077000D01*
X142263250Y-138270155D01*
X142493140Y-138391476D01*
X142640349Y-138346825D01*
X142903170Y-138221641D01*
X143136519Y-138047588D01*
X143208526Y-137967702D01*
X146261903Y-137967702D01*
X146333486Y-138211671D01*
X146588996Y-138332571D01*
X146863184Y-138401300D01*
X147145512Y-138415217D01*
X147425130Y-138373787D01*
X147691292Y-138278603D01*
X147816514Y-138211671D01*
X147888097Y-137967702D01*
X147075000Y-137154605D01*
X146261903Y-137967702D01*
X143208526Y-137967702D01*
X143331428Y-137831355D01*
X143480407Y-137581252D01*
X143577731Y-137306891D01*
X143457064Y-137077000D01*
X142263250Y-137077000D01*
X142009250Y-137077000D01*
X139723250Y-137077000D01*
X139469250Y-137077000D01*
X139449250Y-137077000D01*
X139449250Y-137045512D01*
X145634783Y-137045512D01*
X145676213Y-137325130D01*
X145771397Y-137591292D01*
X145838329Y-137716514D01*
X146082298Y-137788097D01*
X146895395Y-136975000D01*
X147254605Y-136975000D01*
X148067702Y-137788097D01*
X148311671Y-137716514D01*
X148325324Y-137687659D01*
X148460363Y-137889759D01*
X148660241Y-138089637D01*
X148895273Y-138246680D01*
X149156426Y-138354853D01*
X149433665Y-138410000D01*
X149716335Y-138410000D01*
X149993574Y-138354853D01*
X150254727Y-138246680D01*
X150489759Y-138089637D01*
X150689637Y-137889759D01*
X150791707Y-137737000D01*
X153616060Y-137737000D01*
X153650653Y-137820515D01*
X153846000Y-138112871D01*
X154094629Y-138361500D01*
X154386985Y-138556847D01*
X154711835Y-138691404D01*
X155056693Y-138760000D01*
X155408307Y-138760000D01*
X155753165Y-138691404D01*
X156078015Y-138556847D01*
X156370371Y-138361500D01*
X156619000Y-138112871D01*
X156814347Y-137820515D01*
X156948904Y-137495665D01*
X157017500Y-137150807D01*
X157017500Y-136799193D01*
X158347500Y-136799193D01*
X158347500Y-137150807D01*
X158416096Y-137495665D01*
X158550653Y-137820515D01*
X158746000Y-138112871D01*
X158994629Y-138361500D01*
X159286985Y-138556847D01*
X159611835Y-138691404D01*
X159956693Y-138760000D01*
X160308307Y-138760000D01*
X160653165Y-138691404D01*
X160978015Y-138556847D01*
X161270371Y-138361500D01*
X161519000Y-138112871D01*
X161714347Y-137820515D01*
X161748940Y-137737000D01*
X164608293Y-137737000D01*
X164710363Y-137889759D01*
X164910241Y-138089637D01*
X165145273Y-138246680D01*
X165406426Y-138354853D01*
X165683665Y-138410000D01*
X165966335Y-138410000D01*
X166243574Y-138354853D01*
X166504727Y-138246680D01*
X166739759Y-138089637D01*
X166861694Y-137967702D01*
X167511903Y-137967702D01*
X167583486Y-138211671D01*
X167838996Y-138332571D01*
X168113184Y-138401300D01*
X168395512Y-138415217D01*
X168675130Y-138373787D01*
X168941292Y-138278603D01*
X169066514Y-138211671D01*
X169138097Y-137967702D01*
X168325000Y-137154605D01*
X167511903Y-137967702D01*
X166861694Y-137967702D01*
X166939637Y-137889759D01*
X167073692Y-137689131D01*
X167088329Y-137716514D01*
X167332298Y-137788097D01*
X168145395Y-136975000D01*
X168504605Y-136975000D01*
X169317702Y-137788097D01*
X169561671Y-137716514D01*
X169682571Y-137461004D01*
X169751300Y-137186816D01*
X169765217Y-136904488D01*
X169723787Y-136624870D01*
X169628603Y-136358708D01*
X169561671Y-136233486D01*
X169317702Y-136161903D01*
X168504605Y-136975000D01*
X168145395Y-136975000D01*
X167332298Y-136161903D01*
X167088329Y-136233486D01*
X167074676Y-136262341D01*
X166939637Y-136060241D01*
X166861694Y-135982298D01*
X167511903Y-135982298D01*
X168325000Y-136795395D01*
X169138097Y-135982298D01*
X169066514Y-135738329D01*
X168811004Y-135617429D01*
X168536816Y-135548700D01*
X168254488Y-135534783D01*
X167974870Y-135576213D01*
X167708708Y-135671397D01*
X167583486Y-135738329D01*
X167511903Y-135982298D01*
X166861694Y-135982298D01*
X166739759Y-135860363D01*
X166504727Y-135703320D01*
X166243574Y-135595147D01*
X165966335Y-135540000D01*
X165683665Y-135540000D01*
X165406426Y-135595147D01*
X165145273Y-135703320D01*
X164910241Y-135860363D01*
X164710363Y-136060241D01*
X164608293Y-136213000D01*
X161748940Y-136213000D01*
X161714347Y-136129485D01*
X161519000Y-135837129D01*
X161270371Y-135588500D01*
X160978015Y-135393153D01*
X160653165Y-135258596D01*
X160308307Y-135190000D01*
X159956693Y-135190000D01*
X159611835Y-135258596D01*
X159286985Y-135393153D01*
X158994629Y-135588500D01*
X158746000Y-135837129D01*
X158550653Y-136129485D01*
X158416096Y-136454335D01*
X158347500Y-136799193D01*
X157017500Y-136799193D01*
X156948904Y-136454335D01*
X156814347Y-136129485D01*
X156619000Y-135837129D01*
X156370371Y-135588500D01*
X156078015Y-135393153D01*
X155753165Y-135258596D01*
X155408307Y-135190000D01*
X155056693Y-135190000D01*
X154711835Y-135258596D01*
X154386985Y-135393153D01*
X154094629Y-135588500D01*
X153846000Y-135837129D01*
X153650653Y-136129485D01*
X153616060Y-136213000D01*
X150791707Y-136213000D01*
X150689637Y-136060241D01*
X150489759Y-135860363D01*
X150254727Y-135703320D01*
X149993574Y-135595147D01*
X149716335Y-135540000D01*
X149433665Y-135540000D01*
X149156426Y-135595147D01*
X148895273Y-135703320D01*
X148660241Y-135860363D01*
X148460363Y-136060241D01*
X148326308Y-136260869D01*
X148311671Y-136233486D01*
X148067702Y-136161903D01*
X147254605Y-136975000D01*
X146895395Y-136975000D01*
X146082298Y-136161903D01*
X145838329Y-136233486D01*
X145717429Y-136488996D01*
X145648700Y-136763184D01*
X145634783Y-137045512D01*
X139449250Y-137045512D01*
X139449250Y-136823000D01*
X139469250Y-136823000D01*
X139469250Y-135629845D01*
X139723250Y-135629845D01*
X139723250Y-136823000D01*
X142009250Y-136823000D01*
X142009250Y-135629845D01*
X142263250Y-135629845D01*
X142263250Y-136823000D01*
X143457064Y-136823000D01*
X143577731Y-136593109D01*
X143480407Y-136318748D01*
X143331428Y-136068645D01*
X143253597Y-135982298D01*
X146261903Y-135982298D01*
X147075000Y-136795395D01*
X147888097Y-135982298D01*
X147816514Y-135738329D01*
X147561004Y-135617429D01*
X147286816Y-135548700D01*
X147004488Y-135534783D01*
X146724870Y-135576213D01*
X146458708Y-135671397D01*
X146333486Y-135738329D01*
X146261903Y-135982298D01*
X143253597Y-135982298D01*
X143136519Y-135852412D01*
X142903170Y-135678359D01*
X142640349Y-135553175D01*
X142493140Y-135508524D01*
X142263250Y-135629845D01*
X142009250Y-135629845D01*
X141779360Y-135508524D01*
X141632151Y-135553175D01*
X141369330Y-135678359D01*
X141135981Y-135852412D01*
X140941072Y-136068645D01*
X140866250Y-136194255D01*
X140791428Y-136068645D01*
X140596519Y-135852412D01*
X140363170Y-135678359D01*
X140100349Y-135553175D01*
X139953140Y-135508524D01*
X139723250Y-135629845D01*
X139469250Y-135629845D01*
X139239360Y-135508524D01*
X139092151Y-135553175D01*
X138829330Y-135678359D01*
X138595981Y-135852412D01*
X138401072Y-136068645D01*
X138334530Y-136180355D01*
X138333722Y-136178843D01*
X138084647Y-136101208D01*
X137235855Y-136950000D01*
X136876645Y-136950000D01*
X136027853Y-136101208D01*
X135778778Y-136178843D01*
X135652879Y-136442883D01*
X135580911Y-136726411D01*
X135565639Y-137018531D01*
X122760000Y-137018531D01*
X122760000Y-135921603D01*
X136207458Y-135921603D01*
X137056250Y-136770395D01*
X137905042Y-135921603D01*
X137827407Y-135672528D01*
X137563367Y-135546629D01*
X137279839Y-135474661D01*
X136987719Y-135459389D01*
X136698231Y-135501401D01*
X136422503Y-135599081D01*
X136285093Y-135672528D01*
X136207458Y-135921603D01*
X122760000Y-135921603D01*
X122760000Y-117078740D01*
X126870000Y-117078740D01*
X126870000Y-117371260D01*
X126927068Y-117658158D01*
X127039010Y-117928411D01*
X127201525Y-118171632D01*
X127408368Y-118378475D01*
X127582760Y-118495000D01*
X127408368Y-118611525D01*
X127201525Y-118818368D01*
X127039010Y-119061589D01*
X126927068Y-119331842D01*
X126870000Y-119618740D01*
X126870000Y-119911260D01*
X126927068Y-120198158D01*
X127039010Y-120468411D01*
X127201525Y-120711632D01*
X127408368Y-120918475D01*
X127582760Y-121035000D01*
X127408368Y-121151525D01*
X127201525Y-121358368D01*
X127039010Y-121601589D01*
X126927068Y-121871842D01*
X126870000Y-122158740D01*
X126870000Y-122451260D01*
X126927068Y-122738158D01*
X127039010Y-123008411D01*
X127201525Y-123251632D01*
X127408368Y-123458475D01*
X127582760Y-123575000D01*
X127408368Y-123691525D01*
X127201525Y-123898368D01*
X127039010Y-124141589D01*
X126927068Y-124411842D01*
X126870000Y-124698740D01*
X126870000Y-124991260D01*
X126927068Y-125278158D01*
X127039010Y-125548411D01*
X127201525Y-125791632D01*
X127408368Y-125998475D01*
X127582760Y-126115000D01*
X127408368Y-126231525D01*
X127201525Y-126438368D01*
X127039010Y-126681589D01*
X126927068Y-126951842D01*
X126870000Y-127238740D01*
X126870000Y-127531260D01*
X126927068Y-127818158D01*
X127039010Y-128088411D01*
X127201525Y-128331632D01*
X127408368Y-128538475D01*
X127582760Y-128655000D01*
X127408368Y-128771525D01*
X127201525Y-128978368D01*
X127039010Y-129221589D01*
X126927068Y-129491842D01*
X126870000Y-129778740D01*
X126870000Y-130071260D01*
X126927068Y-130358158D01*
X127039010Y-130628411D01*
X127201525Y-130871632D01*
X127408368Y-131078475D01*
X127582760Y-131195000D01*
X127408368Y-131311525D01*
X127201525Y-131518368D01*
X127039010Y-131761589D01*
X126927068Y-132031842D01*
X126870000Y-132318740D01*
X126870000Y-132611260D01*
X126927068Y-132898158D01*
X127039010Y-133168411D01*
X127201525Y-133411632D01*
X127408368Y-133618475D01*
X127651589Y-133780990D01*
X127921842Y-133892932D01*
X128208740Y-133950000D01*
X128501260Y-133950000D01*
X128788158Y-133892932D01*
X129058411Y-133780990D01*
X129301632Y-133618475D01*
X129508475Y-133411632D01*
X129631842Y-133227000D01*
X134222577Y-133227000D01*
X134260000Y-133230686D01*
X134297423Y-133227000D01*
X134297426Y-133227000D01*
X134409378Y-133215974D01*
X134553015Y-133172402D01*
X134685392Y-133101645D01*
X134801422Y-133006422D01*
X134825284Y-132977346D01*
X136134928Y-131667702D01*
X140561903Y-131667702D01*
X140633486Y-131911671D01*
X140888996Y-132032571D01*
X141163184Y-132101300D01*
X141445512Y-132115217D01*
X141725130Y-132073787D01*
X141991292Y-131978603D01*
X142116514Y-131911671D01*
X142188097Y-131667702D01*
X141375000Y-130854605D01*
X140561903Y-131667702D01*
X136134928Y-131667702D01*
X137057118Y-130745512D01*
X139934783Y-130745512D01*
X139976213Y-131025130D01*
X140071397Y-131291292D01*
X140138329Y-131416514D01*
X140382298Y-131488097D01*
X141195395Y-130675000D01*
X141554605Y-130675000D01*
X142367702Y-131488097D01*
X142611671Y-131416514D01*
X142625324Y-131387659D01*
X142760363Y-131589759D01*
X142960241Y-131789637D01*
X143195273Y-131946680D01*
X143456426Y-132054853D01*
X143733665Y-132110000D01*
X144016335Y-132110000D01*
X144293574Y-132054853D01*
X144554727Y-131946680D01*
X144789759Y-131789637D01*
X144989637Y-131589759D01*
X145146680Y-131354727D01*
X145254853Y-131093574D01*
X145310000Y-130816335D01*
X145310000Y-130533665D01*
X145254853Y-130256426D01*
X145146680Y-129995273D01*
X144989637Y-129760241D01*
X144789759Y-129560363D01*
X144554727Y-129403320D01*
X144293574Y-129295147D01*
X144016335Y-129240000D01*
X143733665Y-129240000D01*
X143456426Y-129295147D01*
X143195273Y-129403320D01*
X142960241Y-129560363D01*
X142760363Y-129760241D01*
X142626308Y-129960869D01*
X142611671Y-129933486D01*
X142367702Y-129861903D01*
X141554605Y-130675000D01*
X141195395Y-130675000D01*
X140382298Y-129861903D01*
X140138329Y-129933486D01*
X140017429Y-130188996D01*
X139948700Y-130463184D01*
X139934783Y-130745512D01*
X137057118Y-130745512D01*
X138120332Y-129682298D01*
X140561903Y-129682298D01*
X141375000Y-130495395D01*
X142188097Y-129682298D01*
X142116514Y-129438329D01*
X141861004Y-129317429D01*
X141586816Y-129248700D01*
X141304488Y-129234783D01*
X141024870Y-129276213D01*
X140758708Y-129371397D01*
X140633486Y-129438329D01*
X140561903Y-129682298D01*
X138120332Y-129682298D01*
X138642631Y-129160000D01*
X138701939Y-129160000D01*
X138901898Y-129120226D01*
X139090256Y-129042205D01*
X139259774Y-128928937D01*
X139403937Y-128784774D01*
X139517205Y-128615256D01*
X139595226Y-128426898D01*
X139635000Y-128226939D01*
X139635000Y-128023061D01*
X139595226Y-127823102D01*
X139517205Y-127634744D01*
X139403937Y-127465226D01*
X139259774Y-127321063D01*
X139090256Y-127207795D01*
X138901898Y-127129774D01*
X138701939Y-127090000D01*
X138498061Y-127090000D01*
X138298102Y-127129774D01*
X138109744Y-127207795D01*
X137940226Y-127321063D01*
X137796063Y-127465226D01*
X137682795Y-127634744D01*
X137604774Y-127823102D01*
X137565000Y-128023061D01*
X137565000Y-128082369D01*
X137099341Y-128548028D01*
X137170226Y-128376898D01*
X137210000Y-128176939D01*
X137210000Y-127973061D01*
X137170226Y-127773102D01*
X137092205Y-127584744D01*
X136978937Y-127415226D01*
X136834774Y-127271063D01*
X136665256Y-127157795D01*
X136476898Y-127079774D01*
X136276939Y-127040000D01*
X136073061Y-127040000D01*
X135873102Y-127079774D01*
X135684744Y-127157795D01*
X135515226Y-127271063D01*
X135371063Y-127415226D01*
X135257795Y-127584744D01*
X135179774Y-127773102D01*
X135140000Y-127973061D01*
X135140000Y-128032369D01*
X134009370Y-129163000D01*
X129631842Y-129163000D01*
X129508475Y-128978368D01*
X129301632Y-128771525D01*
X129127240Y-128655000D01*
X129301632Y-128538475D01*
X129508475Y-128331632D01*
X129670990Y-128088411D01*
X129782932Y-127818158D01*
X129840000Y-127531260D01*
X129840000Y-127238740D01*
X129798479Y-127029999D01*
X148666991Y-127029999D01*
X148622500Y-127253665D01*
X148622500Y-127536335D01*
X148658343Y-127716527D01*
X147312649Y-129062221D01*
X147283579Y-129086078D01*
X147259722Y-129115148D01*
X147259721Y-129115149D01*
X147188355Y-129202108D01*
X147117599Y-129334485D01*
X147074027Y-129478122D01*
X147059314Y-129627500D01*
X147063001Y-129664933D01*
X147063000Y-131787576D01*
X147059314Y-131825000D01*
X147063000Y-131862423D01*
X147063000Y-131862425D01*
X147074026Y-131974377D01*
X147117598Y-132118014D01*
X147117599Y-132118015D01*
X147188355Y-132250392D01*
X147227983Y-132298678D01*
X147283578Y-132366422D01*
X147312654Y-132390284D01*
X149434721Y-134512352D01*
X149458578Y-134541422D01*
X149574608Y-134636645D01*
X149706985Y-134707402D01*
X149850622Y-134750974D01*
X149962574Y-134762000D01*
X149962583Y-134762000D01*
X149999999Y-134765685D01*
X150037415Y-134762000D01*
X184247577Y-134762000D01*
X184285000Y-134765686D01*
X184322423Y-134762000D01*
X184322426Y-134762000D01*
X184434378Y-134750974D01*
X184578015Y-134707402D01*
X184710392Y-134636645D01*
X184826422Y-134541422D01*
X184850284Y-134512346D01*
X187438474Y-131924157D01*
X187618665Y-131960000D01*
X187901335Y-131960000D01*
X188178574Y-131904853D01*
X188439727Y-131796680D01*
X188674759Y-131639637D01*
X188874637Y-131439759D01*
X189031680Y-131204727D01*
X189139853Y-130943574D01*
X189195000Y-130666335D01*
X189195000Y-130383665D01*
X189139853Y-130106426D01*
X189031680Y-129845273D01*
X188874637Y-129610241D01*
X188674759Y-129410363D01*
X188439727Y-129253320D01*
X188178574Y-129145147D01*
X187901335Y-129090000D01*
X187772000Y-129090000D01*
X187772000Y-126051842D01*
X187956632Y-125928475D01*
X188163475Y-125721632D01*
X188325990Y-125478411D01*
X188437932Y-125208158D01*
X188495000Y-124921260D01*
X188495000Y-124628740D01*
X188437932Y-124341842D01*
X188325990Y-124071589D01*
X188163475Y-123828368D01*
X187956632Y-123621525D01*
X187782240Y-123505000D01*
X187956632Y-123388475D01*
X188163475Y-123181632D01*
X188325990Y-122938411D01*
X188437932Y-122668158D01*
X188495000Y-122381260D01*
X188495000Y-122088740D01*
X188437932Y-121801842D01*
X188325990Y-121531589D01*
X188163475Y-121288368D01*
X187956632Y-121081525D01*
X187782240Y-120965000D01*
X187956632Y-120848475D01*
X188163475Y-120641632D01*
X188325990Y-120398411D01*
X188437932Y-120128158D01*
X188495000Y-119841260D01*
X188495000Y-119548740D01*
X188437932Y-119261842D01*
X188325990Y-118991589D01*
X188163475Y-118748368D01*
X187956632Y-118541525D01*
X187782240Y-118425000D01*
X187956632Y-118308475D01*
X188163475Y-118101632D01*
X188325990Y-117858411D01*
X188437932Y-117588158D01*
X188495000Y-117301260D01*
X188495000Y-117008740D01*
X188437932Y-116721842D01*
X188325990Y-116451589D01*
X188163475Y-116208368D01*
X187956632Y-116001525D01*
X187782240Y-115885000D01*
X187956632Y-115768475D01*
X188163475Y-115561632D01*
X188325990Y-115318411D01*
X188437932Y-115048158D01*
X188495000Y-114761260D01*
X188495000Y-114468740D01*
X188437932Y-114181842D01*
X188325990Y-113911589D01*
X188163475Y-113668368D01*
X187956632Y-113461525D01*
X187782240Y-113345000D01*
X187956632Y-113228475D01*
X188163475Y-113021632D01*
X188325990Y-112778411D01*
X188437932Y-112508158D01*
X188495000Y-112221260D01*
X188495000Y-111928740D01*
X188437932Y-111641842D01*
X188325990Y-111371589D01*
X188163475Y-111128368D01*
X187956632Y-110921525D01*
X187782240Y-110805000D01*
X187956632Y-110688475D01*
X188163475Y-110481632D01*
X188325990Y-110238411D01*
X188437932Y-109968158D01*
X188495000Y-109681260D01*
X188495000Y-109388740D01*
X188437932Y-109101842D01*
X188325990Y-108831589D01*
X188163475Y-108588368D01*
X187956632Y-108381525D01*
X187782240Y-108265000D01*
X187956632Y-108148475D01*
X188163475Y-107941632D01*
X188325990Y-107698411D01*
X188437932Y-107428158D01*
X188495000Y-107141260D01*
X188495000Y-106848740D01*
X188437932Y-106561842D01*
X188325990Y-106291589D01*
X188163475Y-106048368D01*
X187956632Y-105841525D01*
X187713411Y-105679010D01*
X187443158Y-105567068D01*
X187156260Y-105510000D01*
X186863740Y-105510000D01*
X186576842Y-105567068D01*
X186306589Y-105679010D01*
X186063368Y-105841525D01*
X185856525Y-106048368D01*
X185733158Y-106233000D01*
X166460753Y-106233000D01*
X166412137Y-106160241D01*
X166212259Y-105960363D01*
X165977227Y-105803320D01*
X165966635Y-105798933D01*
X166152631Y-105687385D01*
X166361019Y-105498414D01*
X166528537Y-105272420D01*
X166648746Y-105018087D01*
X166689404Y-104884039D01*
X166567415Y-104662000D01*
X165424500Y-104662000D01*
X165424500Y-104682000D01*
X165170500Y-104682000D01*
X165170500Y-104662000D01*
X164027585Y-104662000D01*
X163905596Y-104884039D01*
X163946254Y-105018087D01*
X164066463Y-105272420D01*
X164233981Y-105498414D01*
X164442369Y-105687385D01*
X164628365Y-105798933D01*
X164617773Y-105803320D01*
X164382741Y-105960363D01*
X164182863Y-106160241D01*
X164025820Y-106395273D01*
X163917647Y-106656426D01*
X163862500Y-106933665D01*
X163862500Y-107216335D01*
X163917647Y-107493574D01*
X164025820Y-107754727D01*
X164182863Y-107989759D01*
X164382741Y-108189637D01*
X164615259Y-108345000D01*
X164382741Y-108500363D01*
X164182863Y-108700241D01*
X164025820Y-108935273D01*
X163917647Y-109196426D01*
X163862500Y-109473665D01*
X163862500Y-109756335D01*
X163917647Y-110033574D01*
X164025820Y-110294727D01*
X164182863Y-110529759D01*
X164382741Y-110729637D01*
X164615259Y-110885000D01*
X164382741Y-111040363D01*
X164182863Y-111240241D01*
X164025820Y-111475273D01*
X163917647Y-111736426D01*
X163862500Y-112013665D01*
X163862500Y-112296335D01*
X163917647Y-112573574D01*
X164025820Y-112834727D01*
X164182863Y-113069759D01*
X164382741Y-113269637D01*
X164615259Y-113425000D01*
X164382741Y-113580363D01*
X164182863Y-113780241D01*
X164025820Y-114015273D01*
X163917647Y-114276426D01*
X163862500Y-114553665D01*
X163862500Y-114836335D01*
X163917647Y-115113574D01*
X164025820Y-115374727D01*
X164182863Y-115609759D01*
X164382741Y-115809637D01*
X164615259Y-115965000D01*
X164382741Y-116120363D01*
X164182863Y-116320241D01*
X164025820Y-116555273D01*
X163917647Y-116816426D01*
X163862500Y-117093665D01*
X163862500Y-117376335D01*
X163917647Y-117653574D01*
X163931907Y-117688000D01*
X154577963Y-117688000D01*
X154610000Y-117526939D01*
X154610000Y-117323061D01*
X154570226Y-117123102D01*
X154492205Y-116934744D01*
X154378937Y-116765226D01*
X154337000Y-116723289D01*
X154337000Y-116437422D01*
X154340686Y-116399999D01*
X154337000Y-116362574D01*
X154325974Y-116250622D01*
X154282402Y-116106985D01*
X154211645Y-115974608D01*
X154116422Y-115858578D01*
X154087353Y-115834722D01*
X152435284Y-114182654D01*
X152411422Y-114153578D01*
X152295392Y-114058355D01*
X152163015Y-113987598D01*
X152019378Y-113944026D01*
X151907426Y-113933000D01*
X151907423Y-113933000D01*
X151870000Y-113929314D01*
X151832577Y-113933000D01*
X151274207Y-113933000D01*
X151172137Y-113780241D01*
X150972259Y-113580363D01*
X150739741Y-113425000D01*
X150972259Y-113269637D01*
X151172137Y-113069759D01*
X151329180Y-112834727D01*
X151437353Y-112573574D01*
X151492500Y-112296335D01*
X151492500Y-112013665D01*
X151437353Y-111736426D01*
X151329180Y-111475273D01*
X151172137Y-111240241D01*
X150972259Y-111040363D01*
X150737227Y-110883320D01*
X150726635Y-110878933D01*
X150912631Y-110767385D01*
X151121019Y-110578414D01*
X151288537Y-110352420D01*
X151408746Y-110098087D01*
X151449404Y-109964039D01*
X151327415Y-109742000D01*
X150184500Y-109742000D01*
X150184500Y-109762000D01*
X149930500Y-109762000D01*
X149930500Y-109742000D01*
X148787585Y-109742000D01*
X148665596Y-109964039D01*
X148706254Y-110098087D01*
X148826463Y-110352420D01*
X148993981Y-110578414D01*
X149202369Y-110767385D01*
X149388365Y-110878933D01*
X149377773Y-110883320D01*
X149142741Y-111040363D01*
X148942863Y-111240241D01*
X148785820Y-111475273D01*
X148677647Y-111736426D01*
X148622500Y-112013665D01*
X148622500Y-112296335D01*
X148677647Y-112573574D01*
X148785820Y-112834727D01*
X148942863Y-113069759D01*
X149142741Y-113269637D01*
X149170223Y-113288000D01*
X131451711Y-113288000D01*
X131409774Y-113246063D01*
X131240256Y-113132795D01*
X131051898Y-113054774D01*
X130851939Y-113015000D01*
X130648061Y-113015000D01*
X130448102Y-113054774D01*
X130259744Y-113132795D01*
X130090226Y-113246063D01*
X129946063Y-113390226D01*
X129832795Y-113559744D01*
X129754774Y-113748102D01*
X129715000Y-113948061D01*
X129715000Y-114151939D01*
X129754774Y-114351898D01*
X129832795Y-114540256D01*
X129946063Y-114709774D01*
X130090226Y-114853937D01*
X130259744Y-114967205D01*
X130448102Y-115045226D01*
X130648061Y-115085000D01*
X130851939Y-115085000D01*
X131051898Y-115045226D01*
X131240256Y-114967205D01*
X131409774Y-114853937D01*
X131451711Y-114812000D01*
X148622500Y-114812000D01*
X148622500Y-114836335D01*
X148677647Y-115113574D01*
X148785820Y-115374727D01*
X148942863Y-115609759D01*
X149142741Y-115809637D01*
X149375259Y-115965000D01*
X149142741Y-116120363D01*
X148942863Y-116320241D01*
X148847475Y-116463000D01*
X129631842Y-116463000D01*
X129508475Y-116278368D01*
X129301632Y-116071525D01*
X129058411Y-115909010D01*
X128788158Y-115797068D01*
X128501260Y-115740000D01*
X128208740Y-115740000D01*
X127921842Y-115797068D01*
X127651589Y-115909010D01*
X127408368Y-116071525D01*
X127201525Y-116278368D01*
X127039010Y-116521589D01*
X126927068Y-116791842D01*
X126870000Y-117078740D01*
X122760000Y-117078740D01*
X122760000Y-84028740D01*
X126870000Y-84028740D01*
X126870000Y-84321260D01*
X126927068Y-84608158D01*
X127039010Y-84878411D01*
X127201525Y-85121632D01*
X127408368Y-85328475D01*
X127582760Y-85445000D01*
X127408368Y-85561525D01*
X127201525Y-85768368D01*
X127039010Y-86011589D01*
X126927068Y-86281842D01*
X126870000Y-86568740D01*
X126870000Y-86861260D01*
X126927068Y-87148158D01*
X127039010Y-87418411D01*
X127201525Y-87661632D01*
X127408368Y-87868475D01*
X127582760Y-87985000D01*
X127408368Y-88101525D01*
X127201525Y-88308368D01*
X127039010Y-88551589D01*
X126927068Y-88821842D01*
X126870000Y-89108740D01*
X126870000Y-89401260D01*
X126927068Y-89688158D01*
X127039010Y-89958411D01*
X127201525Y-90201632D01*
X127408368Y-90408475D01*
X127582760Y-90525000D01*
X127408368Y-90641525D01*
X127201525Y-90848368D01*
X127039010Y-91091589D01*
X126927068Y-91361842D01*
X126870000Y-91648740D01*
X126870000Y-91941260D01*
X126927068Y-92228158D01*
X127039010Y-92498411D01*
X127201525Y-92741632D01*
X127408368Y-92948475D01*
X127582760Y-93065000D01*
X127408368Y-93181525D01*
X127201525Y-93388368D01*
X127039010Y-93631589D01*
X126927068Y-93901842D01*
X126870000Y-94188740D01*
X126870000Y-94481260D01*
X126927068Y-94768158D01*
X127039010Y-95038411D01*
X127201525Y-95281632D01*
X127408368Y-95488475D01*
X127582760Y-95605000D01*
X127408368Y-95721525D01*
X127201525Y-95928368D01*
X127039010Y-96171589D01*
X126927068Y-96441842D01*
X126870000Y-96728740D01*
X126870000Y-97021260D01*
X126927068Y-97308158D01*
X127039010Y-97578411D01*
X127201525Y-97821632D01*
X127408368Y-98028475D01*
X127582760Y-98145000D01*
X127408368Y-98261525D01*
X127201525Y-98468368D01*
X127039010Y-98711589D01*
X126927068Y-98981842D01*
X126870000Y-99268740D01*
X126870000Y-99561260D01*
X126927068Y-99848158D01*
X127039010Y-100118411D01*
X127201525Y-100361632D01*
X127408368Y-100568475D01*
X127651589Y-100730990D01*
X127921842Y-100842932D01*
X128208740Y-100900000D01*
X128501260Y-100900000D01*
X128788158Y-100842932D01*
X129058411Y-100730990D01*
X129301632Y-100568475D01*
X129508475Y-100361632D01*
X129670990Y-100118411D01*
X129782932Y-99848158D01*
X129840000Y-99561260D01*
X129840000Y-99268740D01*
X129782932Y-98981842D01*
X129670990Y-98711589D01*
X129508475Y-98468368D01*
X129301632Y-98261525D01*
X129127240Y-98145000D01*
X129301632Y-98028475D01*
X129508475Y-97821632D01*
X129631842Y-97637000D01*
X148814066Y-97637000D01*
X148942863Y-97829759D01*
X149142741Y-98029637D01*
X149375259Y-98185000D01*
X149142741Y-98340363D01*
X148942863Y-98540241D01*
X148785820Y-98775273D01*
X148677647Y-99036426D01*
X148622500Y-99313665D01*
X148622500Y-99596335D01*
X148658343Y-99776526D01*
X143396870Y-105038000D01*
X129631842Y-105038000D01*
X129508475Y-104853368D01*
X129301632Y-104646525D01*
X129058411Y-104484010D01*
X128788158Y-104372068D01*
X128501260Y-104315000D01*
X128208740Y-104315000D01*
X127921842Y-104372068D01*
X127651589Y-104484010D01*
X127408368Y-104646525D01*
X127201525Y-104853368D01*
X127039010Y-105096589D01*
X126927068Y-105366842D01*
X126870000Y-105653740D01*
X126870000Y-105946260D01*
X126927068Y-106233158D01*
X127039010Y-106503411D01*
X127201525Y-106746632D01*
X127408368Y-106953475D01*
X127582760Y-107070000D01*
X127408368Y-107186525D01*
X127201525Y-107393368D01*
X127039010Y-107636589D01*
X126927068Y-107906842D01*
X126870000Y-108193740D01*
X126870000Y-108486260D01*
X126927068Y-108773158D01*
X127039010Y-109043411D01*
X127201525Y-109286632D01*
X127408368Y-109493475D01*
X127582760Y-109610000D01*
X127408368Y-109726525D01*
X127201525Y-109933368D01*
X127039010Y-110176589D01*
X126927068Y-110446842D01*
X126870000Y-110733740D01*
X126870000Y-111026260D01*
X126927068Y-111313158D01*
X127039010Y-111583411D01*
X127201525Y-111826632D01*
X127408368Y-112033475D01*
X127651589Y-112195990D01*
X127921842Y-112307932D01*
X128208740Y-112365000D01*
X128501260Y-112365000D01*
X128788158Y-112307932D01*
X129058411Y-112195990D01*
X129301632Y-112033475D01*
X129508475Y-111826632D01*
X129631842Y-111642000D01*
X143675077Y-111642000D01*
X143712500Y-111645686D01*
X143749923Y-111642000D01*
X143749926Y-111642000D01*
X143861878Y-111630974D01*
X144005515Y-111587402D01*
X144137892Y-111516645D01*
X144253922Y-111421422D01*
X144277784Y-111392346D01*
X148622500Y-107047631D01*
X148622500Y-107216335D01*
X148677647Y-107493574D01*
X148785820Y-107754727D01*
X148942863Y-107989759D01*
X149142741Y-108189637D01*
X149377773Y-108346680D01*
X149388365Y-108351067D01*
X149202369Y-108462615D01*
X148993981Y-108651586D01*
X148826463Y-108877580D01*
X148706254Y-109131913D01*
X148665596Y-109265961D01*
X148787585Y-109488000D01*
X149930500Y-109488000D01*
X149930500Y-109468000D01*
X150184500Y-109468000D01*
X150184500Y-109488000D01*
X151327415Y-109488000D01*
X151449404Y-109265961D01*
X151408746Y-109131913D01*
X151288537Y-108877580D01*
X151121019Y-108651586D01*
X150912631Y-108462615D01*
X150726635Y-108351067D01*
X150737227Y-108346680D01*
X150972259Y-108189637D01*
X151172137Y-107989759D01*
X151329180Y-107754727D01*
X151437353Y-107493574D01*
X151492500Y-107216335D01*
X151492500Y-106933665D01*
X151486456Y-106903279D01*
X155505736Y-102884000D01*
X164165651Y-102884000D01*
X164182863Y-102909759D01*
X164382741Y-103109637D01*
X164617773Y-103266680D01*
X164628365Y-103271067D01*
X164442369Y-103382615D01*
X164233981Y-103571586D01*
X164066463Y-103797580D01*
X163946254Y-104051913D01*
X163905596Y-104185961D01*
X164027585Y-104408000D01*
X165170500Y-104408000D01*
X165170500Y-104388000D01*
X165424500Y-104388000D01*
X165424500Y-104408000D01*
X166567415Y-104408000D01*
X166689404Y-104185961D01*
X166648746Y-104051913D01*
X166528537Y-103797580D01*
X166361019Y-103571586D01*
X166152631Y-103382615D01*
X165966635Y-103271067D01*
X165977227Y-103266680D01*
X166212259Y-103109637D01*
X166412137Y-102909759D01*
X166569180Y-102674727D01*
X166677353Y-102413574D01*
X166732500Y-102136335D01*
X166732500Y-101853665D01*
X166677353Y-101576426D01*
X166569180Y-101315273D01*
X166412137Y-101080241D01*
X166212259Y-100880363D01*
X165979741Y-100725000D01*
X166212259Y-100569637D01*
X166412137Y-100369759D01*
X166514207Y-100217000D01*
X185719794Y-100217000D01*
X185856525Y-100421632D01*
X186063368Y-100628475D01*
X186306589Y-100790990D01*
X186576842Y-100902932D01*
X186863740Y-100960000D01*
X187156260Y-100960000D01*
X187443158Y-100902932D01*
X187713411Y-100790990D01*
X187956632Y-100628475D01*
X188163475Y-100421632D01*
X188325990Y-100178411D01*
X188437932Y-99908158D01*
X188495000Y-99621260D01*
X188495000Y-99328740D01*
X188437932Y-99041842D01*
X188325990Y-98771589D01*
X188163475Y-98528368D01*
X187956632Y-98321525D01*
X187782240Y-98205000D01*
X187956632Y-98088475D01*
X188163475Y-97881632D01*
X188325990Y-97638411D01*
X188437932Y-97368158D01*
X188495000Y-97081260D01*
X188495000Y-96788740D01*
X188437932Y-96501842D01*
X188325990Y-96231589D01*
X188163475Y-95988368D01*
X187956632Y-95781525D01*
X187782240Y-95665000D01*
X187956632Y-95548475D01*
X188163475Y-95341632D01*
X188325990Y-95098411D01*
X188437932Y-94828158D01*
X188495000Y-94541260D01*
X188495000Y-94248740D01*
X188437932Y-93961842D01*
X188325990Y-93691589D01*
X188163475Y-93448368D01*
X187956632Y-93241525D01*
X187782240Y-93125000D01*
X187956632Y-93008475D01*
X188163475Y-92801632D01*
X188325990Y-92558411D01*
X188437932Y-92288158D01*
X188495000Y-92001260D01*
X188495000Y-91708740D01*
X188437932Y-91421842D01*
X188325990Y-91151589D01*
X188163475Y-90908368D01*
X187956632Y-90701525D01*
X187782240Y-90585000D01*
X187956632Y-90468475D01*
X188163475Y-90261632D01*
X188325990Y-90018411D01*
X188437932Y-89748158D01*
X188495000Y-89461260D01*
X188495000Y-89168740D01*
X188437932Y-88881842D01*
X188325990Y-88611589D01*
X188163475Y-88368368D01*
X187956632Y-88161525D01*
X187782240Y-88045000D01*
X187956632Y-87928475D01*
X188163475Y-87721632D01*
X188325990Y-87478411D01*
X188437932Y-87208158D01*
X188495000Y-86921260D01*
X188495000Y-86628740D01*
X188437932Y-86341842D01*
X188325990Y-86071589D01*
X188163475Y-85828368D01*
X187956632Y-85621525D01*
X187782240Y-85505000D01*
X187956632Y-85388475D01*
X188163475Y-85181632D01*
X188325990Y-84938411D01*
X188437932Y-84668158D01*
X188495000Y-84381260D01*
X188495000Y-84088740D01*
X188437932Y-83801842D01*
X188325990Y-83531589D01*
X188163475Y-83288368D01*
X187956632Y-83081525D01*
X187782240Y-82965000D01*
X187956632Y-82848475D01*
X188163475Y-82641632D01*
X188325990Y-82398411D01*
X188437932Y-82128158D01*
X188495000Y-81841260D01*
X188495000Y-81548740D01*
X188437932Y-81261842D01*
X188325990Y-80991589D01*
X188163475Y-80748368D01*
X187956632Y-80541525D01*
X187713411Y-80379010D01*
X187443158Y-80267068D01*
X187156260Y-80210000D01*
X186863740Y-80210000D01*
X186576842Y-80267068D01*
X186306589Y-80379010D01*
X186063368Y-80541525D01*
X185856525Y-80748368D01*
X185746521Y-80913000D01*
X166514207Y-80913000D01*
X166412137Y-80760241D01*
X166212259Y-80560363D01*
X165977227Y-80403320D01*
X165716074Y-80295147D01*
X165438835Y-80240000D01*
X165156165Y-80240000D01*
X164878926Y-80295147D01*
X164617773Y-80403320D01*
X164382741Y-80560363D01*
X164182863Y-80760241D01*
X164025820Y-80995273D01*
X163917647Y-81256426D01*
X163862500Y-81533665D01*
X163862500Y-81816335D01*
X163917647Y-82093574D01*
X164025820Y-82354727D01*
X164182863Y-82589759D01*
X164382741Y-82789637D01*
X164615259Y-82945000D01*
X164382741Y-83100363D01*
X164182863Y-83300241D01*
X164025820Y-83535273D01*
X163917647Y-83796426D01*
X163862500Y-84073665D01*
X163862500Y-84356335D01*
X163917647Y-84633574D01*
X164025820Y-84894727D01*
X164182863Y-85129759D01*
X164382741Y-85329637D01*
X164615259Y-85485000D01*
X164382741Y-85640363D01*
X164182863Y-85840241D01*
X164025820Y-86075273D01*
X163917647Y-86336426D01*
X163862500Y-86613665D01*
X163862500Y-86896335D01*
X163917647Y-87173574D01*
X164025820Y-87434727D01*
X164182863Y-87669759D01*
X164382741Y-87869637D01*
X164615259Y-88025000D01*
X164382741Y-88180363D01*
X164182863Y-88380241D01*
X164025820Y-88615273D01*
X163917647Y-88876426D01*
X163862500Y-89153665D01*
X163862500Y-89436335D01*
X163917647Y-89713574D01*
X164025820Y-89974727D01*
X164182863Y-90209759D01*
X164382741Y-90409637D01*
X164615259Y-90565000D01*
X164382741Y-90720363D01*
X164182863Y-90920241D01*
X164025820Y-91155273D01*
X163917647Y-91416426D01*
X163862500Y-91693665D01*
X163862500Y-91976335D01*
X163917647Y-92253574D01*
X164025820Y-92514727D01*
X164182863Y-92749759D01*
X164382741Y-92949637D01*
X164615259Y-93105000D01*
X164382741Y-93260363D01*
X164182863Y-93460241D01*
X164025820Y-93695273D01*
X163917647Y-93956426D01*
X163862500Y-94233665D01*
X163862500Y-94516335D01*
X163917647Y-94793574D01*
X164025820Y-95054727D01*
X164182863Y-95289759D01*
X164382741Y-95489637D01*
X164615259Y-95645000D01*
X164382741Y-95800363D01*
X164182863Y-96000241D01*
X164025820Y-96235273D01*
X163917647Y-96496426D01*
X163862500Y-96773665D01*
X163862500Y-97056335D01*
X163917647Y-97333574D01*
X164025820Y-97594727D01*
X164182863Y-97829759D01*
X164382741Y-98029637D01*
X164615259Y-98185000D01*
X164382741Y-98340363D01*
X164182863Y-98540241D01*
X164025820Y-98775273D01*
X163917647Y-99036426D01*
X163862500Y-99313665D01*
X163862500Y-99596335D01*
X163917647Y-99873574D01*
X164025820Y-100134727D01*
X164182863Y-100369759D01*
X164382741Y-100569637D01*
X164615259Y-100725000D01*
X164382741Y-100880363D01*
X164182863Y-101080241D01*
X164165651Y-101106000D01*
X156026500Y-101106000D01*
X156026500Y-87230735D01*
X163343236Y-79914000D01*
X172331340Y-79914000D01*
X172375000Y-79918300D01*
X172418660Y-79914000D01*
X172418667Y-79914000D01*
X172549274Y-79901136D01*
X172716851Y-79850303D01*
X172871291Y-79767753D01*
X173006659Y-79656659D01*
X173034499Y-79622736D01*
X174553280Y-78103956D01*
X174583665Y-78110000D01*
X174866335Y-78110000D01*
X175143574Y-78054853D01*
X175404727Y-77946680D01*
X175639759Y-77789637D01*
X175839637Y-77589759D01*
X175996680Y-77354727D01*
X176104853Y-77093574D01*
X176160000Y-76816335D01*
X176160000Y-76533665D01*
X176104853Y-76256426D01*
X175996680Y-75995273D01*
X175839637Y-75760241D01*
X175639759Y-75560363D01*
X175404727Y-75403320D01*
X175143574Y-75295147D01*
X174866335Y-75240000D01*
X174583665Y-75240000D01*
X174306426Y-75295147D01*
X174045273Y-75403320D01*
X173810241Y-75560363D01*
X173610363Y-75760241D01*
X173453320Y-75995273D01*
X173345147Y-76256426D01*
X173290000Y-76533665D01*
X173290000Y-76816335D01*
X173296044Y-76846720D01*
X172006765Y-78136000D01*
X163018660Y-78136000D01*
X162975000Y-78131700D01*
X162931340Y-78136000D01*
X162931333Y-78136000D01*
X162817325Y-78147229D01*
X162800725Y-78148864D01*
X162727758Y-78170998D01*
X162633149Y-78199697D01*
X162478709Y-78282247D01*
X162343341Y-78393341D01*
X162315506Y-78427258D01*
X154539764Y-86203001D01*
X154505841Y-86230841D01*
X154394747Y-86366210D01*
X154312197Y-86520650D01*
X154261364Y-86688227D01*
X154248500Y-86818834D01*
X154248500Y-86818840D01*
X154244200Y-86862500D01*
X154248500Y-86906160D01*
X154248501Y-101626763D01*
X151490691Y-104384573D01*
X151437353Y-104116426D01*
X151329180Y-103855273D01*
X151172137Y-103620241D01*
X150972259Y-103420363D01*
X150739741Y-103265000D01*
X150972259Y-103109637D01*
X151172137Y-102909759D01*
X151329180Y-102674727D01*
X151437353Y-102413574D01*
X151492500Y-102136335D01*
X151492500Y-101853665D01*
X151437353Y-101576426D01*
X151329180Y-101315273D01*
X151172137Y-101080241D01*
X150972259Y-100880363D01*
X150739741Y-100725000D01*
X150972259Y-100569637D01*
X151172137Y-100369759D01*
X151329180Y-100134727D01*
X151437353Y-99873574D01*
X151492500Y-99596335D01*
X151492500Y-99313665D01*
X151437353Y-99036426D01*
X151329180Y-98775273D01*
X151172137Y-98540241D01*
X150972259Y-98340363D01*
X150739741Y-98185000D01*
X150972259Y-98029637D01*
X151172137Y-97829759D01*
X151329180Y-97594727D01*
X151437353Y-97333574D01*
X151492500Y-97056335D01*
X151492500Y-96773665D01*
X151437353Y-96496426D01*
X151329180Y-96235273D01*
X151172137Y-96000241D01*
X150972259Y-95800363D01*
X150739741Y-95645000D01*
X150972259Y-95489637D01*
X151172137Y-95289759D01*
X151329180Y-95054727D01*
X151437353Y-94793574D01*
X151492500Y-94516335D01*
X151492500Y-94233665D01*
X151437353Y-93956426D01*
X151329180Y-93695273D01*
X151172137Y-93460241D01*
X150972259Y-93260363D01*
X150739741Y-93105000D01*
X150972259Y-92949637D01*
X151172137Y-92749759D01*
X151329180Y-92514727D01*
X151437353Y-92253574D01*
X151492500Y-91976335D01*
X151492500Y-91693665D01*
X151437353Y-91416426D01*
X151329180Y-91155273D01*
X151172137Y-90920241D01*
X150972259Y-90720363D01*
X150739741Y-90565000D01*
X150972259Y-90409637D01*
X151172137Y-90209759D01*
X151329180Y-89974727D01*
X151437353Y-89713574D01*
X151492500Y-89436335D01*
X151492500Y-89153665D01*
X151437353Y-88876426D01*
X151329180Y-88615273D01*
X151172137Y-88380241D01*
X150972259Y-88180363D01*
X150739741Y-88025000D01*
X150972259Y-87869637D01*
X151172137Y-87669759D01*
X151329180Y-87434727D01*
X151437353Y-87173574D01*
X151492500Y-86896335D01*
X151492500Y-86613665D01*
X151437353Y-86336426D01*
X151329180Y-86075273D01*
X151172137Y-85840241D01*
X150972259Y-85640363D01*
X150739741Y-85485000D01*
X150972259Y-85329637D01*
X151172137Y-85129759D01*
X151329180Y-84894727D01*
X151437353Y-84633574D01*
X151492500Y-84356335D01*
X151492500Y-84073665D01*
X151437353Y-83796426D01*
X151329180Y-83535273D01*
X151172137Y-83300241D01*
X150973539Y-83101643D01*
X150981982Y-83100812D01*
X151101680Y-83064502D01*
X151211994Y-83005537D01*
X151308685Y-82926185D01*
X151388037Y-82829494D01*
X151447002Y-82719180D01*
X151483312Y-82599482D01*
X151495572Y-82475000D01*
X151495572Y-81314558D01*
X155373131Y-77437000D01*
X165888293Y-77437000D01*
X165990363Y-77589759D01*
X166190241Y-77789637D01*
X166425273Y-77946680D01*
X166686426Y-78054853D01*
X166963665Y-78110000D01*
X167246335Y-78110000D01*
X167523574Y-78054853D01*
X167784727Y-77946680D01*
X168019759Y-77789637D01*
X168219637Y-77589759D01*
X168376680Y-77354727D01*
X168484853Y-77093574D01*
X168540000Y-76816335D01*
X168540000Y-76533665D01*
X168533956Y-76503279D01*
X170023236Y-75014000D01*
X179437613Y-75014000D01*
X179540013Y-75167252D01*
X179767748Y-75394987D01*
X180035537Y-75573918D01*
X180333088Y-75697168D01*
X180648967Y-75760000D01*
X180971033Y-75760000D01*
X181286912Y-75697168D01*
X181584463Y-75573918D01*
X181852252Y-75394987D01*
X182079987Y-75167252D01*
X182182387Y-75014000D01*
X185937613Y-75014000D01*
X186040013Y-75167252D01*
X186267748Y-75394987D01*
X186535537Y-75573918D01*
X186833088Y-75697168D01*
X187148967Y-75760000D01*
X187471033Y-75760000D01*
X187786912Y-75697168D01*
X188084463Y-75573918D01*
X188352252Y-75394987D01*
X188579987Y-75167252D01*
X188758918Y-74899463D01*
X188882168Y-74601912D01*
X188945000Y-74286033D01*
X188945000Y-73963967D01*
X188882168Y-73648088D01*
X188758918Y-73350537D01*
X188579987Y-73082748D01*
X188352252Y-72855013D01*
X188084463Y-72676082D01*
X187786912Y-72552832D01*
X187471033Y-72490000D01*
X187148967Y-72490000D01*
X186833088Y-72552832D01*
X186535537Y-72676082D01*
X186267748Y-72855013D01*
X186040013Y-73082748D01*
X185937613Y-73236000D01*
X182182387Y-73236000D01*
X182079987Y-73082748D01*
X181852252Y-72855013D01*
X181584463Y-72676082D01*
X181286912Y-72552832D01*
X180971033Y-72490000D01*
X180648967Y-72490000D01*
X180333088Y-72552832D01*
X180035537Y-72676082D01*
X179767748Y-72855013D01*
X179540013Y-73082748D01*
X179437613Y-73236000D01*
X169698668Y-73236000D01*
X169655000Y-73231699D01*
X169480725Y-73248864D01*
X169429892Y-73264284D01*
X169313149Y-73299697D01*
X169158709Y-73382247D01*
X169023341Y-73493341D01*
X168995506Y-73527258D01*
X167276721Y-75246044D01*
X167246335Y-75240000D01*
X166963665Y-75240000D01*
X166686426Y-75295147D01*
X166425273Y-75403320D01*
X166190241Y-75560363D01*
X165990363Y-75760241D01*
X165888293Y-75913000D01*
X155094923Y-75913000D01*
X155057500Y-75909314D01*
X155020077Y-75913000D01*
X155020074Y-75913000D01*
X154908122Y-75924026D01*
X154764485Y-75967598D01*
X154712709Y-75995273D01*
X154632107Y-76038355D01*
X154584702Y-76077260D01*
X154516078Y-76133578D01*
X154492221Y-76162648D01*
X150417942Y-80236928D01*
X149257500Y-80236928D01*
X149133018Y-80249188D01*
X149013320Y-80285498D01*
X148903006Y-80344463D01*
X148806315Y-80423815D01*
X148726963Y-80520506D01*
X148667998Y-80630820D01*
X148631688Y-80750518D01*
X148619428Y-80875000D01*
X148619428Y-82475000D01*
X148631688Y-82599482D01*
X148667998Y-82719180D01*
X148726963Y-82829494D01*
X148806315Y-82926185D01*
X148903006Y-83005537D01*
X149013320Y-83064502D01*
X149133018Y-83100812D01*
X149141461Y-83101643D01*
X148942863Y-83300241D01*
X148867520Y-83413000D01*
X129631842Y-83413000D01*
X129508475Y-83228368D01*
X129301632Y-83021525D01*
X129058411Y-82859010D01*
X128788158Y-82747068D01*
X128501260Y-82690000D01*
X128208740Y-82690000D01*
X127921842Y-82747068D01*
X127651589Y-82859010D01*
X127408368Y-83021525D01*
X127201525Y-83228368D01*
X127039010Y-83471589D01*
X126927068Y-83741842D01*
X126870000Y-84028740D01*
X122760000Y-84028740D01*
X122760000Y-74617702D01*
X133061903Y-74617702D01*
X133133486Y-74861671D01*
X133388996Y-74982571D01*
X133663184Y-75051300D01*
X133945512Y-75065217D01*
X134225130Y-75023787D01*
X134491292Y-74928603D01*
X134616514Y-74861671D01*
X134688097Y-74617702D01*
X133875000Y-73804605D01*
X133061903Y-74617702D01*
X122760000Y-74617702D01*
X122760000Y-73695512D01*
X132434783Y-73695512D01*
X132476213Y-73975130D01*
X132571397Y-74241292D01*
X132638329Y-74366514D01*
X132882298Y-74438097D01*
X133695395Y-73625000D01*
X134054605Y-73625000D01*
X134867702Y-74438097D01*
X135111671Y-74366514D01*
X135125324Y-74337659D01*
X135260363Y-74539759D01*
X135460241Y-74739637D01*
X135695273Y-74896680D01*
X135956426Y-75004853D01*
X136233665Y-75060000D01*
X136516335Y-75060000D01*
X136793574Y-75004853D01*
X137054727Y-74896680D01*
X137289759Y-74739637D01*
X137489637Y-74539759D01*
X137506849Y-74514000D01*
X146551340Y-74514000D01*
X146595000Y-74518300D01*
X146638660Y-74514000D01*
X146638667Y-74514000D01*
X146769274Y-74501136D01*
X146936851Y-74450303D01*
X147091291Y-74367753D01*
X147226659Y-74256659D01*
X147254499Y-74222736D01*
X153423280Y-68053956D01*
X153453665Y-68060000D01*
X153736335Y-68060000D01*
X154013574Y-68004853D01*
X154274727Y-67896680D01*
X154398467Y-67814000D01*
X158089306Y-67814000D01*
X158220788Y-67974212D01*
X158397421Y-68119171D01*
X158598940Y-68226885D01*
X158817600Y-68293215D01*
X158935898Y-68304866D01*
X156354765Y-70886000D01*
X154726849Y-70886000D01*
X154709637Y-70860241D01*
X154509759Y-70660363D01*
X154274727Y-70503320D01*
X154013574Y-70395147D01*
X153736335Y-70340000D01*
X153453665Y-70340000D01*
X153176426Y-70395147D01*
X152915273Y-70503320D01*
X152680241Y-70660363D01*
X152480363Y-70860241D01*
X152323320Y-71095273D01*
X152215147Y-71356426D01*
X152160000Y-71633665D01*
X152160000Y-71916335D01*
X152215147Y-72193574D01*
X152323320Y-72454727D01*
X152480363Y-72689759D01*
X152680241Y-72889637D01*
X152915273Y-73046680D01*
X153176426Y-73154853D01*
X153453665Y-73210000D01*
X153736335Y-73210000D01*
X154013574Y-73154853D01*
X154274727Y-73046680D01*
X154509759Y-72889637D01*
X154709637Y-72689759D01*
X154726849Y-72664000D01*
X156679340Y-72664000D01*
X156723000Y-72668300D01*
X156766660Y-72664000D01*
X156766667Y-72664000D01*
X156897274Y-72651136D01*
X157064851Y-72600303D01*
X157219291Y-72517753D01*
X157354659Y-72406659D01*
X157382499Y-72372736D01*
X160912743Y-68842493D01*
X160946659Y-68814659D01*
X161057753Y-68679291D01*
X161140303Y-68524851D01*
X161160296Y-68458942D01*
X161191136Y-68357276D01*
X161200934Y-68257795D01*
X161202092Y-68246042D01*
X161357600Y-68293215D01*
X161585000Y-68315612D01*
X161812399Y-68293215D01*
X162031059Y-68226885D01*
X162232578Y-68119171D01*
X162409212Y-67974212D01*
X162540695Y-67814000D01*
X166014604Y-67814000D01*
X166190241Y-67989637D01*
X166216001Y-68006849D01*
X166216000Y-70643151D01*
X166190241Y-70660363D01*
X165990363Y-70860241D01*
X165833320Y-71095273D01*
X165725147Y-71356426D01*
X165670000Y-71633665D01*
X165670000Y-71916335D01*
X165725147Y-72193574D01*
X165833320Y-72454727D01*
X165990363Y-72689759D01*
X166190241Y-72889637D01*
X166425273Y-73046680D01*
X166686426Y-73154853D01*
X166963665Y-73210000D01*
X167246335Y-73210000D01*
X167523574Y-73154853D01*
X167784727Y-73046680D01*
X168019759Y-72889637D01*
X168219637Y-72689759D01*
X168376680Y-72454727D01*
X168484853Y-72193574D01*
X168498684Y-72124039D01*
X173333096Y-72124039D01*
X173373754Y-72258087D01*
X173493963Y-72512420D01*
X173661481Y-72738414D01*
X173869869Y-72927385D01*
X174111119Y-73072070D01*
X174375960Y-73166909D01*
X174598000Y-73045624D01*
X174598000Y-71902000D01*
X174852000Y-71902000D01*
X174852000Y-73045624D01*
X175074040Y-73166909D01*
X175338881Y-73072070D01*
X175580131Y-72927385D01*
X175788519Y-72738414D01*
X175956037Y-72512420D01*
X176076246Y-72258087D01*
X176116904Y-72124039D01*
X175994915Y-71902000D01*
X174852000Y-71902000D01*
X174598000Y-71902000D01*
X173455085Y-71902000D01*
X173333096Y-72124039D01*
X168498684Y-72124039D01*
X168540000Y-71916335D01*
X168540000Y-71633665D01*
X168498685Y-71425961D01*
X173333096Y-71425961D01*
X173455085Y-71648000D01*
X174598000Y-71648000D01*
X174598000Y-70504376D01*
X174852000Y-70504376D01*
X174852000Y-71648000D01*
X175994915Y-71648000D01*
X176116904Y-71425961D01*
X176076246Y-71291913D01*
X175956037Y-71037580D01*
X175788519Y-70811586D01*
X175732088Y-70760413D01*
X179854192Y-70760413D01*
X179949956Y-71024814D01*
X180239571Y-71165704D01*
X180551108Y-71247384D01*
X180872595Y-71266718D01*
X181191675Y-71222961D01*
X181496088Y-71117795D01*
X181670044Y-71024814D01*
X181765808Y-70760413D01*
X186354192Y-70760413D01*
X186449956Y-71024814D01*
X186739571Y-71165704D01*
X187051108Y-71247384D01*
X187372595Y-71266718D01*
X187691675Y-71222961D01*
X187996088Y-71117795D01*
X188170044Y-71024814D01*
X188265808Y-70760413D01*
X187310000Y-69804605D01*
X186354192Y-70760413D01*
X181765808Y-70760413D01*
X180810000Y-69804605D01*
X179854192Y-70760413D01*
X175732088Y-70760413D01*
X175580131Y-70622615D01*
X175338881Y-70477930D01*
X175074040Y-70383091D01*
X174852000Y-70504376D01*
X174598000Y-70504376D01*
X174375960Y-70383091D01*
X174111119Y-70477930D01*
X173869869Y-70622615D01*
X173661481Y-70811586D01*
X173493963Y-71037580D01*
X173373754Y-71291913D01*
X173333096Y-71425961D01*
X168498685Y-71425961D01*
X168484853Y-71356426D01*
X168376680Y-71095273D01*
X168219637Y-70860241D01*
X168019759Y-70660363D01*
X167994000Y-70643151D01*
X167994000Y-69687595D01*
X179168282Y-69687595D01*
X179212039Y-70006675D01*
X179317205Y-70311088D01*
X179410186Y-70485044D01*
X179674587Y-70580808D01*
X180630395Y-69625000D01*
X180989605Y-69625000D01*
X181945413Y-70580808D01*
X182209814Y-70485044D01*
X182350704Y-70195429D01*
X182432384Y-69883892D01*
X182444189Y-69687595D01*
X185668282Y-69687595D01*
X185712039Y-70006675D01*
X185817205Y-70311088D01*
X185910186Y-70485044D01*
X186174587Y-70580808D01*
X187130395Y-69625000D01*
X187489605Y-69625000D01*
X188445413Y-70580808D01*
X188709814Y-70485044D01*
X188850704Y-70195429D01*
X188932384Y-69883892D01*
X188951718Y-69562405D01*
X188907961Y-69243325D01*
X188802795Y-68938912D01*
X188709814Y-68764956D01*
X188445413Y-68669192D01*
X187489605Y-69625000D01*
X187130395Y-69625000D01*
X186174587Y-68669192D01*
X185910186Y-68764956D01*
X185769296Y-69054571D01*
X185687616Y-69366108D01*
X185668282Y-69687595D01*
X182444189Y-69687595D01*
X182451718Y-69562405D01*
X182407961Y-69243325D01*
X182302795Y-68938912D01*
X182209814Y-68764956D01*
X181945413Y-68669192D01*
X180989605Y-69625000D01*
X180630395Y-69625000D01*
X179674587Y-68669192D01*
X179410186Y-68764956D01*
X179269296Y-69054571D01*
X179187616Y-69366108D01*
X179168282Y-69687595D01*
X167994000Y-69687595D01*
X167994000Y-68489587D01*
X179854192Y-68489587D01*
X180810000Y-69445395D01*
X181765808Y-68489587D01*
X186354192Y-68489587D01*
X187310000Y-69445395D01*
X188265808Y-68489587D01*
X188170044Y-68225186D01*
X187880429Y-68084296D01*
X187568892Y-68002616D01*
X187247405Y-67983282D01*
X186928325Y-68027039D01*
X186623912Y-68132205D01*
X186449956Y-68225186D01*
X186354192Y-68489587D01*
X181765808Y-68489587D01*
X181670044Y-68225186D01*
X181380429Y-68084296D01*
X181068892Y-68002616D01*
X180747405Y-67983282D01*
X180428325Y-68027039D01*
X180123912Y-68132205D01*
X179949956Y-68225186D01*
X179854192Y-68489587D01*
X167994000Y-68489587D01*
X167994000Y-68006849D01*
X168019759Y-67989637D01*
X168141694Y-67867702D01*
X173911903Y-67867702D01*
X173983486Y-68111671D01*
X174238996Y-68232571D01*
X174513184Y-68301300D01*
X174795512Y-68315217D01*
X175075130Y-68273787D01*
X175341292Y-68178603D01*
X175466514Y-68111671D01*
X175538097Y-67867702D01*
X174725000Y-67054605D01*
X173911903Y-67867702D01*
X168141694Y-67867702D01*
X168219637Y-67789759D01*
X168376680Y-67554727D01*
X168484853Y-67293574D01*
X168540000Y-67016335D01*
X168540000Y-66945512D01*
X173284783Y-66945512D01*
X173326213Y-67225130D01*
X173421397Y-67491292D01*
X173488329Y-67616514D01*
X173732298Y-67688097D01*
X174545395Y-66875000D01*
X174904605Y-66875000D01*
X175717702Y-67688097D01*
X175961671Y-67616514D01*
X176082571Y-67361004D01*
X176151300Y-67086816D01*
X176165217Y-66804488D01*
X176123787Y-66524870D01*
X176028603Y-66258708D01*
X175961671Y-66133486D01*
X175717702Y-66061903D01*
X174904605Y-66875000D01*
X174545395Y-66875000D01*
X173732298Y-66061903D01*
X173488329Y-66133486D01*
X173367429Y-66388996D01*
X173298700Y-66663184D01*
X173284783Y-66945512D01*
X168540000Y-66945512D01*
X168540000Y-66733665D01*
X168484853Y-66456426D01*
X168376680Y-66195273D01*
X168219637Y-65960241D01*
X168141694Y-65882298D01*
X173911903Y-65882298D01*
X174725000Y-66695395D01*
X175538097Y-65882298D01*
X175466514Y-65638329D01*
X175211004Y-65517429D01*
X174936816Y-65448700D01*
X174654488Y-65434783D01*
X174374870Y-65476213D01*
X174108708Y-65571397D01*
X173983486Y-65638329D01*
X173911903Y-65882298D01*
X168141694Y-65882298D01*
X168019759Y-65760363D01*
X167784727Y-65603320D01*
X167523574Y-65495147D01*
X167246335Y-65440000D01*
X166963665Y-65440000D01*
X166686426Y-65495147D01*
X166425273Y-65603320D01*
X166190241Y-65760363D01*
X165990363Y-65960241D01*
X165939743Y-66036000D01*
X164029172Y-66036000D01*
X164146851Y-66000303D01*
X164301291Y-65917753D01*
X164436659Y-65806659D01*
X164464499Y-65772736D01*
X166933280Y-63303956D01*
X166963665Y-63310000D01*
X167246335Y-63310000D01*
X167523574Y-63254853D01*
X167784727Y-63146680D01*
X168019759Y-62989637D01*
X168219637Y-62789759D01*
X168376680Y-62554727D01*
X168484853Y-62293574D01*
X168540000Y-62016335D01*
X168540000Y-61733665D01*
X168484853Y-61456426D01*
X168404004Y-61261240D01*
X171615506Y-64472742D01*
X171643341Y-64506659D01*
X171778709Y-64617753D01*
X171933149Y-64700303D01*
X172027758Y-64729002D01*
X172100725Y-64751136D01*
X172119073Y-64752943D01*
X172231333Y-64764000D01*
X172231339Y-64764000D01*
X172274999Y-64768300D01*
X172318659Y-64764000D01*
X182171340Y-64764000D01*
X182215000Y-64768300D01*
X182258660Y-64764000D01*
X182258667Y-64764000D01*
X182389274Y-64751136D01*
X182556851Y-64700303D01*
X182711291Y-64617753D01*
X182846659Y-64506659D01*
X182868329Y-64480255D01*
X183100000Y-64503072D01*
X184850000Y-64503072D01*
X185145186Y-64473999D01*
X185429028Y-64387896D01*
X185690618Y-64248073D01*
X185919903Y-64059903D01*
X186108073Y-63830618D01*
X186247896Y-63569028D01*
X186333999Y-63285186D01*
X186363072Y-62990000D01*
X186363072Y-61240000D01*
X186333999Y-60944814D01*
X186247896Y-60660972D01*
X186108073Y-60399382D01*
X185919903Y-60170097D01*
X185690618Y-59981927D01*
X185429028Y-59842104D01*
X185145186Y-59756001D01*
X184850000Y-59726928D01*
X183100000Y-59726928D01*
X182804814Y-59756001D01*
X182520972Y-59842104D01*
X182259382Y-59981927D01*
X182030097Y-60170097D01*
X181841927Y-60399382D01*
X181702104Y-60660972D01*
X181662915Y-60790160D01*
X181660000Y-59400750D01*
X181501250Y-59242000D01*
X179402000Y-59242000D01*
X179402000Y-61341250D01*
X179560750Y-61500000D01*
X181025000Y-61503072D01*
X181149482Y-61490812D01*
X181269180Y-61454502D01*
X181379494Y-61395537D01*
X181476185Y-61316185D01*
X181555537Y-61219494D01*
X181596494Y-61142869D01*
X181586928Y-61240000D01*
X181586928Y-62986000D01*
X175643396Y-62986000D01*
X175839637Y-62789759D01*
X175996680Y-62554727D01*
X176104853Y-62293574D01*
X176160000Y-62016335D01*
X176160000Y-61733665D01*
X176104853Y-61456426D01*
X175996680Y-61195273D01*
X175839637Y-60960241D01*
X175744396Y-60865000D01*
X176886928Y-60865000D01*
X176899188Y-60989482D01*
X176935498Y-61109180D01*
X176994463Y-61219494D01*
X177073815Y-61316185D01*
X177170506Y-61395537D01*
X177280820Y-61454502D01*
X177400518Y-61490812D01*
X177525000Y-61503072D01*
X178989250Y-61500000D01*
X179148000Y-61341250D01*
X179148000Y-59242000D01*
X177048750Y-59242000D01*
X176890000Y-59400750D01*
X176886928Y-60865000D01*
X175744396Y-60865000D01*
X175639759Y-60760363D01*
X175404727Y-60603320D01*
X175143574Y-60495147D01*
X174866335Y-60440000D01*
X174779000Y-60440000D01*
X174779000Y-57365000D01*
X176886928Y-57365000D01*
X176890000Y-58829250D01*
X177048750Y-58988000D01*
X179148000Y-58988000D01*
X179148000Y-56888750D01*
X179402000Y-56888750D01*
X179402000Y-58988000D01*
X181501250Y-58988000D01*
X181660000Y-58829250D01*
X181661931Y-57908633D01*
X181694463Y-57969494D01*
X181773815Y-58066185D01*
X181870506Y-58145537D01*
X181980820Y-58204502D01*
X182100518Y-58240812D01*
X182225000Y-58253072D01*
X183689250Y-58250000D01*
X183848000Y-58091250D01*
X183848000Y-56242000D01*
X184102000Y-56242000D01*
X184102000Y-58091250D01*
X184260750Y-58250000D01*
X185725000Y-58253072D01*
X185849482Y-58240812D01*
X185969180Y-58204502D01*
X186079494Y-58145537D01*
X186176185Y-58066185D01*
X186255537Y-57969494D01*
X186314502Y-57859180D01*
X186350812Y-57739482D01*
X186363072Y-57615000D01*
X186360000Y-56400750D01*
X186201250Y-56242000D01*
X184102000Y-56242000D01*
X183848000Y-56242000D01*
X181748750Y-56242000D01*
X181590000Y-56400750D01*
X181588302Y-57071805D01*
X181555537Y-57010506D01*
X181476185Y-56913815D01*
X181379494Y-56834463D01*
X181269180Y-56775498D01*
X181149482Y-56739188D01*
X181025000Y-56726928D01*
X179560750Y-56730000D01*
X179402000Y-56888750D01*
X179148000Y-56888750D01*
X178989250Y-56730000D01*
X177525000Y-56726928D01*
X177400518Y-56739188D01*
X177280820Y-56775498D01*
X177170506Y-56834463D01*
X177073815Y-56913815D01*
X176994463Y-57010506D01*
X176935498Y-57120820D01*
X176899188Y-57240518D01*
X176886928Y-57365000D01*
X174779000Y-57365000D01*
X174779000Y-55827117D01*
X174868505Y-55767312D01*
X175082312Y-55553505D01*
X175250299Y-55302095D01*
X175366011Y-55022743D01*
X175425000Y-54726184D01*
X175425000Y-54615000D01*
X181586928Y-54615000D01*
X181590000Y-55829250D01*
X181748750Y-55988000D01*
X183848000Y-55988000D01*
X183848000Y-54138750D01*
X184102000Y-54138750D01*
X184102000Y-55988000D01*
X186201250Y-55988000D01*
X186360000Y-55829250D01*
X186363072Y-54615000D01*
X186350812Y-54490518D01*
X186314502Y-54370820D01*
X186255537Y-54260506D01*
X186176185Y-54163815D01*
X186079494Y-54084463D01*
X185969180Y-54025498D01*
X185849482Y-53989188D01*
X185725000Y-53976928D01*
X184260750Y-53980000D01*
X184102000Y-54138750D01*
X183848000Y-54138750D01*
X183689250Y-53980000D01*
X182225000Y-53976928D01*
X182100518Y-53989188D01*
X181980820Y-54025498D01*
X181870506Y-54084463D01*
X181773815Y-54163815D01*
X181694463Y-54260506D01*
X181635498Y-54370820D01*
X181599188Y-54490518D01*
X181586928Y-54615000D01*
X175425000Y-54615000D01*
X175425000Y-54423816D01*
X175366011Y-54127257D01*
X175250299Y-53847905D01*
X175082312Y-53596495D01*
X174868505Y-53382688D01*
X174617095Y-53214701D01*
X174337743Y-53098989D01*
X174041184Y-53040000D01*
X173738816Y-53040000D01*
X173442257Y-53098989D01*
X173162905Y-53214701D01*
X172911495Y-53382688D01*
X172697688Y-53596495D01*
X172595049Y-53750105D01*
X172414080Y-53690525D01*
X171529605Y-54575000D01*
X172414080Y-55459475D01*
X172595049Y-55399895D01*
X172697688Y-55553505D01*
X172911495Y-55767312D01*
X173001000Y-55827118D01*
X173001001Y-60996330D01*
X172996700Y-61040000D01*
X173013864Y-61214274D01*
X173064698Y-61381852D01*
X173119119Y-61483665D01*
X173147248Y-61536291D01*
X173258342Y-61671659D01*
X173292259Y-61699494D01*
X173296044Y-61703279D01*
X173290000Y-61733665D01*
X173290000Y-62016335D01*
X173345147Y-62293574D01*
X173453320Y-62554727D01*
X173610363Y-62789759D01*
X173806604Y-62986000D01*
X172643236Y-62986000D01*
X167508373Y-57851137D01*
X167641292Y-57803603D01*
X167766514Y-57736671D01*
X167838097Y-57492702D01*
X167025000Y-56679605D01*
X167010858Y-56693748D01*
X166831253Y-56514143D01*
X166845395Y-56500000D01*
X167204605Y-56500000D01*
X168017702Y-57313097D01*
X168261671Y-57241514D01*
X168382571Y-56986004D01*
X168451300Y-56711816D01*
X168465217Y-56429488D01*
X168423787Y-56149870D01*
X168328603Y-55883708D01*
X168261671Y-55758486D01*
X168017702Y-55686903D01*
X167204605Y-56500000D01*
X166845395Y-56500000D01*
X166032298Y-55686903D01*
X165788329Y-55758486D01*
X165774676Y-55787341D01*
X165639637Y-55585241D01*
X165561694Y-55507298D01*
X166211903Y-55507298D01*
X167025000Y-56320395D01*
X167706315Y-55639080D01*
X170465525Y-55639080D01*
X170549208Y-55893261D01*
X170821775Y-56024158D01*
X171114642Y-56099365D01*
X171416553Y-56115991D01*
X171715907Y-56073397D01*
X172001199Y-55973222D01*
X172150792Y-55893261D01*
X172234475Y-55639080D01*
X171350000Y-54754605D01*
X170465525Y-55639080D01*
X167706315Y-55639080D01*
X167838097Y-55507298D01*
X167766514Y-55263329D01*
X167511004Y-55142429D01*
X167236816Y-55073700D01*
X166954488Y-55059783D01*
X166674870Y-55101213D01*
X166408708Y-55196397D01*
X166283486Y-55263329D01*
X166211903Y-55507298D01*
X165561694Y-55507298D01*
X165439759Y-55385363D01*
X165204727Y-55228320D01*
X164943574Y-55120147D01*
X164666335Y-55065000D01*
X164622236Y-55065000D01*
X164198789Y-54641553D01*
X169809009Y-54641553D01*
X169851603Y-54940907D01*
X169951778Y-55226199D01*
X170031739Y-55375792D01*
X170285920Y-55459475D01*
X171170395Y-54575000D01*
X170285920Y-53690525D01*
X170031739Y-53774208D01*
X169900842Y-54046775D01*
X169825635Y-54339642D01*
X169809009Y-54641553D01*
X164198789Y-54641553D01*
X163068156Y-53510920D01*
X170465525Y-53510920D01*
X171350000Y-54395395D01*
X172234475Y-53510920D01*
X172150792Y-53256739D01*
X171878225Y-53125842D01*
X171585358Y-53050635D01*
X171283447Y-53034009D01*
X170984093Y-53076603D01*
X170698801Y-53176778D01*
X170549208Y-53256739D01*
X170465525Y-53510920D01*
X163068156Y-53510920D01*
X161684499Y-52127264D01*
X161656659Y-52093341D01*
X161521291Y-51982247D01*
X161366851Y-51899697D01*
X161199274Y-51848864D01*
X161068667Y-51836000D01*
X161068660Y-51836000D01*
X161025000Y-51831700D01*
X160981340Y-51836000D01*
X160890259Y-51836000D01*
X160808092Y-51713028D01*
X160586972Y-51491908D01*
X160326963Y-51318176D01*
X160038057Y-51198507D01*
X159731355Y-51137500D01*
X159418645Y-51137500D01*
X159111943Y-51198507D01*
X158823037Y-51318176D01*
X158563028Y-51491908D01*
X158341908Y-51713028D01*
X158321815Y-51743099D01*
X158162963Y-51549537D01*
X157921235Y-51351155D01*
X157645449Y-51203745D01*
X157346204Y-51112970D01*
X157035000Y-51082319D01*
X156723797Y-51112970D01*
X156424552Y-51203745D01*
X156148766Y-51351155D01*
X155907037Y-51549537D01*
X155765000Y-51722609D01*
X155622963Y-51549537D01*
X155381235Y-51351155D01*
X155105449Y-51203745D01*
X154806204Y-51112970D01*
X154495000Y-51082319D01*
X154183797Y-51112970D01*
X153884552Y-51203745D01*
X153608766Y-51351155D01*
X153367037Y-51549537D01*
X153168655Y-51791265D01*
X153144744Y-51836000D01*
X149793659Y-51836000D01*
X149749999Y-51831700D01*
X149706339Y-51836000D01*
X149706333Y-51836000D01*
X149608924Y-51845594D01*
X149575724Y-51848864D01*
X149474058Y-51879704D01*
X149408149Y-51899697D01*
X149253709Y-51982247D01*
X149118341Y-52093341D01*
X149090506Y-52127258D01*
X146146721Y-55071044D01*
X146116335Y-55065000D01*
X145833665Y-55065000D01*
X145556426Y-55120147D01*
X145295273Y-55228320D01*
X145060241Y-55385363D01*
X144860363Y-55585241D01*
X144703320Y-55820273D01*
X144595147Y-56081426D01*
X144540000Y-56358665D01*
X144540000Y-56641335D01*
X144595147Y-56918574D01*
X144703320Y-57179727D01*
X144860363Y-57414759D01*
X145060241Y-57614637D01*
X145086000Y-57631849D01*
X145086001Y-59041333D01*
X145086000Y-60743151D01*
X145060241Y-60760363D01*
X144860363Y-60960241D01*
X144703320Y-61195273D01*
X144595147Y-61456426D01*
X144540000Y-61733665D01*
X144540000Y-62016335D01*
X144595147Y-62293574D01*
X144703320Y-62554727D01*
X144860363Y-62789759D01*
X145060241Y-62989637D01*
X145086000Y-63006849D01*
X145086001Y-65493151D01*
X145060241Y-65510363D01*
X144860363Y-65710241D01*
X144703320Y-65945273D01*
X144595147Y-66206426D01*
X144540000Y-66483665D01*
X144540000Y-66766335D01*
X144595147Y-67043574D01*
X144703320Y-67304727D01*
X144860363Y-67539759D01*
X145060241Y-67739637D01*
X145086001Y-67756849D01*
X145086000Y-70643151D01*
X145060241Y-70660363D01*
X144860363Y-70860241D01*
X144703320Y-71095273D01*
X144595147Y-71356426D01*
X144540000Y-71633665D01*
X144540000Y-71916335D01*
X144595147Y-72193574D01*
X144703320Y-72454727D01*
X144860363Y-72689759D01*
X144906604Y-72736000D01*
X137506849Y-72736000D01*
X137489637Y-72710241D01*
X137289759Y-72510363D01*
X137054727Y-72353320D01*
X136793574Y-72245147D01*
X136516335Y-72190000D01*
X136233665Y-72190000D01*
X135956426Y-72245147D01*
X135695273Y-72353320D01*
X135460241Y-72510363D01*
X135260363Y-72710241D01*
X135126308Y-72910869D01*
X135111671Y-72883486D01*
X134867702Y-72811903D01*
X134054605Y-73625000D01*
X133695395Y-73625000D01*
X132882298Y-72811903D01*
X132638329Y-72883486D01*
X132517429Y-73138996D01*
X132448700Y-73413184D01*
X132434783Y-73695512D01*
X122760000Y-73695512D01*
X122760000Y-72632298D01*
X133061903Y-72632298D01*
X133875000Y-73445395D01*
X134688097Y-72632298D01*
X134616514Y-72388329D01*
X134361004Y-72267429D01*
X134086816Y-72198700D01*
X133804488Y-72184783D01*
X133524870Y-72226213D01*
X133258708Y-72321397D01*
X133133486Y-72388329D01*
X133061903Y-72632298D01*
X122760000Y-72632298D01*
X122760000Y-61693531D01*
X132084389Y-61693531D01*
X132126401Y-61983019D01*
X132224081Y-62258747D01*
X132297528Y-62396157D01*
X132546601Y-62473791D01*
X132430496Y-62589896D01*
X132470247Y-62629647D01*
X132421525Y-62678368D01*
X132259010Y-62921589D01*
X132147068Y-63191842D01*
X132090000Y-63478740D01*
X132090000Y-63771260D01*
X132147068Y-64058158D01*
X132259010Y-64328411D01*
X132421525Y-64571632D01*
X132628368Y-64778475D01*
X132871589Y-64940990D01*
X133141842Y-65052932D01*
X133428740Y-65110000D01*
X133721260Y-65110000D01*
X133939049Y-65066679D01*
X138559721Y-69687352D01*
X138583578Y-69716422D01*
X138699608Y-69811645D01*
X138831985Y-69882402D01*
X138975622Y-69925974D01*
X139087574Y-69937000D01*
X139087576Y-69937000D01*
X139124999Y-69940686D01*
X139162422Y-69937000D01*
X141348289Y-69937000D01*
X141390226Y-69978937D01*
X141559744Y-70092205D01*
X141748102Y-70170226D01*
X141948061Y-70210000D01*
X142151939Y-70210000D01*
X142351898Y-70170226D01*
X142540256Y-70092205D01*
X142709774Y-69978937D01*
X142853937Y-69834774D01*
X142967205Y-69665256D01*
X143045226Y-69476898D01*
X143085000Y-69276939D01*
X143085000Y-69073061D01*
X143045226Y-68873102D01*
X142967205Y-68684744D01*
X142853937Y-68515226D01*
X142709774Y-68371063D01*
X142540256Y-68257795D01*
X142351898Y-68179774D01*
X142151939Y-68140000D01*
X141948061Y-68140000D01*
X141748102Y-68179774D01*
X141559744Y-68257795D01*
X141390226Y-68371063D01*
X141348289Y-68413000D01*
X139440631Y-68413000D01*
X136137630Y-65110000D01*
X136221260Y-65110000D01*
X136508158Y-65052932D01*
X136778411Y-64940990D01*
X137021632Y-64778475D01*
X137228475Y-64571632D01*
X137390990Y-64328411D01*
X137502932Y-64058158D01*
X137560000Y-63771260D01*
X137560000Y-63478740D01*
X137502932Y-63191842D01*
X137390990Y-62921589D01*
X137228475Y-62678368D01*
X137175107Y-62625000D01*
X137228475Y-62571632D01*
X137390990Y-62328411D01*
X137502932Y-62058158D01*
X137560000Y-61771260D01*
X137560000Y-61478740D01*
X137502932Y-61191842D01*
X137390990Y-60921589D01*
X137228475Y-60678368D01*
X137134716Y-60584609D01*
X139354997Y-60584609D01*
X139541073Y-60925766D01*
X139958409Y-61141513D01*
X140409815Y-61271696D01*
X140877946Y-61311313D01*
X141344811Y-61258842D01*
X141792468Y-61116297D01*
X142148927Y-60925766D01*
X142335003Y-60584609D01*
X140845000Y-59094605D01*
X139354997Y-60584609D01*
X137134716Y-60584609D01*
X137021632Y-60471525D01*
X136778411Y-60309010D01*
X136508158Y-60197068D01*
X136221260Y-60140000D01*
X135928740Y-60140000D01*
X135641842Y-60197068D01*
X135371589Y-60309010D01*
X135128368Y-60471525D01*
X134921525Y-60678368D01*
X134812584Y-60841410D01*
X134603397Y-60776208D01*
X133754605Y-61625000D01*
X133768748Y-61639143D01*
X133589143Y-61818748D01*
X133575000Y-61804605D01*
X133560858Y-61818748D01*
X133381253Y-61639143D01*
X133395395Y-61625000D01*
X132546603Y-60776208D01*
X132297528Y-60853843D01*
X132171629Y-61117883D01*
X132099661Y-61401411D01*
X132084389Y-61693531D01*
X122760000Y-61693531D01*
X122760000Y-60584609D01*
X127314997Y-60584609D01*
X127501073Y-60925766D01*
X127918409Y-61141513D01*
X128369815Y-61271696D01*
X128837946Y-61311313D01*
X129304811Y-61258842D01*
X129752468Y-61116297D01*
X130108927Y-60925766D01*
X130288461Y-60596603D01*
X132726208Y-60596603D01*
X133575000Y-61445395D01*
X134423792Y-60596603D01*
X134346157Y-60347528D01*
X134082117Y-60221629D01*
X133798589Y-60149661D01*
X133506469Y-60134389D01*
X133216981Y-60176401D01*
X132941253Y-60274081D01*
X132803843Y-60347528D01*
X132726208Y-60596603D01*
X130288461Y-60596603D01*
X130295003Y-60584609D01*
X128805000Y-59094605D01*
X127314997Y-60584609D01*
X122760000Y-60584609D01*
X122760000Y-58947946D01*
X126408687Y-58947946D01*
X126461158Y-59414811D01*
X126603703Y-59862468D01*
X126794234Y-60218927D01*
X127135391Y-60405003D01*
X128625395Y-58915000D01*
X128984605Y-58915000D01*
X130474609Y-60405003D01*
X130815766Y-60218927D01*
X131031513Y-59801591D01*
X131161696Y-59350185D01*
X131195736Y-58947946D01*
X138448687Y-58947946D01*
X138501158Y-59414811D01*
X138643703Y-59862468D01*
X138834234Y-60218927D01*
X139175391Y-60405003D01*
X140665395Y-58915000D01*
X141024605Y-58915000D01*
X142514609Y-60405003D01*
X142855766Y-60218927D01*
X143071513Y-59801591D01*
X143201696Y-59350185D01*
X143241313Y-58882054D01*
X143188842Y-58415189D01*
X143046297Y-57967532D01*
X142855766Y-57611073D01*
X142514609Y-57424997D01*
X141024605Y-58915000D01*
X140665395Y-58915000D01*
X139175391Y-57424997D01*
X138834234Y-57611073D01*
X138618487Y-58028409D01*
X138488304Y-58479815D01*
X138448687Y-58947946D01*
X131195736Y-58947946D01*
X131201313Y-58882054D01*
X131148842Y-58415189D01*
X131006297Y-57967532D01*
X130815766Y-57611073D01*
X130474609Y-57424997D01*
X128984605Y-58915000D01*
X128625395Y-58915000D01*
X127135391Y-57424997D01*
X126794234Y-57611073D01*
X126578487Y-58028409D01*
X126448304Y-58479815D01*
X126408687Y-58947946D01*
X122760000Y-58947946D01*
X122760000Y-57245391D01*
X127314997Y-57245391D01*
X128805000Y-58735395D01*
X130295003Y-57245391D01*
X139354997Y-57245391D01*
X140845000Y-58735395D01*
X142335003Y-57245391D01*
X142148927Y-56904234D01*
X141731591Y-56688487D01*
X141280185Y-56558304D01*
X140812054Y-56518687D01*
X140345189Y-56571158D01*
X139897532Y-56713703D01*
X139541073Y-56904234D01*
X139354997Y-57245391D01*
X130295003Y-57245391D01*
X130108927Y-56904234D01*
X129691591Y-56688487D01*
X129240185Y-56558304D01*
X128772054Y-56518687D01*
X128305189Y-56571158D01*
X127857532Y-56713703D01*
X127501073Y-56904234D01*
X127314997Y-57245391D01*
X122760000Y-57245391D01*
X122760000Y-48610000D01*
X191290001Y-48610000D01*
X191290000Y-147140000D01*
G04 #@! TA.AperFunction,Conductor*
D25*
G36*
X191290000Y-147140000D02*
G01*
X122760000Y-147140000D01*
X122760000Y-142728740D01*
X135571250Y-142728740D01*
X135571250Y-143021260D01*
X135628318Y-143308158D01*
X135740260Y-143578411D01*
X135902775Y-143821632D01*
X136109618Y-144028475D01*
X136352839Y-144190990D01*
X136623092Y-144302932D01*
X136909990Y-144360000D01*
X137202510Y-144360000D01*
X137489408Y-144302932D01*
X137759661Y-144190990D01*
X138002882Y-144028475D01*
X138209725Y-143821632D01*
X138326250Y-143647240D01*
X138442775Y-143821632D01*
X138649618Y-144028475D01*
X138892839Y-144190990D01*
X139163092Y-144302932D01*
X139449990Y-144360000D01*
X139742510Y-144360000D01*
X140029408Y-144302932D01*
X140299661Y-144190990D01*
X140542882Y-144028475D01*
X140749725Y-143821632D01*
X140866250Y-143647240D01*
X140982775Y-143821632D01*
X141189618Y-144028475D01*
X141432839Y-144190990D01*
X141703092Y-144302932D01*
X141989990Y-144360000D01*
X142282510Y-144360000D01*
X142350492Y-144346477D01*
X142780757Y-144776742D01*
X142808592Y-144810660D01*
X142943960Y-144921754D01*
X143098400Y-145004304D01*
X143193009Y-145033003D01*
X143265976Y-145055137D01*
X143282576Y-145056772D01*
X143396584Y-145068001D01*
X143396591Y-145068001D01*
X143440251Y-145072301D01*
X143483911Y-145068001D01*
X152524839Y-145068001D01*
X152568499Y-145072301D01*
X152612159Y-145068001D01*
X152612166Y-145068001D01*
X152742773Y-145055137D01*
X152910350Y-145004304D01*
X153064790Y-144921754D01*
X153200158Y-144810660D01*
X153227998Y-144776737D01*
X153658258Y-144346477D01*
X153726240Y-144360000D01*
X154018760Y-144360000D01*
X154305658Y-144302932D01*
X154575911Y-144190990D01*
X154819132Y-144028475D01*
X155025975Y-143821632D01*
X155147695Y-143639466D01*
X155217322Y-143756355D01*
X155412231Y-143972588D01*
X155645580Y-144146641D01*
X155908401Y-144271825D01*
X156055610Y-144316476D01*
X156285500Y-144195155D01*
X156285500Y-143002000D01*
X156265500Y-143002000D01*
X156265500Y-142748000D01*
X156285500Y-142748000D01*
X156285500Y-141554845D01*
X156539500Y-141554845D01*
X156539500Y-142748000D01*
X156559500Y-142748000D01*
X156559500Y-143002000D01*
X156539500Y-143002000D01*
X156539500Y-144195155D01*
X156769390Y-144316476D01*
X156916599Y-144271825D01*
X157179420Y-144146641D01*
X157412769Y-143972588D01*
X157607678Y-143756355D01*
X157677305Y-143639466D01*
X157799025Y-143821632D01*
X158005868Y-144028475D01*
X158249089Y-144190990D01*
X158519342Y-144302932D01*
X158806240Y-144360000D01*
X159098760Y-144360000D01*
X159385658Y-144302932D01*
X159655911Y-144190990D01*
X159899132Y-144028475D01*
X160105975Y-143821632D01*
X160222500Y-143647240D01*
X160339025Y-143821632D01*
X160545868Y-144028475D01*
X160789089Y-144190990D01*
X161059342Y-144302932D01*
X161346240Y-144360000D01*
X161638760Y-144360000D01*
X161925658Y-144302932D01*
X162195911Y-144190990D01*
X162439132Y-144028475D01*
X162645975Y-143821632D01*
X162762500Y-143647240D01*
X162879025Y-143821632D01*
X163085868Y-144028475D01*
X163329089Y-144190990D01*
X163599342Y-144302932D01*
X163886240Y-144360000D01*
X164178760Y-144360000D01*
X164465658Y-144302932D01*
X164735911Y-144190990D01*
X164979132Y-144028475D01*
X165185975Y-143821632D01*
X165348490Y-143578411D01*
X165460432Y-143308158D01*
X165517500Y-143021260D01*
X165517500Y-142728740D01*
X165460432Y-142441842D01*
X165348490Y-142171589D01*
X165185975Y-141928368D01*
X164979132Y-141721525D01*
X164735911Y-141559010D01*
X164465658Y-141447068D01*
X164178760Y-141390000D01*
X163886240Y-141390000D01*
X163599342Y-141447068D01*
X163329089Y-141559010D01*
X163085868Y-141721525D01*
X162879025Y-141928368D01*
X162762500Y-142102760D01*
X162645975Y-141928368D01*
X162439132Y-141721525D01*
X162195911Y-141559010D01*
X161925658Y-141447068D01*
X161638760Y-141390000D01*
X161346240Y-141390000D01*
X161059342Y-141447068D01*
X160789089Y-141559010D01*
X160545868Y-141721525D01*
X160339025Y-141928368D01*
X160222500Y-142102760D01*
X160105975Y-141928368D01*
X159899132Y-141721525D01*
X159655911Y-141559010D01*
X159385658Y-141447068D01*
X159098760Y-141390000D01*
X158806240Y-141390000D01*
X158519342Y-141447068D01*
X158249089Y-141559010D01*
X158005868Y-141721525D01*
X157799025Y-141928368D01*
X157677305Y-142110534D01*
X157607678Y-141993645D01*
X157412769Y-141777412D01*
X157179420Y-141603359D01*
X156916599Y-141478175D01*
X156769390Y-141433524D01*
X156539500Y-141554845D01*
X156285500Y-141554845D01*
X156055610Y-141433524D01*
X155908401Y-141478175D01*
X155645580Y-141603359D01*
X155412231Y-141777412D01*
X155217322Y-141993645D01*
X155147695Y-142110534D01*
X155025975Y-141928368D01*
X154819132Y-141721525D01*
X154575911Y-141559010D01*
X154305658Y-141447068D01*
X154018760Y-141390000D01*
X153726240Y-141390000D01*
X153439342Y-141447068D01*
X153169089Y-141559010D01*
X152925868Y-141721525D01*
X152719025Y-141928368D01*
X152602500Y-142102760D01*
X152485975Y-141928368D01*
X152279132Y-141721525D01*
X152035911Y-141559010D01*
X151765658Y-141447068D01*
X151478760Y-141390000D01*
X151186240Y-141390000D01*
X150899342Y-141447068D01*
X150629089Y-141559010D01*
X150385868Y-141721525D01*
X150179025Y-141928368D01*
X150016510Y-142171589D01*
X149904568Y-142441842D01*
X149847500Y-142728740D01*
X149847500Y-143021260D01*
X149900956Y-143290001D01*
X143808487Y-143290001D01*
X143607727Y-143089242D01*
X143621250Y-143021260D01*
X143621250Y-142728740D01*
X143564182Y-142441842D01*
X143452240Y-142171589D01*
X143289725Y-141928368D01*
X143082882Y-141721525D01*
X142839661Y-141559010D01*
X142569408Y-141447068D01*
X142329198Y-141399287D01*
X142414485Y-141314000D01*
X169740090Y-141314000D01*
X169783750Y-141318300D01*
X169827410Y-141314000D01*
X169827417Y-141314000D01*
X169958024Y-141301136D01*
X170125601Y-141250303D01*
X170280041Y-141167753D01*
X170415409Y-141056659D01*
X170443249Y-141022736D01*
X173044508Y-138421477D01*
X173112490Y-138435000D01*
X173405010Y-138435000D01*
X173691908Y-138377932D01*
X173962161Y-138265990D01*
X174205382Y-138103475D01*
X174412225Y-137896632D01*
X174450733Y-137839000D01*
X174606767Y-137839000D01*
X174645275Y-137896632D01*
X174852118Y-138103475D01*
X175095339Y-138265990D01*
X175365592Y-138377932D01*
X175652490Y-138435000D01*
X175945010Y-138435000D01*
X176231908Y-138377932D01*
X176502161Y-138265990D01*
X176745382Y-138103475D01*
X176952225Y-137896632D01*
X176990733Y-137839000D01*
X177146767Y-137839000D01*
X177185275Y-137896632D01*
X177392118Y-138103475D01*
X177635339Y-138265990D01*
X177905592Y-138377932D01*
X178192490Y-138435000D01*
X178485010Y-138435000D01*
X178771908Y-138377932D01*
X179042161Y-138265990D01*
X179285382Y-138103475D01*
X179492225Y-137896632D01*
X179654740Y-137653411D01*
X179766682Y-137383158D01*
X179823750Y-137096260D01*
X179823750Y-136803740D01*
X179766682Y-136516842D01*
X179654740Y-136246589D01*
X179492225Y-136003368D01*
X179285382Y-135796525D01*
X179042161Y-135634010D01*
X178771908Y-135522068D01*
X178485010Y-135465000D01*
X178192490Y-135465000D01*
X177905592Y-135522068D01*
X177635339Y-135634010D01*
X177392118Y-135796525D01*
X177185275Y-136003368D01*
X177146767Y-136061000D01*
X176990733Y-136061000D01*
X176952225Y-136003368D01*
X176745382Y-135796525D01*
X176502161Y-135634010D01*
X176231908Y-135522068D01*
X175945010Y-135465000D01*
X175652490Y-135465000D01*
X175365592Y-135522068D01*
X175095339Y-135634010D01*
X174852118Y-135796525D01*
X174645275Y-136003368D01*
X174606767Y-136061000D01*
X174450733Y-136061000D01*
X174412225Y-136003368D01*
X174205382Y-135796525D01*
X173962161Y-135634010D01*
X173691908Y-135522068D01*
X173405010Y-135465000D01*
X173112490Y-135465000D01*
X172825592Y-135522068D01*
X172555339Y-135634010D01*
X172312118Y-135796525D01*
X172105275Y-136003368D01*
X171942760Y-136246589D01*
X171830818Y-136516842D01*
X171773750Y-136803740D01*
X171773750Y-137096260D01*
X171787273Y-137164242D01*
X169415515Y-139536000D01*
X142089909Y-139536000D01*
X142046249Y-139531700D01*
X142002589Y-139536000D01*
X142002583Y-139536000D01*
X141905174Y-139545594D01*
X141871974Y-139548864D01*
X141770308Y-139579704D01*
X141704399Y-139599697D01*
X141549959Y-139682247D01*
X141414591Y-139793341D01*
X141386751Y-139827264D01*
X139810492Y-141403523D01*
X139742510Y-141390000D01*
X139449990Y-141390000D01*
X139163092Y-141447068D01*
X138892839Y-141559010D01*
X138649618Y-141721525D01*
X138442775Y-141928368D01*
X138326250Y-142102760D01*
X138209725Y-141928368D01*
X138002882Y-141721525D01*
X137759661Y-141559010D01*
X137489408Y-141447068D01*
X137202510Y-141390000D01*
X136909990Y-141390000D01*
X136623092Y-141447068D01*
X136352839Y-141559010D01*
X136109618Y-141721525D01*
X135902775Y-141928368D01*
X135740260Y-142171589D01*
X135628318Y-142441842D01*
X135571250Y-142728740D01*
X122760000Y-142728740D01*
X122760000Y-137978397D01*
X136207458Y-137978397D01*
X136285093Y-138227472D01*
X136549133Y-138353371D01*
X136832661Y-138425339D01*
X137124781Y-138440611D01*
X137414269Y-138398599D01*
X137689997Y-138300919D01*
X137827407Y-138227472D01*
X137905042Y-137978397D01*
X137056250Y-137129605D01*
X136207458Y-137978397D01*
X122760000Y-137978397D01*
X122760000Y-137018531D01*
X135565639Y-137018531D01*
X135607651Y-137308019D01*
X135705331Y-137583747D01*
X135778778Y-137721157D01*
X136027853Y-137798792D01*
X136876645Y-136950000D01*
X137235855Y-136950000D01*
X138084647Y-137798792D01*
X138333722Y-137721157D01*
X138334481Y-137719564D01*
X138401072Y-137831355D01*
X138595981Y-138047588D01*
X138829330Y-138221641D01*
X139092151Y-138346825D01*
X139239360Y-138391476D01*
X139469250Y-138270155D01*
X139469250Y-137077000D01*
X139723250Y-137077000D01*
X139723250Y-138270155D01*
X139953140Y-138391476D01*
X140100349Y-138346825D01*
X140363170Y-138221641D01*
X140596519Y-138047588D01*
X140791428Y-137831355D01*
X140866250Y-137705745D01*
X140941072Y-137831355D01*
X141135981Y-138047588D01*
X141369330Y-138221641D01*
X141632151Y-138346825D01*
X141779360Y-138391476D01*
X142009250Y-138270155D01*
X142009250Y-137077000D01*
X142263250Y-137077000D01*
X142263250Y-138270155D01*
X142493140Y-138391476D01*
X142640349Y-138346825D01*
X142903170Y-138221641D01*
X143136519Y-138047588D01*
X143208526Y-137967702D01*
X146261903Y-137967702D01*
X146333486Y-138211671D01*
X146588996Y-138332571D01*
X146863184Y-138401300D01*
X147145512Y-138415217D01*
X147425130Y-138373787D01*
X147691292Y-138278603D01*
X147816514Y-138211671D01*
X147888097Y-137967702D01*
X147075000Y-137154605D01*
X146261903Y-137967702D01*
X143208526Y-137967702D01*
X143331428Y-137831355D01*
X143480407Y-137581252D01*
X143577731Y-137306891D01*
X143457064Y-137077000D01*
X142263250Y-137077000D01*
X142009250Y-137077000D01*
X139723250Y-137077000D01*
X139469250Y-137077000D01*
X139449250Y-137077000D01*
X139449250Y-137045512D01*
X145634783Y-137045512D01*
X145676213Y-137325130D01*
X145771397Y-137591292D01*
X145838329Y-137716514D01*
X146082298Y-137788097D01*
X146895395Y-136975000D01*
X147254605Y-136975000D01*
X148067702Y-137788097D01*
X148311671Y-137716514D01*
X148325324Y-137687659D01*
X148460363Y-137889759D01*
X148660241Y-138089637D01*
X148895273Y-138246680D01*
X149156426Y-138354853D01*
X149433665Y-138410000D01*
X149716335Y-138410000D01*
X149993574Y-138354853D01*
X150254727Y-138246680D01*
X150489759Y-138089637D01*
X150689637Y-137889759D01*
X150791707Y-137737000D01*
X153616060Y-137737000D01*
X153650653Y-137820515D01*
X153846000Y-138112871D01*
X154094629Y-138361500D01*
X154386985Y-138556847D01*
X154711835Y-138691404D01*
X155056693Y-138760000D01*
X155408307Y-138760000D01*
X155753165Y-138691404D01*
X156078015Y-138556847D01*
X156370371Y-138361500D01*
X156619000Y-138112871D01*
X156814347Y-137820515D01*
X156948904Y-137495665D01*
X157017500Y-137150807D01*
X157017500Y-136799193D01*
X158347500Y-136799193D01*
X158347500Y-137150807D01*
X158416096Y-137495665D01*
X158550653Y-137820515D01*
X158746000Y-138112871D01*
X158994629Y-138361500D01*
X159286985Y-138556847D01*
X159611835Y-138691404D01*
X159956693Y-138760000D01*
X160308307Y-138760000D01*
X160653165Y-138691404D01*
X160978015Y-138556847D01*
X161270371Y-138361500D01*
X161519000Y-138112871D01*
X161714347Y-137820515D01*
X161748940Y-137737000D01*
X164608293Y-137737000D01*
X164710363Y-137889759D01*
X164910241Y-138089637D01*
X165145273Y-138246680D01*
X165406426Y-138354853D01*
X165683665Y-138410000D01*
X165966335Y-138410000D01*
X166243574Y-138354853D01*
X166504727Y-138246680D01*
X166739759Y-138089637D01*
X166861694Y-137967702D01*
X167511903Y-137967702D01*
X167583486Y-138211671D01*
X167838996Y-138332571D01*
X168113184Y-138401300D01*
X168395512Y-138415217D01*
X168675130Y-138373787D01*
X168941292Y-138278603D01*
X169066514Y-138211671D01*
X169138097Y-137967702D01*
X168325000Y-137154605D01*
X167511903Y-137967702D01*
X166861694Y-137967702D01*
X166939637Y-137889759D01*
X167073692Y-137689131D01*
X167088329Y-137716514D01*
X167332298Y-137788097D01*
X168145395Y-136975000D01*
X168504605Y-136975000D01*
X169317702Y-137788097D01*
X169561671Y-137716514D01*
X169682571Y-137461004D01*
X169751300Y-137186816D01*
X169765217Y-136904488D01*
X169723787Y-136624870D01*
X169628603Y-136358708D01*
X169561671Y-136233486D01*
X169317702Y-136161903D01*
X168504605Y-136975000D01*
X168145395Y-136975000D01*
X167332298Y-136161903D01*
X167088329Y-136233486D01*
X167074676Y-136262341D01*
X166939637Y-136060241D01*
X166861694Y-135982298D01*
X167511903Y-135982298D01*
X168325000Y-136795395D01*
X169138097Y-135982298D01*
X169066514Y-135738329D01*
X168811004Y-135617429D01*
X168536816Y-135548700D01*
X168254488Y-135534783D01*
X167974870Y-135576213D01*
X167708708Y-135671397D01*
X167583486Y-135738329D01*
X167511903Y-135982298D01*
X166861694Y-135982298D01*
X166739759Y-135860363D01*
X166504727Y-135703320D01*
X166243574Y-135595147D01*
X165966335Y-135540000D01*
X165683665Y-135540000D01*
X165406426Y-135595147D01*
X165145273Y-135703320D01*
X164910241Y-135860363D01*
X164710363Y-136060241D01*
X164608293Y-136213000D01*
X161748940Y-136213000D01*
X161714347Y-136129485D01*
X161519000Y-135837129D01*
X161270371Y-135588500D01*
X160978015Y-135393153D01*
X160653165Y-135258596D01*
X160308307Y-135190000D01*
X159956693Y-135190000D01*
X159611835Y-135258596D01*
X159286985Y-135393153D01*
X158994629Y-135588500D01*
X158746000Y-135837129D01*
X158550653Y-136129485D01*
X158416096Y-136454335D01*
X158347500Y-136799193D01*
X157017500Y-136799193D01*
X156948904Y-136454335D01*
X156814347Y-136129485D01*
X156619000Y-135837129D01*
X156370371Y-135588500D01*
X156078015Y-135393153D01*
X155753165Y-135258596D01*
X155408307Y-135190000D01*
X155056693Y-135190000D01*
X154711835Y-135258596D01*
X154386985Y-135393153D01*
X154094629Y-135588500D01*
X153846000Y-135837129D01*
X153650653Y-136129485D01*
X153616060Y-136213000D01*
X150791707Y-136213000D01*
X150689637Y-136060241D01*
X150489759Y-135860363D01*
X150254727Y-135703320D01*
X149993574Y-135595147D01*
X149716335Y-135540000D01*
X149433665Y-135540000D01*
X149156426Y-135595147D01*
X148895273Y-135703320D01*
X148660241Y-135860363D01*
X148460363Y-136060241D01*
X148326308Y-136260869D01*
X148311671Y-136233486D01*
X148067702Y-136161903D01*
X147254605Y-136975000D01*
X146895395Y-136975000D01*
X146082298Y-136161903D01*
X145838329Y-136233486D01*
X145717429Y-136488996D01*
X145648700Y-136763184D01*
X145634783Y-137045512D01*
X139449250Y-137045512D01*
X139449250Y-136823000D01*
X139469250Y-136823000D01*
X139469250Y-135629845D01*
X139723250Y-135629845D01*
X139723250Y-136823000D01*
X142009250Y-136823000D01*
X142009250Y-135629845D01*
X142263250Y-135629845D01*
X142263250Y-136823000D01*
X143457064Y-136823000D01*
X143577731Y-136593109D01*
X143480407Y-136318748D01*
X143331428Y-136068645D01*
X143253597Y-135982298D01*
X146261903Y-135982298D01*
X147075000Y-136795395D01*
X147888097Y-135982298D01*
X147816514Y-135738329D01*
X147561004Y-135617429D01*
X147286816Y-135548700D01*
X147004488Y-135534783D01*
X146724870Y-135576213D01*
X146458708Y-135671397D01*
X146333486Y-135738329D01*
X146261903Y-135982298D01*
X143253597Y-135982298D01*
X143136519Y-135852412D01*
X142903170Y-135678359D01*
X142640349Y-135553175D01*
X142493140Y-135508524D01*
X142263250Y-135629845D01*
X142009250Y-135629845D01*
X141779360Y-135508524D01*
X141632151Y-135553175D01*
X141369330Y-135678359D01*
X141135981Y-135852412D01*
X140941072Y-136068645D01*
X140866250Y-136194255D01*
X140791428Y-136068645D01*
X140596519Y-135852412D01*
X140363170Y-135678359D01*
X140100349Y-135553175D01*
X139953140Y-135508524D01*
X139723250Y-135629845D01*
X139469250Y-135629845D01*
X139239360Y-135508524D01*
X139092151Y-135553175D01*
X138829330Y-135678359D01*
X138595981Y-135852412D01*
X138401072Y-136068645D01*
X138334530Y-136180355D01*
X138333722Y-136178843D01*
X138084647Y-136101208D01*
X137235855Y-136950000D01*
X136876645Y-136950000D01*
X136027853Y-136101208D01*
X135778778Y-136178843D01*
X135652879Y-136442883D01*
X135580911Y-136726411D01*
X135565639Y-137018531D01*
X122760000Y-137018531D01*
X122760000Y-135921603D01*
X136207458Y-135921603D01*
X137056250Y-136770395D01*
X137905042Y-135921603D01*
X137827407Y-135672528D01*
X137563367Y-135546629D01*
X137279839Y-135474661D01*
X136987719Y-135459389D01*
X136698231Y-135501401D01*
X136422503Y-135599081D01*
X136285093Y-135672528D01*
X136207458Y-135921603D01*
X122760000Y-135921603D01*
X122760000Y-117078740D01*
X126870000Y-117078740D01*
X126870000Y-117371260D01*
X126927068Y-117658158D01*
X127039010Y-117928411D01*
X127201525Y-118171632D01*
X127408368Y-118378475D01*
X127582760Y-118495000D01*
X127408368Y-118611525D01*
X127201525Y-118818368D01*
X127039010Y-119061589D01*
X126927068Y-119331842D01*
X126870000Y-119618740D01*
X126870000Y-119911260D01*
X126927068Y-120198158D01*
X127039010Y-120468411D01*
X127201525Y-120711632D01*
X127408368Y-120918475D01*
X127582760Y-121035000D01*
X127408368Y-121151525D01*
X127201525Y-121358368D01*
X127039010Y-121601589D01*
X126927068Y-121871842D01*
X126870000Y-122158740D01*
X126870000Y-122451260D01*
X126927068Y-122738158D01*
X127039010Y-123008411D01*
X127201525Y-123251632D01*
X127408368Y-123458475D01*
X127582760Y-123575000D01*
X127408368Y-123691525D01*
X127201525Y-123898368D01*
X127039010Y-124141589D01*
X126927068Y-124411842D01*
X126870000Y-124698740D01*
X126870000Y-124991260D01*
X126927068Y-125278158D01*
X127039010Y-125548411D01*
X127201525Y-125791632D01*
X127408368Y-125998475D01*
X127582760Y-126115000D01*
X127408368Y-126231525D01*
X127201525Y-126438368D01*
X127039010Y-126681589D01*
X126927068Y-126951842D01*
X126870000Y-127238740D01*
X126870000Y-127531260D01*
X126927068Y-127818158D01*
X127039010Y-128088411D01*
X127201525Y-128331632D01*
X127408368Y-128538475D01*
X127582760Y-128655000D01*
X127408368Y-128771525D01*
X127201525Y-128978368D01*
X127039010Y-129221589D01*
X126927068Y-129491842D01*
X126870000Y-129778740D01*
X126870000Y-130071260D01*
X126927068Y-130358158D01*
X127039010Y-130628411D01*
X127201525Y-130871632D01*
X127408368Y-131078475D01*
X127582760Y-131195000D01*
X127408368Y-131311525D01*
X127201525Y-131518368D01*
X127039010Y-131761589D01*
X126927068Y-132031842D01*
X126870000Y-132318740D01*
X126870000Y-132611260D01*
X126927068Y-132898158D01*
X127039010Y-133168411D01*
X127201525Y-133411632D01*
X127408368Y-133618475D01*
X127651589Y-133780990D01*
X127921842Y-133892932D01*
X128208740Y-133950000D01*
X128501260Y-133950000D01*
X128788158Y-133892932D01*
X129058411Y-133780990D01*
X129301632Y-133618475D01*
X129508475Y-133411632D01*
X129631842Y-133227000D01*
X134222577Y-133227000D01*
X134260000Y-133230686D01*
X134297423Y-133227000D01*
X134297426Y-133227000D01*
X134409378Y-133215974D01*
X134553015Y-133172402D01*
X134685392Y-133101645D01*
X134801422Y-133006422D01*
X134825284Y-132977346D01*
X136134928Y-131667702D01*
X140561903Y-131667702D01*
X140633486Y-131911671D01*
X140888996Y-132032571D01*
X141163184Y-132101300D01*
X141445512Y-132115217D01*
X141725130Y-132073787D01*
X141991292Y-131978603D01*
X142116514Y-131911671D01*
X142188097Y-131667702D01*
X141375000Y-130854605D01*
X140561903Y-131667702D01*
X136134928Y-131667702D01*
X137057118Y-130745512D01*
X139934783Y-130745512D01*
X139976213Y-131025130D01*
X140071397Y-131291292D01*
X140138329Y-131416514D01*
X140382298Y-131488097D01*
X141195395Y-130675000D01*
X141554605Y-130675000D01*
X142367702Y-131488097D01*
X142611671Y-131416514D01*
X142625324Y-131387659D01*
X142760363Y-131589759D01*
X142960241Y-131789637D01*
X143195273Y-131946680D01*
X143456426Y-132054853D01*
X143733665Y-132110000D01*
X144016335Y-132110000D01*
X144293574Y-132054853D01*
X144554727Y-131946680D01*
X144789759Y-131789637D01*
X144989637Y-131589759D01*
X145146680Y-131354727D01*
X145254853Y-131093574D01*
X145310000Y-130816335D01*
X145310000Y-130533665D01*
X145254853Y-130256426D01*
X145146680Y-129995273D01*
X144989637Y-129760241D01*
X144789759Y-129560363D01*
X144554727Y-129403320D01*
X144293574Y-129295147D01*
X144016335Y-129240000D01*
X143733665Y-129240000D01*
X143456426Y-129295147D01*
X143195273Y-129403320D01*
X142960241Y-129560363D01*
X142760363Y-129760241D01*
X142626308Y-129960869D01*
X142611671Y-129933486D01*
X142367702Y-129861903D01*
X141554605Y-130675000D01*
X141195395Y-130675000D01*
X140382298Y-129861903D01*
X140138329Y-129933486D01*
X140017429Y-130188996D01*
X139948700Y-130463184D01*
X139934783Y-130745512D01*
X137057118Y-130745512D01*
X138120332Y-129682298D01*
X140561903Y-129682298D01*
X141375000Y-130495395D01*
X142188097Y-129682298D01*
X142116514Y-129438329D01*
X141861004Y-129317429D01*
X141586816Y-129248700D01*
X141304488Y-129234783D01*
X141024870Y-129276213D01*
X140758708Y-129371397D01*
X140633486Y-129438329D01*
X140561903Y-129682298D01*
X138120332Y-129682298D01*
X138642631Y-129160000D01*
X138701939Y-129160000D01*
X138901898Y-129120226D01*
X139090256Y-129042205D01*
X139259774Y-128928937D01*
X139403937Y-128784774D01*
X139517205Y-128615256D01*
X139595226Y-128426898D01*
X139635000Y-128226939D01*
X139635000Y-128023061D01*
X139595226Y-127823102D01*
X139517205Y-127634744D01*
X139403937Y-127465226D01*
X139259774Y-127321063D01*
X139090256Y-127207795D01*
X138901898Y-127129774D01*
X138701939Y-127090000D01*
X138498061Y-127090000D01*
X138298102Y-127129774D01*
X138109744Y-127207795D01*
X137940226Y-127321063D01*
X137796063Y-127465226D01*
X137682795Y-127634744D01*
X137604774Y-127823102D01*
X137565000Y-128023061D01*
X137565000Y-128082369D01*
X137099341Y-128548028D01*
X137170226Y-128376898D01*
X137210000Y-128176939D01*
X137210000Y-127973061D01*
X137170226Y-127773102D01*
X137092205Y-127584744D01*
X136978937Y-127415226D01*
X136834774Y-127271063D01*
X136665256Y-127157795D01*
X136476898Y-127079774D01*
X136276939Y-127040000D01*
X136073061Y-127040000D01*
X135873102Y-127079774D01*
X135684744Y-127157795D01*
X135515226Y-127271063D01*
X135371063Y-127415226D01*
X135257795Y-127584744D01*
X135179774Y-127773102D01*
X135140000Y-127973061D01*
X135140000Y-128032369D01*
X134009370Y-129163000D01*
X129631842Y-129163000D01*
X129508475Y-128978368D01*
X129301632Y-128771525D01*
X129127240Y-128655000D01*
X129301632Y-128538475D01*
X129508475Y-128331632D01*
X129670990Y-128088411D01*
X129782932Y-127818158D01*
X129840000Y-127531260D01*
X129840000Y-127238740D01*
X129798479Y-127029999D01*
X148666991Y-127029999D01*
X148622500Y-127253665D01*
X148622500Y-127536335D01*
X148658343Y-127716527D01*
X147312649Y-129062221D01*
X147283579Y-129086078D01*
X147259722Y-129115148D01*
X147259721Y-129115149D01*
X147188355Y-129202108D01*
X147117599Y-129334485D01*
X147074027Y-129478122D01*
X147059314Y-129627500D01*
X147063001Y-129664933D01*
X147063000Y-131787576D01*
X147059314Y-131825000D01*
X147063000Y-131862423D01*
X147063000Y-131862425D01*
X147074026Y-131974377D01*
X147117598Y-132118014D01*
X147117599Y-132118015D01*
X147188355Y-132250392D01*
X147227983Y-132298678D01*
X147283578Y-132366422D01*
X147312654Y-132390284D01*
X149434721Y-134512352D01*
X149458578Y-134541422D01*
X149574608Y-134636645D01*
X149706985Y-134707402D01*
X149850622Y-134750974D01*
X149962574Y-134762000D01*
X149962583Y-134762000D01*
X149999999Y-134765685D01*
X150037415Y-134762000D01*
X184247577Y-134762000D01*
X184285000Y-134765686D01*
X184322423Y-134762000D01*
X184322426Y-134762000D01*
X184434378Y-134750974D01*
X184578015Y-134707402D01*
X184710392Y-134636645D01*
X184826422Y-134541422D01*
X184850284Y-134512346D01*
X187438474Y-131924157D01*
X187618665Y-131960000D01*
X187901335Y-131960000D01*
X188178574Y-131904853D01*
X188439727Y-131796680D01*
X188674759Y-131639637D01*
X188874637Y-131439759D01*
X189031680Y-131204727D01*
X189139853Y-130943574D01*
X189195000Y-130666335D01*
X189195000Y-130383665D01*
X189139853Y-130106426D01*
X189031680Y-129845273D01*
X188874637Y-129610241D01*
X188674759Y-129410363D01*
X188439727Y-129253320D01*
X188178574Y-129145147D01*
X187901335Y-129090000D01*
X187772000Y-129090000D01*
X187772000Y-126051842D01*
X187956632Y-125928475D01*
X188163475Y-125721632D01*
X188325990Y-125478411D01*
X188437932Y-125208158D01*
X188495000Y-124921260D01*
X188495000Y-124628740D01*
X188437932Y-124341842D01*
X188325990Y-124071589D01*
X188163475Y-123828368D01*
X187956632Y-123621525D01*
X187782240Y-123505000D01*
X187956632Y-123388475D01*
X188163475Y-123181632D01*
X188325990Y-122938411D01*
X188437932Y-122668158D01*
X188495000Y-122381260D01*
X188495000Y-122088740D01*
X188437932Y-121801842D01*
X188325990Y-121531589D01*
X188163475Y-121288368D01*
X187956632Y-121081525D01*
X187782240Y-120965000D01*
X187956632Y-120848475D01*
X188163475Y-120641632D01*
X188325990Y-120398411D01*
X188437932Y-120128158D01*
X188495000Y-119841260D01*
X188495000Y-119548740D01*
X188437932Y-119261842D01*
X188325990Y-118991589D01*
X188163475Y-118748368D01*
X187956632Y-118541525D01*
X187782240Y-118425000D01*
X187956632Y-118308475D01*
X188163475Y-118101632D01*
X188325990Y-117858411D01*
X188437932Y-117588158D01*
X188495000Y-117301260D01*
X188495000Y-117008740D01*
X188437932Y-116721842D01*
X188325990Y-116451589D01*
X188163475Y-116208368D01*
X187956632Y-116001525D01*
X187782240Y-115885000D01*
X187956632Y-115768475D01*
X188163475Y-115561632D01*
X188325990Y-115318411D01*
X188437932Y-115048158D01*
X188495000Y-114761260D01*
X188495000Y-114468740D01*
X188437932Y-114181842D01*
X188325990Y-113911589D01*
X188163475Y-113668368D01*
X187956632Y-113461525D01*
X187782240Y-113345000D01*
X187956632Y-113228475D01*
X188163475Y-113021632D01*
X188325990Y-112778411D01*
X188437932Y-112508158D01*
X188495000Y-112221260D01*
X188495000Y-111928740D01*
X188437932Y-111641842D01*
X188325990Y-111371589D01*
X188163475Y-111128368D01*
X187956632Y-110921525D01*
X187782240Y-110805000D01*
X187956632Y-110688475D01*
X188163475Y-110481632D01*
X188325990Y-110238411D01*
X188437932Y-109968158D01*
X188495000Y-109681260D01*
X188495000Y-109388740D01*
X188437932Y-109101842D01*
X188325990Y-108831589D01*
X188163475Y-108588368D01*
X187956632Y-108381525D01*
X187782240Y-108265000D01*
X187956632Y-108148475D01*
X188163475Y-107941632D01*
X188325990Y-107698411D01*
X188437932Y-107428158D01*
X188495000Y-107141260D01*
X188495000Y-106848740D01*
X188437932Y-106561842D01*
X188325990Y-106291589D01*
X188163475Y-106048368D01*
X187956632Y-105841525D01*
X187713411Y-105679010D01*
X187443158Y-105567068D01*
X187156260Y-105510000D01*
X186863740Y-105510000D01*
X186576842Y-105567068D01*
X186306589Y-105679010D01*
X186063368Y-105841525D01*
X185856525Y-106048368D01*
X185733158Y-106233000D01*
X166460753Y-106233000D01*
X166412137Y-106160241D01*
X166212259Y-105960363D01*
X165977227Y-105803320D01*
X165966635Y-105798933D01*
X166152631Y-105687385D01*
X166361019Y-105498414D01*
X166528537Y-105272420D01*
X166648746Y-105018087D01*
X166689404Y-104884039D01*
X166567415Y-104662000D01*
X165424500Y-104662000D01*
X165424500Y-104682000D01*
X165170500Y-104682000D01*
X165170500Y-104662000D01*
X164027585Y-104662000D01*
X163905596Y-104884039D01*
X163946254Y-105018087D01*
X164066463Y-105272420D01*
X164233981Y-105498414D01*
X164442369Y-105687385D01*
X164628365Y-105798933D01*
X164617773Y-105803320D01*
X164382741Y-105960363D01*
X164182863Y-106160241D01*
X164025820Y-106395273D01*
X163917647Y-106656426D01*
X163862500Y-106933665D01*
X163862500Y-107216335D01*
X163917647Y-107493574D01*
X164025820Y-107754727D01*
X164182863Y-107989759D01*
X164382741Y-108189637D01*
X164615259Y-108345000D01*
X164382741Y-108500363D01*
X164182863Y-108700241D01*
X164025820Y-108935273D01*
X163917647Y-109196426D01*
X163862500Y-109473665D01*
X163862500Y-109756335D01*
X163917647Y-110033574D01*
X164025820Y-110294727D01*
X164182863Y-110529759D01*
X164382741Y-110729637D01*
X164615259Y-110885000D01*
X164382741Y-111040363D01*
X164182863Y-111240241D01*
X164025820Y-111475273D01*
X163917647Y-111736426D01*
X163862500Y-112013665D01*
X163862500Y-112296335D01*
X163917647Y-112573574D01*
X164025820Y-112834727D01*
X164182863Y-113069759D01*
X164382741Y-113269637D01*
X164615259Y-113425000D01*
X164382741Y-113580363D01*
X164182863Y-113780241D01*
X164025820Y-114015273D01*
X163917647Y-114276426D01*
X163862500Y-114553665D01*
X163862500Y-114836335D01*
X163917647Y-115113574D01*
X164025820Y-115374727D01*
X164182863Y-115609759D01*
X164382741Y-115809637D01*
X164615259Y-115965000D01*
X164382741Y-116120363D01*
X164182863Y-116320241D01*
X164025820Y-116555273D01*
X163917647Y-116816426D01*
X163862500Y-117093665D01*
X163862500Y-117376335D01*
X163917647Y-117653574D01*
X163931907Y-117688000D01*
X154577963Y-117688000D01*
X154610000Y-117526939D01*
X154610000Y-117323061D01*
X154570226Y-117123102D01*
X154492205Y-116934744D01*
X154378937Y-116765226D01*
X154337000Y-116723289D01*
X154337000Y-116437422D01*
X154340686Y-116399999D01*
X154337000Y-116362574D01*
X154325974Y-116250622D01*
X154282402Y-116106985D01*
X154211645Y-115974608D01*
X154116422Y-115858578D01*
X154087353Y-115834722D01*
X152435284Y-114182654D01*
X152411422Y-114153578D01*
X152295392Y-114058355D01*
X152163015Y-113987598D01*
X152019378Y-113944026D01*
X151907426Y-113933000D01*
X151907423Y-113933000D01*
X151870000Y-113929314D01*
X151832577Y-113933000D01*
X151274207Y-113933000D01*
X151172137Y-113780241D01*
X150972259Y-113580363D01*
X150739741Y-113425000D01*
X150972259Y-113269637D01*
X151172137Y-113069759D01*
X151329180Y-112834727D01*
X151437353Y-112573574D01*
X151492500Y-112296335D01*
X151492500Y-112013665D01*
X151437353Y-111736426D01*
X151329180Y-111475273D01*
X151172137Y-111240241D01*
X150972259Y-111040363D01*
X150737227Y-110883320D01*
X150726635Y-110878933D01*
X150912631Y-110767385D01*
X151121019Y-110578414D01*
X151288537Y-110352420D01*
X151408746Y-110098087D01*
X151449404Y-109964039D01*
X151327415Y-109742000D01*
X150184500Y-109742000D01*
X150184500Y-109762000D01*
X149930500Y-109762000D01*
X149930500Y-109742000D01*
X148787585Y-109742000D01*
X148665596Y-109964039D01*
X148706254Y-110098087D01*
X148826463Y-110352420D01*
X148993981Y-110578414D01*
X149202369Y-110767385D01*
X149388365Y-110878933D01*
X149377773Y-110883320D01*
X149142741Y-111040363D01*
X148942863Y-111240241D01*
X148785820Y-111475273D01*
X148677647Y-111736426D01*
X148622500Y-112013665D01*
X148622500Y-112296335D01*
X148677647Y-112573574D01*
X148785820Y-112834727D01*
X148942863Y-113069759D01*
X149142741Y-113269637D01*
X149170223Y-113288000D01*
X131451711Y-113288000D01*
X131409774Y-113246063D01*
X131240256Y-113132795D01*
X131051898Y-113054774D01*
X130851939Y-113015000D01*
X130648061Y-113015000D01*
X130448102Y-113054774D01*
X130259744Y-113132795D01*
X130090226Y-113246063D01*
X129946063Y-113390226D01*
X129832795Y-113559744D01*
X129754774Y-113748102D01*
X129715000Y-113948061D01*
X129715000Y-114151939D01*
X129754774Y-114351898D01*
X129832795Y-114540256D01*
X129946063Y-114709774D01*
X130090226Y-114853937D01*
X130259744Y-114967205D01*
X130448102Y-115045226D01*
X130648061Y-115085000D01*
X130851939Y-115085000D01*
X131051898Y-115045226D01*
X131240256Y-114967205D01*
X131409774Y-114853937D01*
X131451711Y-114812000D01*
X148622500Y-114812000D01*
X148622500Y-114836335D01*
X148677647Y-115113574D01*
X148785820Y-115374727D01*
X148942863Y-115609759D01*
X149142741Y-115809637D01*
X149375259Y-115965000D01*
X149142741Y-116120363D01*
X148942863Y-116320241D01*
X148847475Y-116463000D01*
X129631842Y-116463000D01*
X129508475Y-116278368D01*
X129301632Y-116071525D01*
X129058411Y-115909010D01*
X128788158Y-115797068D01*
X128501260Y-115740000D01*
X128208740Y-115740000D01*
X127921842Y-115797068D01*
X127651589Y-115909010D01*
X127408368Y-116071525D01*
X127201525Y-116278368D01*
X127039010Y-116521589D01*
X126927068Y-116791842D01*
X126870000Y-117078740D01*
X122760000Y-117078740D01*
X122760000Y-84028740D01*
X126870000Y-84028740D01*
X126870000Y-84321260D01*
X126927068Y-84608158D01*
X127039010Y-84878411D01*
X127201525Y-85121632D01*
X127408368Y-85328475D01*
X127582760Y-85445000D01*
X127408368Y-85561525D01*
X127201525Y-85768368D01*
X127039010Y-86011589D01*
X126927068Y-86281842D01*
X126870000Y-86568740D01*
X126870000Y-86861260D01*
X126927068Y-87148158D01*
X127039010Y-87418411D01*
X127201525Y-87661632D01*
X127408368Y-87868475D01*
X127582760Y-87985000D01*
X127408368Y-88101525D01*
X127201525Y-88308368D01*
X127039010Y-88551589D01*
X126927068Y-88821842D01*
X126870000Y-89108740D01*
X126870000Y-89401260D01*
X126927068Y-89688158D01*
X127039010Y-89958411D01*
X127201525Y-90201632D01*
X127408368Y-90408475D01*
X127582760Y-90525000D01*
X127408368Y-90641525D01*
X127201525Y-90848368D01*
X127039010Y-91091589D01*
X126927068Y-91361842D01*
X126870000Y-91648740D01*
X126870000Y-91941260D01*
X126927068Y-92228158D01*
X127039010Y-92498411D01*
X127201525Y-92741632D01*
X127408368Y-92948475D01*
X127582760Y-93065000D01*
X127408368Y-93181525D01*
X127201525Y-93388368D01*
X127039010Y-93631589D01*
X126927068Y-93901842D01*
X126870000Y-94188740D01*
X126870000Y-94481260D01*
X126927068Y-94768158D01*
X127039010Y-95038411D01*
X127201525Y-95281632D01*
X127408368Y-95488475D01*
X127582760Y-95605000D01*
X127408368Y-95721525D01*
X127201525Y-95928368D01*
X127039010Y-96171589D01*
X126927068Y-96441842D01*
X126870000Y-96728740D01*
X126870000Y-97021260D01*
X126927068Y-97308158D01*
X127039010Y-97578411D01*
X127201525Y-97821632D01*
X127408368Y-98028475D01*
X127582760Y-98145000D01*
X127408368Y-98261525D01*
X127201525Y-98468368D01*
X127039010Y-98711589D01*
X126927068Y-98981842D01*
X126870000Y-99268740D01*
X126870000Y-99561260D01*
X126927068Y-99848158D01*
X127039010Y-100118411D01*
X127201525Y-100361632D01*
X127408368Y-100568475D01*
X127651589Y-100730990D01*
X127921842Y-100842932D01*
X128208740Y-100900000D01*
X128501260Y-100900000D01*
X128788158Y-100842932D01*
X129058411Y-100730990D01*
X129301632Y-100568475D01*
X129508475Y-100361632D01*
X129670990Y-100118411D01*
X129782932Y-99848158D01*
X129840000Y-99561260D01*
X129840000Y-99268740D01*
X129782932Y-98981842D01*
X129670990Y-98711589D01*
X129508475Y-98468368D01*
X129301632Y-98261525D01*
X129127240Y-98145000D01*
X129301632Y-98028475D01*
X129508475Y-97821632D01*
X129631842Y-97637000D01*
X148814066Y-97637000D01*
X148942863Y-97829759D01*
X149142741Y-98029637D01*
X149375259Y-98185000D01*
X149142741Y-98340363D01*
X148942863Y-98540241D01*
X148785820Y-98775273D01*
X148677647Y-99036426D01*
X148622500Y-99313665D01*
X148622500Y-99596335D01*
X148658343Y-99776526D01*
X143396870Y-105038000D01*
X129631842Y-105038000D01*
X129508475Y-104853368D01*
X129301632Y-104646525D01*
X129058411Y-104484010D01*
X128788158Y-104372068D01*
X128501260Y-104315000D01*
X128208740Y-104315000D01*
X127921842Y-104372068D01*
X127651589Y-104484010D01*
X127408368Y-104646525D01*
X127201525Y-104853368D01*
X127039010Y-105096589D01*
X126927068Y-105366842D01*
X126870000Y-105653740D01*
X126870000Y-105946260D01*
X126927068Y-106233158D01*
X127039010Y-106503411D01*
X127201525Y-106746632D01*
X127408368Y-106953475D01*
X127582760Y-107070000D01*
X127408368Y-107186525D01*
X127201525Y-107393368D01*
X127039010Y-107636589D01*
X126927068Y-107906842D01*
X126870000Y-108193740D01*
X126870000Y-108486260D01*
X126927068Y-108773158D01*
X127039010Y-109043411D01*
X127201525Y-109286632D01*
X127408368Y-109493475D01*
X127582760Y-109610000D01*
X127408368Y-109726525D01*
X127201525Y-109933368D01*
X127039010Y-110176589D01*
X126927068Y-110446842D01*
X126870000Y-110733740D01*
X126870000Y-111026260D01*
X126927068Y-111313158D01*
X127039010Y-111583411D01*
X127201525Y-111826632D01*
X127408368Y-112033475D01*
X127651589Y-112195990D01*
X127921842Y-112307932D01*
X128208740Y-112365000D01*
X128501260Y-112365000D01*
X128788158Y-112307932D01*
X129058411Y-112195990D01*
X129301632Y-112033475D01*
X129508475Y-111826632D01*
X129631842Y-111642000D01*
X143675077Y-111642000D01*
X143712500Y-111645686D01*
X143749923Y-111642000D01*
X143749926Y-111642000D01*
X143861878Y-111630974D01*
X144005515Y-111587402D01*
X144137892Y-111516645D01*
X144253922Y-111421422D01*
X144277784Y-111392346D01*
X148622500Y-107047631D01*
X148622500Y-107216335D01*
X148677647Y-107493574D01*
X148785820Y-107754727D01*
X148942863Y-107989759D01*
X149142741Y-108189637D01*
X149377773Y-108346680D01*
X149388365Y-108351067D01*
X149202369Y-108462615D01*
X148993981Y-108651586D01*
X148826463Y-108877580D01*
X148706254Y-109131913D01*
X148665596Y-109265961D01*
X148787585Y-109488000D01*
X149930500Y-109488000D01*
X149930500Y-109468000D01*
X150184500Y-109468000D01*
X150184500Y-109488000D01*
X151327415Y-109488000D01*
X151449404Y-109265961D01*
X151408746Y-109131913D01*
X151288537Y-108877580D01*
X151121019Y-108651586D01*
X150912631Y-108462615D01*
X150726635Y-108351067D01*
X150737227Y-108346680D01*
X150972259Y-108189637D01*
X151172137Y-107989759D01*
X151329180Y-107754727D01*
X151437353Y-107493574D01*
X151492500Y-107216335D01*
X151492500Y-106933665D01*
X151486456Y-106903279D01*
X155505736Y-102884000D01*
X164165651Y-102884000D01*
X164182863Y-102909759D01*
X164382741Y-103109637D01*
X164617773Y-103266680D01*
X164628365Y-103271067D01*
X164442369Y-103382615D01*
X164233981Y-103571586D01*
X164066463Y-103797580D01*
X163946254Y-104051913D01*
X163905596Y-104185961D01*
X164027585Y-104408000D01*
X165170500Y-104408000D01*
X165170500Y-104388000D01*
X165424500Y-104388000D01*
X165424500Y-104408000D01*
X166567415Y-104408000D01*
X166689404Y-104185961D01*
X166648746Y-104051913D01*
X166528537Y-103797580D01*
X166361019Y-103571586D01*
X166152631Y-103382615D01*
X165966635Y-103271067D01*
X165977227Y-103266680D01*
X166212259Y-103109637D01*
X166412137Y-102909759D01*
X166569180Y-102674727D01*
X166677353Y-102413574D01*
X166732500Y-102136335D01*
X166732500Y-101853665D01*
X166677353Y-101576426D01*
X166569180Y-101315273D01*
X166412137Y-101080241D01*
X166212259Y-100880363D01*
X165979741Y-100725000D01*
X166212259Y-100569637D01*
X166412137Y-100369759D01*
X166514207Y-100217000D01*
X185719794Y-100217000D01*
X185856525Y-100421632D01*
X186063368Y-100628475D01*
X186306589Y-100790990D01*
X186576842Y-100902932D01*
X186863740Y-100960000D01*
X187156260Y-100960000D01*
X187443158Y-100902932D01*
X187713411Y-100790990D01*
X187956632Y-100628475D01*
X188163475Y-100421632D01*
X188325990Y-100178411D01*
X188437932Y-99908158D01*
X188495000Y-99621260D01*
X188495000Y-99328740D01*
X188437932Y-99041842D01*
X188325990Y-98771589D01*
X188163475Y-98528368D01*
X187956632Y-98321525D01*
X187782240Y-98205000D01*
X187956632Y-98088475D01*
X188163475Y-97881632D01*
X188325990Y-97638411D01*
X188437932Y-97368158D01*
X188495000Y-97081260D01*
X188495000Y-96788740D01*
X188437932Y-96501842D01*
X188325990Y-96231589D01*
X188163475Y-95988368D01*
X187956632Y-95781525D01*
X187782240Y-95665000D01*
X187956632Y-95548475D01*
X188163475Y-95341632D01*
X188325990Y-95098411D01*
X188437932Y-94828158D01*
X188495000Y-94541260D01*
X188495000Y-94248740D01*
X188437932Y-93961842D01*
X188325990Y-93691589D01*
X188163475Y-93448368D01*
X187956632Y-93241525D01*
X187782240Y-93125000D01*
X187956632Y-93008475D01*
X188163475Y-92801632D01*
X188325990Y-92558411D01*
X188437932Y-92288158D01*
X188495000Y-92001260D01*
X188495000Y-91708740D01*
X188437932Y-91421842D01*
X188325990Y-91151589D01*
X188163475Y-90908368D01*
X187956632Y-90701525D01*
X187782240Y-90585000D01*
X187956632Y-90468475D01*
X188163475Y-90261632D01*
X188325990Y-90018411D01*
X188437932Y-89748158D01*
X188495000Y-89461260D01*
X188495000Y-89168740D01*
X188437932Y-88881842D01*
X188325990Y-88611589D01*
X188163475Y-88368368D01*
X187956632Y-88161525D01*
X187782240Y-88045000D01*
X187956632Y-87928475D01*
X188163475Y-87721632D01*
X188325990Y-87478411D01*
X188437932Y-87208158D01*
X188495000Y-86921260D01*
X188495000Y-86628740D01*
X188437932Y-86341842D01*
X188325990Y-86071589D01*
X188163475Y-85828368D01*
X187956632Y-85621525D01*
X187782240Y-85505000D01*
X187956632Y-85388475D01*
X188163475Y-85181632D01*
X188325990Y-84938411D01*
X188437932Y-84668158D01*
X188495000Y-84381260D01*
X188495000Y-84088740D01*
X188437932Y-83801842D01*
X188325990Y-83531589D01*
X188163475Y-83288368D01*
X187956632Y-83081525D01*
X187782240Y-82965000D01*
X187956632Y-82848475D01*
X188163475Y-82641632D01*
X188325990Y-82398411D01*
X188437932Y-82128158D01*
X188495000Y-81841260D01*
X188495000Y-81548740D01*
X188437932Y-81261842D01*
X188325990Y-80991589D01*
X188163475Y-80748368D01*
X187956632Y-80541525D01*
X187713411Y-80379010D01*
X187443158Y-80267068D01*
X187156260Y-80210000D01*
X186863740Y-80210000D01*
X186576842Y-80267068D01*
X186306589Y-80379010D01*
X186063368Y-80541525D01*
X185856525Y-80748368D01*
X185746521Y-80913000D01*
X166514207Y-80913000D01*
X166412137Y-80760241D01*
X166212259Y-80560363D01*
X165977227Y-80403320D01*
X165716074Y-80295147D01*
X165438835Y-80240000D01*
X165156165Y-80240000D01*
X164878926Y-80295147D01*
X164617773Y-80403320D01*
X164382741Y-80560363D01*
X164182863Y-80760241D01*
X164025820Y-80995273D01*
X163917647Y-81256426D01*
X163862500Y-81533665D01*
X163862500Y-81816335D01*
X163917647Y-82093574D01*
X164025820Y-82354727D01*
X164182863Y-82589759D01*
X164382741Y-82789637D01*
X164615259Y-82945000D01*
X164382741Y-83100363D01*
X164182863Y-83300241D01*
X164025820Y-83535273D01*
X163917647Y-83796426D01*
X163862500Y-84073665D01*
X163862500Y-84356335D01*
X163917647Y-84633574D01*
X164025820Y-84894727D01*
X164182863Y-85129759D01*
X164382741Y-85329637D01*
X164615259Y-85485000D01*
X164382741Y-85640363D01*
X164182863Y-85840241D01*
X164025820Y-86075273D01*
X163917647Y-86336426D01*
X163862500Y-86613665D01*
X163862500Y-86896335D01*
X163917647Y-87173574D01*
X164025820Y-87434727D01*
X164182863Y-87669759D01*
X164382741Y-87869637D01*
X164615259Y-88025000D01*
X164382741Y-88180363D01*
X164182863Y-88380241D01*
X164025820Y-88615273D01*
X163917647Y-88876426D01*
X163862500Y-89153665D01*
X163862500Y-89436335D01*
X163917647Y-89713574D01*
X164025820Y-89974727D01*
X164182863Y-90209759D01*
X164382741Y-90409637D01*
X164615259Y-90565000D01*
X164382741Y-90720363D01*
X164182863Y-90920241D01*
X164025820Y-91155273D01*
X163917647Y-91416426D01*
X163862500Y-91693665D01*
X163862500Y-91976335D01*
X163917647Y-92253574D01*
X164025820Y-92514727D01*
X164182863Y-92749759D01*
X164382741Y-92949637D01*
X164615259Y-93105000D01*
X164382741Y-93260363D01*
X164182863Y-93460241D01*
X164025820Y-93695273D01*
X163917647Y-93956426D01*
X163862500Y-94233665D01*
X163862500Y-94516335D01*
X163917647Y-94793574D01*
X164025820Y-95054727D01*
X164182863Y-95289759D01*
X164382741Y-95489637D01*
X164615259Y-95645000D01*
X164382741Y-95800363D01*
X164182863Y-96000241D01*
X164025820Y-96235273D01*
X163917647Y-96496426D01*
X163862500Y-96773665D01*
X163862500Y-97056335D01*
X163917647Y-97333574D01*
X164025820Y-97594727D01*
X164182863Y-97829759D01*
X164382741Y-98029637D01*
X164615259Y-98185000D01*
X164382741Y-98340363D01*
X164182863Y-98540241D01*
X164025820Y-98775273D01*
X163917647Y-99036426D01*
X163862500Y-99313665D01*
X163862500Y-99596335D01*
X163917647Y-99873574D01*
X164025820Y-100134727D01*
X164182863Y-100369759D01*
X164382741Y-100569637D01*
X164615259Y-100725000D01*
X164382741Y-100880363D01*
X164182863Y-101080241D01*
X164165651Y-101106000D01*
X156026500Y-101106000D01*
X156026500Y-87230735D01*
X163343236Y-79914000D01*
X172331340Y-79914000D01*
X172375000Y-79918300D01*
X172418660Y-79914000D01*
X172418667Y-79914000D01*
X172549274Y-79901136D01*
X172716851Y-79850303D01*
X172871291Y-79767753D01*
X173006659Y-79656659D01*
X173034499Y-79622736D01*
X174553280Y-78103956D01*
X174583665Y-78110000D01*
X174866335Y-78110000D01*
X175143574Y-78054853D01*
X175404727Y-77946680D01*
X175639759Y-77789637D01*
X175839637Y-77589759D01*
X175996680Y-77354727D01*
X176104853Y-77093574D01*
X176160000Y-76816335D01*
X176160000Y-76533665D01*
X176104853Y-76256426D01*
X175996680Y-75995273D01*
X175839637Y-75760241D01*
X175639759Y-75560363D01*
X175404727Y-75403320D01*
X175143574Y-75295147D01*
X174866335Y-75240000D01*
X174583665Y-75240000D01*
X174306426Y-75295147D01*
X174045273Y-75403320D01*
X173810241Y-75560363D01*
X173610363Y-75760241D01*
X173453320Y-75995273D01*
X173345147Y-76256426D01*
X173290000Y-76533665D01*
X173290000Y-76816335D01*
X173296044Y-76846720D01*
X172006765Y-78136000D01*
X163018660Y-78136000D01*
X162975000Y-78131700D01*
X162931340Y-78136000D01*
X162931333Y-78136000D01*
X162817325Y-78147229D01*
X162800725Y-78148864D01*
X162727758Y-78170998D01*
X162633149Y-78199697D01*
X162478709Y-78282247D01*
X162343341Y-78393341D01*
X162315506Y-78427258D01*
X154539764Y-86203001D01*
X154505841Y-86230841D01*
X154394747Y-86366210D01*
X154312197Y-86520650D01*
X154261364Y-86688227D01*
X154248500Y-86818834D01*
X154248500Y-86818840D01*
X154244200Y-86862500D01*
X154248500Y-86906160D01*
X154248501Y-101626763D01*
X151490691Y-104384573D01*
X151437353Y-104116426D01*
X151329180Y-103855273D01*
X151172137Y-103620241D01*
X150972259Y-103420363D01*
X150739741Y-103265000D01*
X150972259Y-103109637D01*
X151172137Y-102909759D01*
X151329180Y-102674727D01*
X151437353Y-102413574D01*
X151492500Y-102136335D01*
X151492500Y-101853665D01*
X151437353Y-101576426D01*
X151329180Y-101315273D01*
X151172137Y-101080241D01*
X150972259Y-100880363D01*
X150739741Y-100725000D01*
X150972259Y-100569637D01*
X151172137Y-100369759D01*
X151329180Y-100134727D01*
X151437353Y-99873574D01*
X151492500Y-99596335D01*
X151492500Y-99313665D01*
X151437353Y-99036426D01*
X151329180Y-98775273D01*
X151172137Y-98540241D01*
X150972259Y-98340363D01*
X150739741Y-98185000D01*
X150972259Y-98029637D01*
X151172137Y-97829759D01*
X151329180Y-97594727D01*
X151437353Y-97333574D01*
X151492500Y-97056335D01*
X151492500Y-96773665D01*
X151437353Y-96496426D01*
X151329180Y-96235273D01*
X151172137Y-96000241D01*
X150972259Y-95800363D01*
X150739741Y-95645000D01*
X150972259Y-95489637D01*
X151172137Y-95289759D01*
X151329180Y-95054727D01*
X151437353Y-94793574D01*
X151492500Y-94516335D01*
X151492500Y-94233665D01*
X151437353Y-93956426D01*
X151329180Y-93695273D01*
X151172137Y-93460241D01*
X150972259Y-93260363D01*
X150739741Y-93105000D01*
X150972259Y-92949637D01*
X151172137Y-92749759D01*
X151329180Y-92514727D01*
X151437353Y-92253574D01*
X151492500Y-91976335D01*
X151492500Y-91693665D01*
X151437353Y-91416426D01*
X151329180Y-91155273D01*
X151172137Y-90920241D01*
X150972259Y-90720363D01*
X150739741Y-90565000D01*
X150972259Y-90409637D01*
X151172137Y-90209759D01*
X151329180Y-89974727D01*
X151437353Y-89713574D01*
X151492500Y-89436335D01*
X151492500Y-89153665D01*
X151437353Y-88876426D01*
X151329180Y-88615273D01*
X151172137Y-88380241D01*
X150972259Y-88180363D01*
X150739741Y-88025000D01*
X150972259Y-87869637D01*
X151172137Y-87669759D01*
X151329180Y-87434727D01*
X151437353Y-87173574D01*
X151492500Y-86896335D01*
X151492500Y-86613665D01*
X151437353Y-86336426D01*
X151329180Y-86075273D01*
X151172137Y-85840241D01*
X150972259Y-85640363D01*
X150739741Y-85485000D01*
X150972259Y-85329637D01*
X151172137Y-85129759D01*
X151329180Y-84894727D01*
X151437353Y-84633574D01*
X151492500Y-84356335D01*
X151492500Y-84073665D01*
X151437353Y-83796426D01*
X151329180Y-83535273D01*
X151172137Y-83300241D01*
X150973539Y-83101643D01*
X150981982Y-83100812D01*
X151101680Y-83064502D01*
X151211994Y-83005537D01*
X151308685Y-82926185D01*
X151388037Y-82829494D01*
X151447002Y-82719180D01*
X151483312Y-82599482D01*
X151495572Y-82475000D01*
X151495572Y-81314558D01*
X155373131Y-77437000D01*
X165888293Y-77437000D01*
X165990363Y-77589759D01*
X166190241Y-77789637D01*
X166425273Y-77946680D01*
X166686426Y-78054853D01*
X166963665Y-78110000D01*
X167246335Y-78110000D01*
X167523574Y-78054853D01*
X167784727Y-77946680D01*
X168019759Y-77789637D01*
X168219637Y-77589759D01*
X168376680Y-77354727D01*
X168484853Y-77093574D01*
X168540000Y-76816335D01*
X168540000Y-76533665D01*
X168533956Y-76503279D01*
X170023236Y-75014000D01*
X179437613Y-75014000D01*
X179540013Y-75167252D01*
X179767748Y-75394987D01*
X180035537Y-75573918D01*
X180333088Y-75697168D01*
X180648967Y-75760000D01*
X180971033Y-75760000D01*
X181286912Y-75697168D01*
X181584463Y-75573918D01*
X181852252Y-75394987D01*
X182079987Y-75167252D01*
X182182387Y-75014000D01*
X185937613Y-75014000D01*
X186040013Y-75167252D01*
X186267748Y-75394987D01*
X186535537Y-75573918D01*
X186833088Y-75697168D01*
X187148967Y-75760000D01*
X187471033Y-75760000D01*
X187786912Y-75697168D01*
X188084463Y-75573918D01*
X188352252Y-75394987D01*
X188579987Y-75167252D01*
X188758918Y-74899463D01*
X188882168Y-74601912D01*
X188945000Y-74286033D01*
X188945000Y-73963967D01*
X188882168Y-73648088D01*
X188758918Y-73350537D01*
X188579987Y-73082748D01*
X188352252Y-72855013D01*
X188084463Y-72676082D01*
X187786912Y-72552832D01*
X187471033Y-72490000D01*
X187148967Y-72490000D01*
X186833088Y-72552832D01*
X186535537Y-72676082D01*
X186267748Y-72855013D01*
X186040013Y-73082748D01*
X185937613Y-73236000D01*
X182182387Y-73236000D01*
X182079987Y-73082748D01*
X181852252Y-72855013D01*
X181584463Y-72676082D01*
X181286912Y-72552832D01*
X180971033Y-72490000D01*
X180648967Y-72490000D01*
X180333088Y-72552832D01*
X180035537Y-72676082D01*
X179767748Y-72855013D01*
X179540013Y-73082748D01*
X179437613Y-73236000D01*
X169698668Y-73236000D01*
X169655000Y-73231699D01*
X169480725Y-73248864D01*
X169429892Y-73264284D01*
X169313149Y-73299697D01*
X169158709Y-73382247D01*
X169023341Y-73493341D01*
X168995506Y-73527258D01*
X167276721Y-75246044D01*
X167246335Y-75240000D01*
X166963665Y-75240000D01*
X166686426Y-75295147D01*
X166425273Y-75403320D01*
X166190241Y-75560363D01*
X165990363Y-75760241D01*
X165888293Y-75913000D01*
X155094923Y-75913000D01*
X155057500Y-75909314D01*
X155020077Y-75913000D01*
X155020074Y-75913000D01*
X154908122Y-75924026D01*
X154764485Y-75967598D01*
X154712709Y-75995273D01*
X154632107Y-76038355D01*
X154584702Y-76077260D01*
X154516078Y-76133578D01*
X154492221Y-76162648D01*
X150417942Y-80236928D01*
X149257500Y-80236928D01*
X149133018Y-80249188D01*
X149013320Y-80285498D01*
X148903006Y-80344463D01*
X148806315Y-80423815D01*
X148726963Y-80520506D01*
X148667998Y-80630820D01*
X148631688Y-80750518D01*
X148619428Y-80875000D01*
X148619428Y-82475000D01*
X148631688Y-82599482D01*
X148667998Y-82719180D01*
X148726963Y-82829494D01*
X148806315Y-82926185D01*
X148903006Y-83005537D01*
X149013320Y-83064502D01*
X149133018Y-83100812D01*
X149141461Y-83101643D01*
X148942863Y-83300241D01*
X148867520Y-83413000D01*
X129631842Y-83413000D01*
X129508475Y-83228368D01*
X129301632Y-83021525D01*
X129058411Y-82859010D01*
X128788158Y-82747068D01*
X128501260Y-82690000D01*
X128208740Y-82690000D01*
X127921842Y-82747068D01*
X127651589Y-82859010D01*
X127408368Y-83021525D01*
X127201525Y-83228368D01*
X127039010Y-83471589D01*
X126927068Y-83741842D01*
X126870000Y-84028740D01*
X122760000Y-84028740D01*
X122760000Y-74617702D01*
X133061903Y-74617702D01*
X133133486Y-74861671D01*
X133388996Y-74982571D01*
X133663184Y-75051300D01*
X133945512Y-75065217D01*
X134225130Y-75023787D01*
X134491292Y-74928603D01*
X134616514Y-74861671D01*
X134688097Y-74617702D01*
X133875000Y-73804605D01*
X133061903Y-74617702D01*
X122760000Y-74617702D01*
X122760000Y-73695512D01*
X132434783Y-73695512D01*
X132476213Y-73975130D01*
X132571397Y-74241292D01*
X132638329Y-74366514D01*
X132882298Y-74438097D01*
X133695395Y-73625000D01*
X134054605Y-73625000D01*
X134867702Y-74438097D01*
X135111671Y-74366514D01*
X135125324Y-74337659D01*
X135260363Y-74539759D01*
X135460241Y-74739637D01*
X135695273Y-74896680D01*
X135956426Y-75004853D01*
X136233665Y-75060000D01*
X136516335Y-75060000D01*
X136793574Y-75004853D01*
X137054727Y-74896680D01*
X137289759Y-74739637D01*
X137489637Y-74539759D01*
X137506849Y-74514000D01*
X146551340Y-74514000D01*
X146595000Y-74518300D01*
X146638660Y-74514000D01*
X146638667Y-74514000D01*
X146769274Y-74501136D01*
X146936851Y-74450303D01*
X147091291Y-74367753D01*
X147226659Y-74256659D01*
X147254499Y-74222736D01*
X153423280Y-68053956D01*
X153453665Y-68060000D01*
X153736335Y-68060000D01*
X154013574Y-68004853D01*
X154274727Y-67896680D01*
X154398467Y-67814000D01*
X158089306Y-67814000D01*
X158220788Y-67974212D01*
X158397421Y-68119171D01*
X158598940Y-68226885D01*
X158817600Y-68293215D01*
X158935898Y-68304866D01*
X156354765Y-70886000D01*
X154726849Y-70886000D01*
X154709637Y-70860241D01*
X154509759Y-70660363D01*
X154274727Y-70503320D01*
X154013574Y-70395147D01*
X153736335Y-70340000D01*
X153453665Y-70340000D01*
X153176426Y-70395147D01*
X152915273Y-70503320D01*
X152680241Y-70660363D01*
X152480363Y-70860241D01*
X152323320Y-71095273D01*
X152215147Y-71356426D01*
X152160000Y-71633665D01*
X152160000Y-71916335D01*
X152215147Y-72193574D01*
X152323320Y-72454727D01*
X152480363Y-72689759D01*
X152680241Y-72889637D01*
X152915273Y-73046680D01*
X153176426Y-73154853D01*
X153453665Y-73210000D01*
X153736335Y-73210000D01*
X154013574Y-73154853D01*
X154274727Y-73046680D01*
X154509759Y-72889637D01*
X154709637Y-72689759D01*
X154726849Y-72664000D01*
X156679340Y-72664000D01*
X156723000Y-72668300D01*
X156766660Y-72664000D01*
X156766667Y-72664000D01*
X156897274Y-72651136D01*
X157064851Y-72600303D01*
X157219291Y-72517753D01*
X157354659Y-72406659D01*
X157382499Y-72372736D01*
X160912743Y-68842493D01*
X160946659Y-68814659D01*
X161057753Y-68679291D01*
X161140303Y-68524851D01*
X161160296Y-68458942D01*
X161191136Y-68357276D01*
X161200934Y-68257795D01*
X161202092Y-68246042D01*
X161357600Y-68293215D01*
X161585000Y-68315612D01*
X161812399Y-68293215D01*
X162031059Y-68226885D01*
X162232578Y-68119171D01*
X162409212Y-67974212D01*
X162540695Y-67814000D01*
X166014604Y-67814000D01*
X166190241Y-67989637D01*
X166216001Y-68006849D01*
X166216000Y-70643151D01*
X166190241Y-70660363D01*
X165990363Y-70860241D01*
X165833320Y-71095273D01*
X165725147Y-71356426D01*
X165670000Y-71633665D01*
X165670000Y-71916335D01*
X165725147Y-72193574D01*
X165833320Y-72454727D01*
X165990363Y-72689759D01*
X166190241Y-72889637D01*
X166425273Y-73046680D01*
X166686426Y-73154853D01*
X166963665Y-73210000D01*
X167246335Y-73210000D01*
X167523574Y-73154853D01*
X167784727Y-73046680D01*
X168019759Y-72889637D01*
X168219637Y-72689759D01*
X168376680Y-72454727D01*
X168484853Y-72193574D01*
X168498684Y-72124039D01*
X173333096Y-72124039D01*
X173373754Y-72258087D01*
X173493963Y-72512420D01*
X173661481Y-72738414D01*
X173869869Y-72927385D01*
X174111119Y-73072070D01*
X174375960Y-73166909D01*
X174598000Y-73045624D01*
X174598000Y-71902000D01*
X174852000Y-71902000D01*
X174852000Y-73045624D01*
X175074040Y-73166909D01*
X175338881Y-73072070D01*
X175580131Y-72927385D01*
X175788519Y-72738414D01*
X175956037Y-72512420D01*
X176076246Y-72258087D01*
X176116904Y-72124039D01*
X175994915Y-71902000D01*
X174852000Y-71902000D01*
X174598000Y-71902000D01*
X173455085Y-71902000D01*
X173333096Y-72124039D01*
X168498684Y-72124039D01*
X168540000Y-71916335D01*
X168540000Y-71633665D01*
X168498685Y-71425961D01*
X173333096Y-71425961D01*
X173455085Y-71648000D01*
X174598000Y-71648000D01*
X174598000Y-70504376D01*
X174852000Y-70504376D01*
X174852000Y-71648000D01*
X175994915Y-71648000D01*
X176116904Y-71425961D01*
X176076246Y-71291913D01*
X175956037Y-71037580D01*
X175788519Y-70811586D01*
X175732088Y-70760413D01*
X179854192Y-70760413D01*
X179949956Y-71024814D01*
X180239571Y-71165704D01*
X180551108Y-71247384D01*
X180872595Y-71266718D01*
X181191675Y-71222961D01*
X181496088Y-71117795D01*
X181670044Y-71024814D01*
X181765808Y-70760413D01*
X186354192Y-70760413D01*
X186449956Y-71024814D01*
X186739571Y-71165704D01*
X187051108Y-71247384D01*
X187372595Y-71266718D01*
X187691675Y-71222961D01*
X187996088Y-71117795D01*
X188170044Y-71024814D01*
X188265808Y-70760413D01*
X187310000Y-69804605D01*
X186354192Y-70760413D01*
X181765808Y-70760413D01*
X180810000Y-69804605D01*
X179854192Y-70760413D01*
X175732088Y-70760413D01*
X175580131Y-70622615D01*
X175338881Y-70477930D01*
X175074040Y-70383091D01*
X174852000Y-70504376D01*
X174598000Y-70504376D01*
X174375960Y-70383091D01*
X174111119Y-70477930D01*
X173869869Y-70622615D01*
X173661481Y-70811586D01*
X173493963Y-71037580D01*
X173373754Y-71291913D01*
X173333096Y-71425961D01*
X168498685Y-71425961D01*
X168484853Y-71356426D01*
X168376680Y-71095273D01*
X168219637Y-70860241D01*
X168019759Y-70660363D01*
X167994000Y-70643151D01*
X167994000Y-69687595D01*
X179168282Y-69687595D01*
X179212039Y-70006675D01*
X179317205Y-70311088D01*
X179410186Y-70485044D01*
X179674587Y-70580808D01*
X180630395Y-69625000D01*
X180989605Y-69625000D01*
X181945413Y-70580808D01*
X182209814Y-70485044D01*
X182350704Y-70195429D01*
X182432384Y-69883892D01*
X182444189Y-69687595D01*
X185668282Y-69687595D01*
X185712039Y-70006675D01*
X185817205Y-70311088D01*
X185910186Y-70485044D01*
X186174587Y-70580808D01*
X187130395Y-69625000D01*
X187489605Y-69625000D01*
X188445413Y-70580808D01*
X188709814Y-70485044D01*
X188850704Y-70195429D01*
X188932384Y-69883892D01*
X188951718Y-69562405D01*
X188907961Y-69243325D01*
X188802795Y-68938912D01*
X188709814Y-68764956D01*
X188445413Y-68669192D01*
X187489605Y-69625000D01*
X187130395Y-69625000D01*
X186174587Y-68669192D01*
X185910186Y-68764956D01*
X185769296Y-69054571D01*
X185687616Y-69366108D01*
X185668282Y-69687595D01*
X182444189Y-69687595D01*
X182451718Y-69562405D01*
X182407961Y-69243325D01*
X182302795Y-68938912D01*
X182209814Y-68764956D01*
X181945413Y-68669192D01*
X180989605Y-69625000D01*
X180630395Y-69625000D01*
X179674587Y-68669192D01*
X179410186Y-68764956D01*
X179269296Y-69054571D01*
X179187616Y-69366108D01*
X179168282Y-69687595D01*
X167994000Y-69687595D01*
X167994000Y-68489587D01*
X179854192Y-68489587D01*
X180810000Y-69445395D01*
X181765808Y-68489587D01*
X186354192Y-68489587D01*
X187310000Y-69445395D01*
X188265808Y-68489587D01*
X188170044Y-68225186D01*
X187880429Y-68084296D01*
X187568892Y-68002616D01*
X187247405Y-67983282D01*
X186928325Y-68027039D01*
X186623912Y-68132205D01*
X186449956Y-68225186D01*
X186354192Y-68489587D01*
X181765808Y-68489587D01*
X181670044Y-68225186D01*
X181380429Y-68084296D01*
X181068892Y-68002616D01*
X180747405Y-67983282D01*
X180428325Y-68027039D01*
X180123912Y-68132205D01*
X179949956Y-68225186D01*
X179854192Y-68489587D01*
X167994000Y-68489587D01*
X167994000Y-68006849D01*
X168019759Y-67989637D01*
X168141694Y-67867702D01*
X173911903Y-67867702D01*
X173983486Y-68111671D01*
X174238996Y-68232571D01*
X174513184Y-68301300D01*
X174795512Y-68315217D01*
X175075130Y-68273787D01*
X175341292Y-68178603D01*
X175466514Y-68111671D01*
X175538097Y-67867702D01*
X174725000Y-67054605D01*
X173911903Y-67867702D01*
X168141694Y-67867702D01*
X168219637Y-67789759D01*
X168376680Y-67554727D01*
X168484853Y-67293574D01*
X168540000Y-67016335D01*
X168540000Y-66945512D01*
X173284783Y-66945512D01*
X173326213Y-67225130D01*
X173421397Y-67491292D01*
X173488329Y-67616514D01*
X173732298Y-67688097D01*
X174545395Y-66875000D01*
X174904605Y-66875000D01*
X175717702Y-67688097D01*
X175961671Y-67616514D01*
X176082571Y-67361004D01*
X176151300Y-67086816D01*
X176165217Y-66804488D01*
X176123787Y-66524870D01*
X176028603Y-66258708D01*
X175961671Y-66133486D01*
X175717702Y-66061903D01*
X174904605Y-66875000D01*
X174545395Y-66875000D01*
X173732298Y-66061903D01*
X173488329Y-66133486D01*
X173367429Y-66388996D01*
X173298700Y-66663184D01*
X173284783Y-66945512D01*
X168540000Y-66945512D01*
X168540000Y-66733665D01*
X168484853Y-66456426D01*
X168376680Y-66195273D01*
X168219637Y-65960241D01*
X168141694Y-65882298D01*
X173911903Y-65882298D01*
X174725000Y-66695395D01*
X175538097Y-65882298D01*
X175466514Y-65638329D01*
X175211004Y-65517429D01*
X174936816Y-65448700D01*
X174654488Y-65434783D01*
X174374870Y-65476213D01*
X174108708Y-65571397D01*
X173983486Y-65638329D01*
X173911903Y-65882298D01*
X168141694Y-65882298D01*
X168019759Y-65760363D01*
X167784727Y-65603320D01*
X167523574Y-65495147D01*
X167246335Y-65440000D01*
X166963665Y-65440000D01*
X166686426Y-65495147D01*
X166425273Y-65603320D01*
X166190241Y-65760363D01*
X165990363Y-65960241D01*
X165939743Y-66036000D01*
X164029172Y-66036000D01*
X164146851Y-66000303D01*
X164301291Y-65917753D01*
X164436659Y-65806659D01*
X164464499Y-65772736D01*
X166933280Y-63303956D01*
X166963665Y-63310000D01*
X167246335Y-63310000D01*
X167523574Y-63254853D01*
X167784727Y-63146680D01*
X168019759Y-62989637D01*
X168219637Y-62789759D01*
X168376680Y-62554727D01*
X168484853Y-62293574D01*
X168540000Y-62016335D01*
X168540000Y-61733665D01*
X168484853Y-61456426D01*
X168404004Y-61261240D01*
X171615506Y-64472742D01*
X171643341Y-64506659D01*
X171778709Y-64617753D01*
X171933149Y-64700303D01*
X172027758Y-64729002D01*
X172100725Y-64751136D01*
X172119073Y-64752943D01*
X172231333Y-64764000D01*
X172231339Y-64764000D01*
X172274999Y-64768300D01*
X172318659Y-64764000D01*
X182171340Y-64764000D01*
X182215000Y-64768300D01*
X182258660Y-64764000D01*
X182258667Y-64764000D01*
X182389274Y-64751136D01*
X182556851Y-64700303D01*
X182711291Y-64617753D01*
X182846659Y-64506659D01*
X182868329Y-64480255D01*
X183100000Y-64503072D01*
X184850000Y-64503072D01*
X185145186Y-64473999D01*
X185429028Y-64387896D01*
X185690618Y-64248073D01*
X185919903Y-64059903D01*
X186108073Y-63830618D01*
X186247896Y-63569028D01*
X186333999Y-63285186D01*
X186363072Y-62990000D01*
X186363072Y-61240000D01*
X186333999Y-60944814D01*
X186247896Y-60660972D01*
X186108073Y-60399382D01*
X185919903Y-60170097D01*
X185690618Y-59981927D01*
X185429028Y-59842104D01*
X185145186Y-59756001D01*
X184850000Y-59726928D01*
X183100000Y-59726928D01*
X182804814Y-59756001D01*
X182520972Y-59842104D01*
X182259382Y-59981927D01*
X182030097Y-60170097D01*
X181841927Y-60399382D01*
X181702104Y-60660972D01*
X181662915Y-60790160D01*
X181660000Y-59400750D01*
X181501250Y-59242000D01*
X179402000Y-59242000D01*
X179402000Y-61341250D01*
X179560750Y-61500000D01*
X181025000Y-61503072D01*
X181149482Y-61490812D01*
X181269180Y-61454502D01*
X181379494Y-61395537D01*
X181476185Y-61316185D01*
X181555537Y-61219494D01*
X181596494Y-61142869D01*
X181586928Y-61240000D01*
X181586928Y-62986000D01*
X175643396Y-62986000D01*
X175839637Y-62789759D01*
X175996680Y-62554727D01*
X176104853Y-62293574D01*
X176160000Y-62016335D01*
X176160000Y-61733665D01*
X176104853Y-61456426D01*
X175996680Y-61195273D01*
X175839637Y-60960241D01*
X175744396Y-60865000D01*
X176886928Y-60865000D01*
X176899188Y-60989482D01*
X176935498Y-61109180D01*
X176994463Y-61219494D01*
X177073815Y-61316185D01*
X177170506Y-61395537D01*
X177280820Y-61454502D01*
X177400518Y-61490812D01*
X177525000Y-61503072D01*
X178989250Y-61500000D01*
X179148000Y-61341250D01*
X179148000Y-59242000D01*
X177048750Y-59242000D01*
X176890000Y-59400750D01*
X176886928Y-60865000D01*
X175744396Y-60865000D01*
X175639759Y-60760363D01*
X175404727Y-60603320D01*
X175143574Y-60495147D01*
X174866335Y-60440000D01*
X174779000Y-60440000D01*
X174779000Y-57365000D01*
X176886928Y-57365000D01*
X176890000Y-58829250D01*
X177048750Y-58988000D01*
X179148000Y-58988000D01*
X179148000Y-56888750D01*
X179402000Y-56888750D01*
X179402000Y-58988000D01*
X181501250Y-58988000D01*
X181660000Y-58829250D01*
X181661931Y-57908633D01*
X181694463Y-57969494D01*
X181773815Y-58066185D01*
X181870506Y-58145537D01*
X181980820Y-58204502D01*
X182100518Y-58240812D01*
X182225000Y-58253072D01*
X183689250Y-58250000D01*
X183848000Y-58091250D01*
X183848000Y-56242000D01*
X184102000Y-56242000D01*
X184102000Y-58091250D01*
X184260750Y-58250000D01*
X185725000Y-58253072D01*
X185849482Y-58240812D01*
X185969180Y-58204502D01*
X186079494Y-58145537D01*
X186176185Y-58066185D01*
X186255537Y-57969494D01*
X186314502Y-57859180D01*
X186350812Y-57739482D01*
X186363072Y-57615000D01*
X186360000Y-56400750D01*
X186201250Y-56242000D01*
X184102000Y-56242000D01*
X183848000Y-56242000D01*
X181748750Y-56242000D01*
X181590000Y-56400750D01*
X181588302Y-57071805D01*
X181555537Y-57010506D01*
X181476185Y-56913815D01*
X181379494Y-56834463D01*
X181269180Y-56775498D01*
X181149482Y-56739188D01*
X181025000Y-56726928D01*
X179560750Y-56730000D01*
X179402000Y-56888750D01*
X179148000Y-56888750D01*
X178989250Y-56730000D01*
X177525000Y-56726928D01*
X177400518Y-56739188D01*
X177280820Y-56775498D01*
X177170506Y-56834463D01*
X177073815Y-56913815D01*
X176994463Y-57010506D01*
X176935498Y-57120820D01*
X176899188Y-57240518D01*
X176886928Y-57365000D01*
X174779000Y-57365000D01*
X174779000Y-55827117D01*
X174868505Y-55767312D01*
X175082312Y-55553505D01*
X175250299Y-55302095D01*
X175366011Y-55022743D01*
X175425000Y-54726184D01*
X175425000Y-54615000D01*
X181586928Y-54615000D01*
X181590000Y-55829250D01*
X181748750Y-55988000D01*
X183848000Y-55988000D01*
X183848000Y-54138750D01*
X184102000Y-54138750D01*
X184102000Y-55988000D01*
X186201250Y-55988000D01*
X186360000Y-55829250D01*
X186363072Y-54615000D01*
X186350812Y-54490518D01*
X186314502Y-54370820D01*
X186255537Y-54260506D01*
X186176185Y-54163815D01*
X186079494Y-54084463D01*
X185969180Y-54025498D01*
X185849482Y-53989188D01*
X185725000Y-53976928D01*
X184260750Y-53980000D01*
X184102000Y-54138750D01*
X183848000Y-54138750D01*
X183689250Y-53980000D01*
X182225000Y-53976928D01*
X182100518Y-53989188D01*
X181980820Y-54025498D01*
X181870506Y-54084463D01*
X181773815Y-54163815D01*
X181694463Y-54260506D01*
X181635498Y-54370820D01*
X181599188Y-54490518D01*
X181586928Y-54615000D01*
X175425000Y-54615000D01*
X175425000Y-54423816D01*
X175366011Y-54127257D01*
X175250299Y-53847905D01*
X175082312Y-53596495D01*
X174868505Y-53382688D01*
X174617095Y-53214701D01*
X174337743Y-53098989D01*
X174041184Y-53040000D01*
X173738816Y-53040000D01*
X173442257Y-53098989D01*
X173162905Y-53214701D01*
X172911495Y-53382688D01*
X172697688Y-53596495D01*
X172595049Y-53750105D01*
X172414080Y-53690525D01*
X171529605Y-54575000D01*
X172414080Y-55459475D01*
X172595049Y-55399895D01*
X172697688Y-55553505D01*
X172911495Y-55767312D01*
X173001000Y-55827118D01*
X173001001Y-60996330D01*
X172996700Y-61040000D01*
X173013864Y-61214274D01*
X173064698Y-61381852D01*
X173119119Y-61483665D01*
X173147248Y-61536291D01*
X173258342Y-61671659D01*
X173292259Y-61699494D01*
X173296044Y-61703279D01*
X173290000Y-61733665D01*
X173290000Y-62016335D01*
X173345147Y-62293574D01*
X173453320Y-62554727D01*
X173610363Y-62789759D01*
X173806604Y-62986000D01*
X172643236Y-62986000D01*
X167508373Y-57851137D01*
X167641292Y-57803603D01*
X167766514Y-57736671D01*
X167838097Y-57492702D01*
X167025000Y-56679605D01*
X167010858Y-56693748D01*
X166831253Y-56514143D01*
X166845395Y-56500000D01*
X167204605Y-56500000D01*
X168017702Y-57313097D01*
X168261671Y-57241514D01*
X168382571Y-56986004D01*
X168451300Y-56711816D01*
X168465217Y-56429488D01*
X168423787Y-56149870D01*
X168328603Y-55883708D01*
X168261671Y-55758486D01*
X168017702Y-55686903D01*
X167204605Y-56500000D01*
X166845395Y-56500000D01*
X166032298Y-55686903D01*
X165788329Y-55758486D01*
X165774676Y-55787341D01*
X165639637Y-55585241D01*
X165561694Y-55507298D01*
X166211903Y-55507298D01*
X167025000Y-56320395D01*
X167706315Y-55639080D01*
X170465525Y-55639080D01*
X170549208Y-55893261D01*
X170821775Y-56024158D01*
X171114642Y-56099365D01*
X171416553Y-56115991D01*
X171715907Y-56073397D01*
X172001199Y-55973222D01*
X172150792Y-55893261D01*
X172234475Y-55639080D01*
X171350000Y-54754605D01*
X170465525Y-55639080D01*
X167706315Y-55639080D01*
X167838097Y-55507298D01*
X167766514Y-55263329D01*
X167511004Y-55142429D01*
X167236816Y-55073700D01*
X166954488Y-55059783D01*
X166674870Y-55101213D01*
X166408708Y-55196397D01*
X166283486Y-55263329D01*
X166211903Y-55507298D01*
X165561694Y-55507298D01*
X165439759Y-55385363D01*
X165204727Y-55228320D01*
X164943574Y-55120147D01*
X164666335Y-55065000D01*
X164622236Y-55065000D01*
X164198789Y-54641553D01*
X169809009Y-54641553D01*
X169851603Y-54940907D01*
X169951778Y-55226199D01*
X170031739Y-55375792D01*
X170285920Y-55459475D01*
X171170395Y-54575000D01*
X170285920Y-53690525D01*
X170031739Y-53774208D01*
X169900842Y-54046775D01*
X169825635Y-54339642D01*
X169809009Y-54641553D01*
X164198789Y-54641553D01*
X163068156Y-53510920D01*
X170465525Y-53510920D01*
X171350000Y-54395395D01*
X172234475Y-53510920D01*
X172150792Y-53256739D01*
X171878225Y-53125842D01*
X171585358Y-53050635D01*
X171283447Y-53034009D01*
X170984093Y-53076603D01*
X170698801Y-53176778D01*
X170549208Y-53256739D01*
X170465525Y-53510920D01*
X163068156Y-53510920D01*
X161684499Y-52127264D01*
X161656659Y-52093341D01*
X161521291Y-51982247D01*
X161366851Y-51899697D01*
X161199274Y-51848864D01*
X161068667Y-51836000D01*
X161068660Y-51836000D01*
X161025000Y-51831700D01*
X160981340Y-51836000D01*
X160890259Y-51836000D01*
X160808092Y-51713028D01*
X160586972Y-51491908D01*
X160326963Y-51318176D01*
X160038057Y-51198507D01*
X159731355Y-51137500D01*
X159418645Y-51137500D01*
X159111943Y-51198507D01*
X158823037Y-51318176D01*
X158563028Y-51491908D01*
X158341908Y-51713028D01*
X158321815Y-51743099D01*
X158162963Y-51549537D01*
X157921235Y-51351155D01*
X157645449Y-51203745D01*
X157346204Y-51112970D01*
X157035000Y-51082319D01*
X156723797Y-51112970D01*
X156424552Y-51203745D01*
X156148766Y-51351155D01*
X155907037Y-51549537D01*
X155765000Y-51722609D01*
X155622963Y-51549537D01*
X155381235Y-51351155D01*
X155105449Y-51203745D01*
X154806204Y-51112970D01*
X154495000Y-51082319D01*
X154183797Y-51112970D01*
X153884552Y-51203745D01*
X153608766Y-51351155D01*
X153367037Y-51549537D01*
X153168655Y-51791265D01*
X153144744Y-51836000D01*
X149793659Y-51836000D01*
X149749999Y-51831700D01*
X149706339Y-51836000D01*
X149706333Y-51836000D01*
X149608924Y-51845594D01*
X149575724Y-51848864D01*
X149474058Y-51879704D01*
X149408149Y-51899697D01*
X149253709Y-51982247D01*
X149118341Y-52093341D01*
X149090506Y-52127258D01*
X146146721Y-55071044D01*
X146116335Y-55065000D01*
X145833665Y-55065000D01*
X145556426Y-55120147D01*
X145295273Y-55228320D01*
X145060241Y-55385363D01*
X144860363Y-55585241D01*
X144703320Y-55820273D01*
X144595147Y-56081426D01*
X144540000Y-56358665D01*
X144540000Y-56641335D01*
X144595147Y-56918574D01*
X144703320Y-57179727D01*
X144860363Y-57414759D01*
X145060241Y-57614637D01*
X145086000Y-57631849D01*
X145086001Y-59041333D01*
X145086000Y-60743151D01*
X145060241Y-60760363D01*
X144860363Y-60960241D01*
X144703320Y-61195273D01*
X144595147Y-61456426D01*
X144540000Y-61733665D01*
X144540000Y-62016335D01*
X144595147Y-62293574D01*
X144703320Y-62554727D01*
X144860363Y-62789759D01*
X145060241Y-62989637D01*
X145086000Y-63006849D01*
X145086001Y-65493151D01*
X145060241Y-65510363D01*
X144860363Y-65710241D01*
X144703320Y-65945273D01*
X144595147Y-66206426D01*
X144540000Y-66483665D01*
X144540000Y-66766335D01*
X144595147Y-67043574D01*
X144703320Y-67304727D01*
X144860363Y-67539759D01*
X145060241Y-67739637D01*
X145086001Y-67756849D01*
X145086000Y-70643151D01*
X145060241Y-70660363D01*
X144860363Y-70860241D01*
X144703320Y-71095273D01*
X144595147Y-71356426D01*
X144540000Y-71633665D01*
X144540000Y-71916335D01*
X144595147Y-72193574D01*
X144703320Y-72454727D01*
X144860363Y-72689759D01*
X144906604Y-72736000D01*
X137506849Y-72736000D01*
X137489637Y-72710241D01*
X137289759Y-72510363D01*
X137054727Y-72353320D01*
X136793574Y-72245147D01*
X136516335Y-72190000D01*
X136233665Y-72190000D01*
X135956426Y-72245147D01*
X135695273Y-72353320D01*
X135460241Y-72510363D01*
X135260363Y-72710241D01*
X135126308Y-72910869D01*
X135111671Y-72883486D01*
X134867702Y-72811903D01*
X134054605Y-73625000D01*
X133695395Y-73625000D01*
X132882298Y-72811903D01*
X132638329Y-72883486D01*
X132517429Y-73138996D01*
X132448700Y-73413184D01*
X132434783Y-73695512D01*
X122760000Y-73695512D01*
X122760000Y-72632298D01*
X133061903Y-72632298D01*
X133875000Y-73445395D01*
X134688097Y-72632298D01*
X134616514Y-72388329D01*
X134361004Y-72267429D01*
X134086816Y-72198700D01*
X133804488Y-72184783D01*
X133524870Y-72226213D01*
X133258708Y-72321397D01*
X133133486Y-72388329D01*
X133061903Y-72632298D01*
X122760000Y-72632298D01*
X122760000Y-61693531D01*
X132084389Y-61693531D01*
X132126401Y-61983019D01*
X132224081Y-62258747D01*
X132297528Y-62396157D01*
X132546601Y-62473791D01*
X132430496Y-62589896D01*
X132470247Y-62629647D01*
X132421525Y-62678368D01*
X132259010Y-62921589D01*
X132147068Y-63191842D01*
X132090000Y-63478740D01*
X132090000Y-63771260D01*
X132147068Y-64058158D01*
X132259010Y-64328411D01*
X132421525Y-64571632D01*
X132628368Y-64778475D01*
X132871589Y-64940990D01*
X133141842Y-65052932D01*
X133428740Y-65110000D01*
X133721260Y-65110000D01*
X133939049Y-65066679D01*
X138559721Y-69687352D01*
X138583578Y-69716422D01*
X138699608Y-69811645D01*
X138831985Y-69882402D01*
X138975622Y-69925974D01*
X139087574Y-69937000D01*
X139087576Y-69937000D01*
X139124999Y-69940686D01*
X139162422Y-69937000D01*
X141348289Y-69937000D01*
X141390226Y-69978937D01*
X141559744Y-70092205D01*
X141748102Y-70170226D01*
X141948061Y-70210000D01*
X142151939Y-70210000D01*
X142351898Y-70170226D01*
X142540256Y-70092205D01*
X142709774Y-69978937D01*
X142853937Y-69834774D01*
X142967205Y-69665256D01*
X143045226Y-69476898D01*
X143085000Y-69276939D01*
X143085000Y-69073061D01*
X143045226Y-68873102D01*
X142967205Y-68684744D01*
X142853937Y-68515226D01*
X142709774Y-68371063D01*
X142540256Y-68257795D01*
X142351898Y-68179774D01*
X142151939Y-68140000D01*
X141948061Y-68140000D01*
X141748102Y-68179774D01*
X141559744Y-68257795D01*
X141390226Y-68371063D01*
X141348289Y-68413000D01*
X139440631Y-68413000D01*
X136137630Y-65110000D01*
X136221260Y-65110000D01*
X136508158Y-65052932D01*
X136778411Y-64940990D01*
X137021632Y-64778475D01*
X137228475Y-64571632D01*
X137390990Y-64328411D01*
X137502932Y-64058158D01*
X137560000Y-63771260D01*
X137560000Y-63478740D01*
X137502932Y-63191842D01*
X137390990Y-62921589D01*
X137228475Y-62678368D01*
X137175107Y-62625000D01*
X137228475Y-62571632D01*
X137390990Y-62328411D01*
X137502932Y-62058158D01*
X137560000Y-61771260D01*
X137560000Y-61478740D01*
X137502932Y-61191842D01*
X137390990Y-60921589D01*
X137228475Y-60678368D01*
X137134716Y-60584609D01*
X139354997Y-60584609D01*
X139541073Y-60925766D01*
X139958409Y-61141513D01*
X140409815Y-61271696D01*
X140877946Y-61311313D01*
X141344811Y-61258842D01*
X141792468Y-61116297D01*
X142148927Y-60925766D01*
X142335003Y-60584609D01*
X140845000Y-59094605D01*
X139354997Y-60584609D01*
X137134716Y-60584609D01*
X137021632Y-60471525D01*
X136778411Y-60309010D01*
X136508158Y-60197068D01*
X136221260Y-60140000D01*
X135928740Y-60140000D01*
X135641842Y-60197068D01*
X135371589Y-60309010D01*
X135128368Y-60471525D01*
X134921525Y-60678368D01*
X134812584Y-60841410D01*
X134603397Y-60776208D01*
X133754605Y-61625000D01*
X133768748Y-61639143D01*
X133589143Y-61818748D01*
X133575000Y-61804605D01*
X133560858Y-61818748D01*
X133381253Y-61639143D01*
X133395395Y-61625000D01*
X132546603Y-60776208D01*
X132297528Y-60853843D01*
X132171629Y-61117883D01*
X132099661Y-61401411D01*
X132084389Y-61693531D01*
X122760000Y-61693531D01*
X122760000Y-60584609D01*
X127314997Y-60584609D01*
X127501073Y-60925766D01*
X127918409Y-61141513D01*
X128369815Y-61271696D01*
X128837946Y-61311313D01*
X129304811Y-61258842D01*
X129752468Y-61116297D01*
X130108927Y-60925766D01*
X130288461Y-60596603D01*
X132726208Y-60596603D01*
X133575000Y-61445395D01*
X134423792Y-60596603D01*
X134346157Y-60347528D01*
X134082117Y-60221629D01*
X133798589Y-60149661D01*
X133506469Y-60134389D01*
X133216981Y-60176401D01*
X132941253Y-60274081D01*
X132803843Y-60347528D01*
X132726208Y-60596603D01*
X130288461Y-60596603D01*
X130295003Y-60584609D01*
X128805000Y-59094605D01*
X127314997Y-60584609D01*
X122760000Y-60584609D01*
X122760000Y-58947946D01*
X126408687Y-58947946D01*
X126461158Y-59414811D01*
X126603703Y-59862468D01*
X126794234Y-60218927D01*
X127135391Y-60405003D01*
X128625395Y-58915000D01*
X128984605Y-58915000D01*
X130474609Y-60405003D01*
X130815766Y-60218927D01*
X131031513Y-59801591D01*
X131161696Y-59350185D01*
X131195736Y-58947946D01*
X138448687Y-58947946D01*
X138501158Y-59414811D01*
X138643703Y-59862468D01*
X138834234Y-60218927D01*
X139175391Y-60405003D01*
X140665395Y-58915000D01*
X141024605Y-58915000D01*
X142514609Y-60405003D01*
X142855766Y-60218927D01*
X143071513Y-59801591D01*
X143201696Y-59350185D01*
X143241313Y-58882054D01*
X143188842Y-58415189D01*
X143046297Y-57967532D01*
X142855766Y-57611073D01*
X142514609Y-57424997D01*
X141024605Y-58915000D01*
X140665395Y-58915000D01*
X139175391Y-57424997D01*
X138834234Y-57611073D01*
X138618487Y-58028409D01*
X138488304Y-58479815D01*
X138448687Y-58947946D01*
X131195736Y-58947946D01*
X131201313Y-58882054D01*
X131148842Y-58415189D01*
X131006297Y-57967532D01*
X130815766Y-57611073D01*
X130474609Y-57424997D01*
X128984605Y-58915000D01*
X128625395Y-58915000D01*
X127135391Y-57424997D01*
X126794234Y-57611073D01*
X126578487Y-58028409D01*
X126448304Y-58479815D01*
X126408687Y-58947946D01*
X122760000Y-58947946D01*
X122760000Y-57245391D01*
X127314997Y-57245391D01*
X128805000Y-58735395D01*
X130295003Y-57245391D01*
X139354997Y-57245391D01*
X140845000Y-58735395D01*
X142335003Y-57245391D01*
X142148927Y-56904234D01*
X141731591Y-56688487D01*
X141280185Y-56558304D01*
X140812054Y-56518687D01*
X140345189Y-56571158D01*
X139897532Y-56713703D01*
X139541073Y-56904234D01*
X139354997Y-57245391D01*
X130295003Y-57245391D01*
X130108927Y-56904234D01*
X129691591Y-56688487D01*
X129240185Y-56558304D01*
X128772054Y-56518687D01*
X128305189Y-56571158D01*
X127857532Y-56713703D01*
X127501073Y-56904234D01*
X127314997Y-57245391D01*
X122760000Y-57245391D01*
X122760000Y-48610000D01*
X191290001Y-48610000D01*
X191290000Y-147140000D01*
G37*
G04 #@! TD.AperFunction*
D23*
X185856525Y-123181632D02*
X186063368Y-123388475D01*
X186237760Y-123505000D01*
X186063368Y-123621525D01*
X185856525Y-123828368D01*
X185694010Y-124071589D01*
X185582068Y-124341842D01*
X185525000Y-124628740D01*
X185525000Y-124921260D01*
X185582068Y-125208158D01*
X185694010Y-125478411D01*
X185856525Y-125721632D01*
X186063368Y-125928475D01*
X186248000Y-126051842D01*
X186248001Y-129737567D01*
X186244314Y-129775000D01*
X186259027Y-129924378D01*
X186302599Y-130068015D01*
X186364683Y-130184168D01*
X186325000Y-130383665D01*
X186325000Y-130666335D01*
X186360843Y-130846526D01*
X183969370Y-133238000D01*
X150315631Y-133238000D01*
X148587000Y-131509370D01*
X148587000Y-129943130D01*
X148622500Y-129907630D01*
X148622500Y-130076335D01*
X148677647Y-130353574D01*
X148785820Y-130614727D01*
X148942863Y-130849759D01*
X149142741Y-131049637D01*
X149377773Y-131206680D01*
X149638926Y-131314853D01*
X149916165Y-131370000D01*
X150198835Y-131370000D01*
X150379026Y-131334157D01*
X150619222Y-131574353D01*
X150643079Y-131603423D01*
X150759109Y-131698646D01*
X150891486Y-131769403D01*
X151035123Y-131812975D01*
X151147075Y-131824001D01*
X151147077Y-131824001D01*
X151184500Y-131827687D01*
X151221923Y-131824001D01*
X166175576Y-131824001D01*
X166212999Y-131827687D01*
X166250422Y-131824001D01*
X166250425Y-131824001D01*
X166362377Y-131812975D01*
X166506014Y-131769403D01*
X166638391Y-131698646D01*
X166754421Y-131603423D01*
X166766191Y-131589080D01*
X172640525Y-131589080D01*
X172724208Y-131843261D01*
X172996775Y-131974158D01*
X173289642Y-132049365D01*
X173591553Y-132065991D01*
X173890907Y-132023397D01*
X174176199Y-131923222D01*
X174325792Y-131843261D01*
X174409475Y-131589080D01*
X173525000Y-130704605D01*
X172640525Y-131589080D01*
X166766191Y-131589080D01*
X166778283Y-131574347D01*
X167761077Y-130591553D01*
X171984009Y-130591553D01*
X172026603Y-130890907D01*
X172126778Y-131176199D01*
X172206739Y-131325792D01*
X172460920Y-131409475D01*
X173345395Y-130525000D01*
X173704605Y-130525000D01*
X174589080Y-131409475D01*
X174770049Y-131349895D01*
X174872688Y-131503505D01*
X175086495Y-131717312D01*
X175337905Y-131885299D01*
X175617257Y-132001011D01*
X175913816Y-132060000D01*
X176216184Y-132060000D01*
X176512743Y-132001011D01*
X176792095Y-131885299D01*
X177043505Y-131717312D01*
X177257312Y-131503505D01*
X177401976Y-131287000D01*
X178923293Y-131287000D01*
X179025363Y-131439759D01*
X179225241Y-131639637D01*
X179460273Y-131796680D01*
X179721426Y-131904853D01*
X179998665Y-131960000D01*
X180281335Y-131960000D01*
X180558574Y-131904853D01*
X180819727Y-131796680D01*
X181054759Y-131639637D01*
X181254637Y-131439759D01*
X181411680Y-131204727D01*
X181519853Y-130943574D01*
X181575000Y-130666335D01*
X181575000Y-130383665D01*
X181519853Y-130106426D01*
X181411680Y-129845273D01*
X181254637Y-129610241D01*
X181054759Y-129410363D01*
X180819727Y-129253320D01*
X180558574Y-129145147D01*
X180281335Y-129090000D01*
X179998665Y-129090000D01*
X179721426Y-129145147D01*
X179460273Y-129253320D01*
X179225241Y-129410363D01*
X179025363Y-129610241D01*
X178923293Y-129763000D01*
X177401976Y-129763000D01*
X177257312Y-129546495D01*
X177043505Y-129332688D01*
X176792095Y-129164701D01*
X176512743Y-129048989D01*
X176216184Y-128990000D01*
X175913816Y-128990000D01*
X175617257Y-129048989D01*
X175337905Y-129164701D01*
X175086495Y-129332688D01*
X174872688Y-129546495D01*
X174770049Y-129700105D01*
X174589080Y-129640525D01*
X173704605Y-130525000D01*
X173345395Y-130525000D01*
X172460920Y-129640525D01*
X172206739Y-129724208D01*
X172075842Y-129996775D01*
X172000635Y-130289642D01*
X171984009Y-130591553D01*
X167761077Y-130591553D01*
X168891710Y-129460920D01*
X172640525Y-129460920D01*
X173525000Y-130345395D01*
X174409475Y-129460920D01*
X174325792Y-129206739D01*
X174053225Y-129075842D01*
X173760358Y-129000635D01*
X173458447Y-128984009D01*
X173159093Y-129026603D01*
X172873801Y-129126778D01*
X172724208Y-129206739D01*
X172640525Y-129460920D01*
X168891710Y-129460920D01*
X175355630Y-122997000D01*
X185733158Y-122997000D01*
X185856525Y-123181632D01*
G04 #@! TA.AperFunction,Conductor*
D25*
G36*
X185856525Y-123181632D02*
G01*
X186063368Y-123388475D01*
X186237760Y-123505000D01*
X186063368Y-123621525D01*
X185856525Y-123828368D01*
X185694010Y-124071589D01*
X185582068Y-124341842D01*
X185525000Y-124628740D01*
X185525000Y-124921260D01*
X185582068Y-125208158D01*
X185694010Y-125478411D01*
X185856525Y-125721632D01*
X186063368Y-125928475D01*
X186248000Y-126051842D01*
X186248001Y-129737567D01*
X186244314Y-129775000D01*
X186259027Y-129924378D01*
X186302599Y-130068015D01*
X186364683Y-130184168D01*
X186325000Y-130383665D01*
X186325000Y-130666335D01*
X186360843Y-130846526D01*
X183969370Y-133238000D01*
X150315631Y-133238000D01*
X148587000Y-131509370D01*
X148587000Y-129943130D01*
X148622500Y-129907630D01*
X148622500Y-130076335D01*
X148677647Y-130353574D01*
X148785820Y-130614727D01*
X148942863Y-130849759D01*
X149142741Y-131049637D01*
X149377773Y-131206680D01*
X149638926Y-131314853D01*
X149916165Y-131370000D01*
X150198835Y-131370000D01*
X150379026Y-131334157D01*
X150619222Y-131574353D01*
X150643079Y-131603423D01*
X150759109Y-131698646D01*
X150891486Y-131769403D01*
X151035123Y-131812975D01*
X151147075Y-131824001D01*
X151147077Y-131824001D01*
X151184500Y-131827687D01*
X151221923Y-131824001D01*
X166175576Y-131824001D01*
X166212999Y-131827687D01*
X166250422Y-131824001D01*
X166250425Y-131824001D01*
X166362377Y-131812975D01*
X166506014Y-131769403D01*
X166638391Y-131698646D01*
X166754421Y-131603423D01*
X166766191Y-131589080D01*
X172640525Y-131589080D01*
X172724208Y-131843261D01*
X172996775Y-131974158D01*
X173289642Y-132049365D01*
X173591553Y-132065991D01*
X173890907Y-132023397D01*
X174176199Y-131923222D01*
X174325792Y-131843261D01*
X174409475Y-131589080D01*
X173525000Y-130704605D01*
X172640525Y-131589080D01*
X166766191Y-131589080D01*
X166778283Y-131574347D01*
X167761077Y-130591553D01*
X171984009Y-130591553D01*
X172026603Y-130890907D01*
X172126778Y-131176199D01*
X172206739Y-131325792D01*
X172460920Y-131409475D01*
X173345395Y-130525000D01*
X173704605Y-130525000D01*
X174589080Y-131409475D01*
X174770049Y-131349895D01*
X174872688Y-131503505D01*
X175086495Y-131717312D01*
X175337905Y-131885299D01*
X175617257Y-132001011D01*
X175913816Y-132060000D01*
X176216184Y-132060000D01*
X176512743Y-132001011D01*
X176792095Y-131885299D01*
X177043505Y-131717312D01*
X177257312Y-131503505D01*
X177401976Y-131287000D01*
X178923293Y-131287000D01*
X179025363Y-131439759D01*
X179225241Y-131639637D01*
X179460273Y-131796680D01*
X179721426Y-131904853D01*
X179998665Y-131960000D01*
X180281335Y-131960000D01*
X180558574Y-131904853D01*
X180819727Y-131796680D01*
X181054759Y-131639637D01*
X181254637Y-131439759D01*
X181411680Y-131204727D01*
X181519853Y-130943574D01*
X181575000Y-130666335D01*
X181575000Y-130383665D01*
X181519853Y-130106426D01*
X181411680Y-129845273D01*
X181254637Y-129610241D01*
X181054759Y-129410363D01*
X180819727Y-129253320D01*
X180558574Y-129145147D01*
X180281335Y-129090000D01*
X179998665Y-129090000D01*
X179721426Y-129145147D01*
X179460273Y-129253320D01*
X179225241Y-129410363D01*
X179025363Y-129610241D01*
X178923293Y-129763000D01*
X177401976Y-129763000D01*
X177257312Y-129546495D01*
X177043505Y-129332688D01*
X176792095Y-129164701D01*
X176512743Y-129048989D01*
X176216184Y-128990000D01*
X175913816Y-128990000D01*
X175617257Y-129048989D01*
X175337905Y-129164701D01*
X175086495Y-129332688D01*
X174872688Y-129546495D01*
X174770049Y-129700105D01*
X174589080Y-129640525D01*
X173704605Y-130525000D01*
X173345395Y-130525000D01*
X172460920Y-129640525D01*
X172206739Y-129724208D01*
X172075842Y-129996775D01*
X172000635Y-130289642D01*
X171984009Y-130591553D01*
X167761077Y-130591553D01*
X168891710Y-129460920D01*
X172640525Y-129460920D01*
X173525000Y-130345395D01*
X174409475Y-129460920D01*
X174325792Y-129206739D01*
X174053225Y-129075842D01*
X173760358Y-129000635D01*
X173458447Y-128984009D01*
X173159093Y-129026603D01*
X172873801Y-129126778D01*
X172724208Y-129206739D01*
X172640525Y-129460920D01*
X168891710Y-129460920D01*
X175355630Y-122997000D01*
X185733158Y-122997000D01*
X185856525Y-123181632D01*
G37*
G04 #@! TD.AperFunction*
D23*
X153168655Y-53658734D02*
X153367037Y-53900463D01*
X153608765Y-54098845D01*
X153884551Y-54246255D01*
X154183796Y-54337030D01*
X154495000Y-54367681D01*
X154806203Y-54337030D01*
X155105448Y-54246255D01*
X155381234Y-54098845D01*
X155622963Y-53900463D01*
X155765000Y-53727391D01*
X155907037Y-53900463D01*
X156146000Y-54096576D01*
X156146001Y-60233297D01*
X156086426Y-60245147D01*
X155825273Y-60353320D01*
X155590241Y-60510363D01*
X155390363Y-60710241D01*
X155233320Y-60945273D01*
X155125147Y-61206426D01*
X155070000Y-61483665D01*
X155070000Y-61766335D01*
X155125147Y-62043574D01*
X155233320Y-62304727D01*
X155390363Y-62539759D01*
X155590241Y-62739637D01*
X155825273Y-62896680D01*
X156086426Y-63004853D01*
X156363665Y-63060000D01*
X156646335Y-63060000D01*
X156923574Y-63004853D01*
X157184727Y-62896680D01*
X157419759Y-62739637D01*
X157619637Y-62539759D01*
X157776680Y-62304727D01*
X157884853Y-62043574D01*
X157940000Y-61766335D01*
X157940000Y-61695512D01*
X162684783Y-61695512D01*
X162726213Y-61975130D01*
X162821397Y-62241292D01*
X162888329Y-62366514D01*
X163132298Y-62438097D01*
X163945395Y-61625000D01*
X163132298Y-60811903D01*
X162888329Y-60883486D01*
X162767429Y-61138996D01*
X162698700Y-61413184D01*
X162684783Y-61695512D01*
X157940000Y-61695512D01*
X157940000Y-61483665D01*
X157902813Y-61296713D01*
X157904941Y-61289698D01*
X157911136Y-61269276D01*
X157917326Y-61206426D01*
X157924000Y-61138667D01*
X157924000Y-61138661D01*
X157928300Y-61095001D01*
X157924000Y-61051341D01*
X157924000Y-60632298D01*
X163311903Y-60632298D01*
X164125000Y-61445395D01*
X164938097Y-60632298D01*
X164866514Y-60388329D01*
X164611004Y-60267429D01*
X164336816Y-60198700D01*
X164054488Y-60184783D01*
X163774870Y-60226213D01*
X163508708Y-60321397D01*
X163383486Y-60388329D01*
X163311903Y-60632298D01*
X157924000Y-60632298D01*
X157924000Y-54096575D01*
X158162963Y-53900463D01*
X158321816Y-53706901D01*
X158341908Y-53736972D01*
X158563028Y-53958092D01*
X158823037Y-54131824D01*
X159111943Y-54251493D01*
X159418645Y-54312500D01*
X159731355Y-54312500D01*
X160038057Y-54251493D01*
X160326963Y-54131824D01*
X160586972Y-53958092D01*
X160793914Y-53751150D01*
X163141670Y-56098906D01*
X163090000Y-56358665D01*
X163090000Y-56641335D01*
X163145147Y-56918574D01*
X163253320Y-57179727D01*
X163410363Y-57414759D01*
X163610241Y-57614637D01*
X163845273Y-57771680D01*
X164106426Y-57879853D01*
X164383665Y-57935000D01*
X164666335Y-57935000D01*
X164943574Y-57879853D01*
X164999466Y-57856702D01*
X167718760Y-60575996D01*
X167523574Y-60495147D01*
X167246335Y-60440000D01*
X166963665Y-60440000D01*
X166686426Y-60495147D01*
X166425273Y-60603320D01*
X166190241Y-60760363D01*
X165990363Y-60960241D01*
X165833320Y-61195273D01*
X165725147Y-61456426D01*
X165670000Y-61733665D01*
X165670000Y-62016335D01*
X165676044Y-62046720D01*
X165366540Y-62356225D01*
X165482571Y-62111004D01*
X165551300Y-61836816D01*
X165565217Y-61554488D01*
X165523787Y-61274870D01*
X165428603Y-61008708D01*
X165361671Y-60883486D01*
X165117702Y-60811903D01*
X164304605Y-61625000D01*
X164318748Y-61639143D01*
X164139143Y-61818748D01*
X164125000Y-61804605D01*
X163311903Y-62617702D01*
X163383486Y-62861671D01*
X163638996Y-62982571D01*
X163913184Y-63051300D01*
X164195512Y-63065217D01*
X164475130Y-63023787D01*
X164741292Y-62928603D01*
X164854869Y-62867895D01*
X163436765Y-64286000D01*
X160499130Y-64286000D01*
X160455470Y-64281700D01*
X160411810Y-64286000D01*
X160411804Y-64286000D01*
X160314395Y-64295594D01*
X160281195Y-64298864D01*
X160183792Y-64328411D01*
X160113620Y-64349697D01*
X159959180Y-64432247D01*
X159823812Y-64543341D01*
X159795977Y-64577259D01*
X158815950Y-65557286D01*
X158598941Y-65623115D01*
X158397422Y-65730829D01*
X158220789Y-65875788D01*
X158089306Y-66036000D01*
X154904260Y-66036000D01*
X154866680Y-65945273D01*
X154709637Y-65710241D01*
X154509759Y-65510363D01*
X154274727Y-65353320D01*
X154013574Y-65245147D01*
X153736335Y-65190000D01*
X153453665Y-65190000D01*
X153176426Y-65245147D01*
X152915273Y-65353320D01*
X152680241Y-65510363D01*
X152480363Y-65710241D01*
X152323320Y-65945273D01*
X152215147Y-66206426D01*
X152160000Y-66483665D01*
X152160000Y-66766335D01*
X152166044Y-66796720D01*
X147396578Y-71566187D01*
X147354853Y-71356426D01*
X147246680Y-71095273D01*
X147089637Y-70860241D01*
X146889759Y-70660363D01*
X146864000Y-70643151D01*
X146864000Y-67756849D01*
X146889759Y-67739637D01*
X147089637Y-67539759D01*
X147246680Y-67304727D01*
X147354853Y-67043574D01*
X147410000Y-66766335D01*
X147410000Y-66483665D01*
X147354853Y-66206426D01*
X147246680Y-65945273D01*
X147089637Y-65710241D01*
X146889759Y-65510363D01*
X146864000Y-65493151D01*
X146864000Y-63006849D01*
X146889759Y-62989637D01*
X147089637Y-62789759D01*
X147246680Y-62554727D01*
X147354853Y-62293574D01*
X147368684Y-62224039D01*
X152203096Y-62224039D01*
X152243754Y-62358087D01*
X152363963Y-62612420D01*
X152531481Y-62838414D01*
X152739869Y-63027385D01*
X152981119Y-63172070D01*
X153245960Y-63266909D01*
X153468000Y-63145624D01*
X153468000Y-62002000D01*
X153722000Y-62002000D01*
X153722000Y-63145624D01*
X153944040Y-63266909D01*
X154208881Y-63172070D01*
X154450131Y-63027385D01*
X154658519Y-62838414D01*
X154826037Y-62612420D01*
X154946246Y-62358087D01*
X154986904Y-62224039D01*
X154864915Y-62002000D01*
X153722000Y-62002000D01*
X153468000Y-62002000D01*
X152325085Y-62002000D01*
X152203096Y-62224039D01*
X147368684Y-62224039D01*
X147410000Y-62016335D01*
X147410000Y-61733665D01*
X147368685Y-61525961D01*
X152203096Y-61525961D01*
X152325085Y-61748000D01*
X153468000Y-61748000D01*
X153468000Y-60604376D01*
X153722000Y-60604376D01*
X153722000Y-61748000D01*
X154864915Y-61748000D01*
X154986904Y-61525961D01*
X154946246Y-61391913D01*
X154826037Y-61137580D01*
X154658519Y-60911586D01*
X154450131Y-60722615D01*
X154208881Y-60577930D01*
X153944040Y-60483091D01*
X153722000Y-60604376D01*
X153468000Y-60604376D01*
X153245960Y-60483091D01*
X152981119Y-60577930D01*
X152739869Y-60722615D01*
X152531481Y-60911586D01*
X152363963Y-61137580D01*
X152243754Y-61391913D01*
X152203096Y-61525961D01*
X147368685Y-61525961D01*
X147354853Y-61456426D01*
X147246680Y-61195273D01*
X147089637Y-60960241D01*
X146889759Y-60760363D01*
X146864000Y-60743151D01*
X146864000Y-57631849D01*
X146889759Y-57614637D01*
X147011694Y-57492702D01*
X147661903Y-57492702D01*
X147733486Y-57736671D01*
X147988996Y-57857571D01*
X148263184Y-57926300D01*
X148545512Y-57940217D01*
X148825130Y-57898787D01*
X149091292Y-57803603D01*
X149216514Y-57736671D01*
X149288097Y-57492702D01*
X148475000Y-56679605D01*
X147661903Y-57492702D01*
X147011694Y-57492702D01*
X147089637Y-57414759D01*
X147223692Y-57214131D01*
X147238329Y-57241514D01*
X147482298Y-57313097D01*
X148295395Y-56500000D01*
X148654605Y-56500000D01*
X149467702Y-57313097D01*
X149711671Y-57241514D01*
X149832571Y-56986004D01*
X149901300Y-56711816D01*
X149915217Y-56429488D01*
X149873787Y-56149870D01*
X149778603Y-55883708D01*
X149711671Y-55758486D01*
X149467702Y-55686903D01*
X148654605Y-56500000D01*
X148295395Y-56500000D01*
X148281253Y-56485858D01*
X148460858Y-56306253D01*
X148475000Y-56320395D01*
X149288097Y-55507298D01*
X149216514Y-55263329D01*
X148961004Y-55142429D01*
X148686816Y-55073700D01*
X148659864Y-55072371D01*
X150118236Y-53614000D01*
X153144744Y-53614000D01*
X153168655Y-53658734D01*
G04 #@! TA.AperFunction,Conductor*
D25*
G36*
X153168655Y-53658734D02*
G01*
X153367037Y-53900463D01*
X153608765Y-54098845D01*
X153884551Y-54246255D01*
X154183796Y-54337030D01*
X154495000Y-54367681D01*
X154806203Y-54337030D01*
X155105448Y-54246255D01*
X155381234Y-54098845D01*
X155622963Y-53900463D01*
X155765000Y-53727391D01*
X155907037Y-53900463D01*
X156146000Y-54096576D01*
X156146001Y-60233297D01*
X156086426Y-60245147D01*
X155825273Y-60353320D01*
X155590241Y-60510363D01*
X155390363Y-60710241D01*
X155233320Y-60945273D01*
X155125147Y-61206426D01*
X155070000Y-61483665D01*
X155070000Y-61766335D01*
X155125147Y-62043574D01*
X155233320Y-62304727D01*
X155390363Y-62539759D01*
X155590241Y-62739637D01*
X155825273Y-62896680D01*
X156086426Y-63004853D01*
X156363665Y-63060000D01*
X156646335Y-63060000D01*
X156923574Y-63004853D01*
X157184727Y-62896680D01*
X157419759Y-62739637D01*
X157619637Y-62539759D01*
X157776680Y-62304727D01*
X157884853Y-62043574D01*
X157940000Y-61766335D01*
X157940000Y-61695512D01*
X162684783Y-61695512D01*
X162726213Y-61975130D01*
X162821397Y-62241292D01*
X162888329Y-62366514D01*
X163132298Y-62438097D01*
X163945395Y-61625000D01*
X163132298Y-60811903D01*
X162888329Y-60883486D01*
X162767429Y-61138996D01*
X162698700Y-61413184D01*
X162684783Y-61695512D01*
X157940000Y-61695512D01*
X157940000Y-61483665D01*
X157902813Y-61296713D01*
X157904941Y-61289698D01*
X157911136Y-61269276D01*
X157917326Y-61206426D01*
X157924000Y-61138667D01*
X157924000Y-61138661D01*
X157928300Y-61095001D01*
X157924000Y-61051341D01*
X157924000Y-60632298D01*
X163311903Y-60632298D01*
X164125000Y-61445395D01*
X164938097Y-60632298D01*
X164866514Y-60388329D01*
X164611004Y-60267429D01*
X164336816Y-60198700D01*
X164054488Y-60184783D01*
X163774870Y-60226213D01*
X163508708Y-60321397D01*
X163383486Y-60388329D01*
X163311903Y-60632298D01*
X157924000Y-60632298D01*
X157924000Y-54096575D01*
X158162963Y-53900463D01*
X158321816Y-53706901D01*
X158341908Y-53736972D01*
X158563028Y-53958092D01*
X158823037Y-54131824D01*
X159111943Y-54251493D01*
X159418645Y-54312500D01*
X159731355Y-54312500D01*
X160038057Y-54251493D01*
X160326963Y-54131824D01*
X160586972Y-53958092D01*
X160793914Y-53751150D01*
X163141670Y-56098906D01*
X163090000Y-56358665D01*
X163090000Y-56641335D01*
X163145147Y-56918574D01*
X163253320Y-57179727D01*
X163410363Y-57414759D01*
X163610241Y-57614637D01*
X163845273Y-57771680D01*
X164106426Y-57879853D01*
X164383665Y-57935000D01*
X164666335Y-57935000D01*
X164943574Y-57879853D01*
X164999466Y-57856702D01*
X167718760Y-60575996D01*
X167523574Y-60495147D01*
X167246335Y-60440000D01*
X166963665Y-60440000D01*
X166686426Y-60495147D01*
X166425273Y-60603320D01*
X166190241Y-60760363D01*
X165990363Y-60960241D01*
X165833320Y-61195273D01*
X165725147Y-61456426D01*
X165670000Y-61733665D01*
X165670000Y-62016335D01*
X165676044Y-62046720D01*
X165366540Y-62356225D01*
X165482571Y-62111004D01*
X165551300Y-61836816D01*
X165565217Y-61554488D01*
X165523787Y-61274870D01*
X165428603Y-61008708D01*
X165361671Y-60883486D01*
X165117702Y-60811903D01*
X164304605Y-61625000D01*
X164318748Y-61639143D01*
X164139143Y-61818748D01*
X164125000Y-61804605D01*
X163311903Y-62617702D01*
X163383486Y-62861671D01*
X163638996Y-62982571D01*
X163913184Y-63051300D01*
X164195512Y-63065217D01*
X164475130Y-63023787D01*
X164741292Y-62928603D01*
X164854869Y-62867895D01*
X163436765Y-64286000D01*
X160499130Y-64286000D01*
X160455470Y-64281700D01*
X160411810Y-64286000D01*
X160411804Y-64286000D01*
X160314395Y-64295594D01*
X160281195Y-64298864D01*
X160183792Y-64328411D01*
X160113620Y-64349697D01*
X159959180Y-64432247D01*
X159823812Y-64543341D01*
X159795977Y-64577259D01*
X158815950Y-65557286D01*
X158598941Y-65623115D01*
X158397422Y-65730829D01*
X158220789Y-65875788D01*
X158089306Y-66036000D01*
X154904260Y-66036000D01*
X154866680Y-65945273D01*
X154709637Y-65710241D01*
X154509759Y-65510363D01*
X154274727Y-65353320D01*
X154013574Y-65245147D01*
X153736335Y-65190000D01*
X153453665Y-65190000D01*
X153176426Y-65245147D01*
X152915273Y-65353320D01*
X152680241Y-65510363D01*
X152480363Y-65710241D01*
X152323320Y-65945273D01*
X152215147Y-66206426D01*
X152160000Y-66483665D01*
X152160000Y-66766335D01*
X152166044Y-66796720D01*
X147396578Y-71566187D01*
X147354853Y-71356426D01*
X147246680Y-71095273D01*
X147089637Y-70860241D01*
X146889759Y-70660363D01*
X146864000Y-70643151D01*
X146864000Y-67756849D01*
X146889759Y-67739637D01*
X147089637Y-67539759D01*
X147246680Y-67304727D01*
X147354853Y-67043574D01*
X147410000Y-66766335D01*
X147410000Y-66483665D01*
X147354853Y-66206426D01*
X147246680Y-65945273D01*
X147089637Y-65710241D01*
X146889759Y-65510363D01*
X146864000Y-65493151D01*
X146864000Y-63006849D01*
X146889759Y-62989637D01*
X147089637Y-62789759D01*
X147246680Y-62554727D01*
X147354853Y-62293574D01*
X147368684Y-62224039D01*
X152203096Y-62224039D01*
X152243754Y-62358087D01*
X152363963Y-62612420D01*
X152531481Y-62838414D01*
X152739869Y-63027385D01*
X152981119Y-63172070D01*
X153245960Y-63266909D01*
X153468000Y-63145624D01*
X153468000Y-62002000D01*
X153722000Y-62002000D01*
X153722000Y-63145624D01*
X153944040Y-63266909D01*
X154208881Y-63172070D01*
X154450131Y-63027385D01*
X154658519Y-62838414D01*
X154826037Y-62612420D01*
X154946246Y-62358087D01*
X154986904Y-62224039D01*
X154864915Y-62002000D01*
X153722000Y-62002000D01*
X153468000Y-62002000D01*
X152325085Y-62002000D01*
X152203096Y-62224039D01*
X147368684Y-62224039D01*
X147410000Y-62016335D01*
X147410000Y-61733665D01*
X147368685Y-61525961D01*
X152203096Y-61525961D01*
X152325085Y-61748000D01*
X153468000Y-61748000D01*
X153468000Y-60604376D01*
X153722000Y-60604376D01*
X153722000Y-61748000D01*
X154864915Y-61748000D01*
X154986904Y-61525961D01*
X154946246Y-61391913D01*
X154826037Y-61137580D01*
X154658519Y-60911586D01*
X154450131Y-60722615D01*
X154208881Y-60577930D01*
X153944040Y-60483091D01*
X153722000Y-60604376D01*
X153468000Y-60604376D01*
X153245960Y-60483091D01*
X152981119Y-60577930D01*
X152739869Y-60722615D01*
X152531481Y-60911586D01*
X152363963Y-61137580D01*
X152243754Y-61391913D01*
X152203096Y-61525961D01*
X147368685Y-61525961D01*
X147354853Y-61456426D01*
X147246680Y-61195273D01*
X147089637Y-60960241D01*
X146889759Y-60760363D01*
X146864000Y-60743151D01*
X146864000Y-57631849D01*
X146889759Y-57614637D01*
X147011694Y-57492702D01*
X147661903Y-57492702D01*
X147733486Y-57736671D01*
X147988996Y-57857571D01*
X148263184Y-57926300D01*
X148545512Y-57940217D01*
X148825130Y-57898787D01*
X149091292Y-57803603D01*
X149216514Y-57736671D01*
X149288097Y-57492702D01*
X148475000Y-56679605D01*
X147661903Y-57492702D01*
X147011694Y-57492702D01*
X147089637Y-57414759D01*
X147223692Y-57214131D01*
X147238329Y-57241514D01*
X147482298Y-57313097D01*
X148295395Y-56500000D01*
X148654605Y-56500000D01*
X149467702Y-57313097D01*
X149711671Y-57241514D01*
X149832571Y-56986004D01*
X149901300Y-56711816D01*
X149915217Y-56429488D01*
X149873787Y-56149870D01*
X149778603Y-55883708D01*
X149711671Y-55758486D01*
X149467702Y-55686903D01*
X148654605Y-56500000D01*
X148295395Y-56500000D01*
X148281253Y-56485858D01*
X148460858Y-56306253D01*
X148475000Y-56320395D01*
X149288097Y-55507298D01*
X149216514Y-55263329D01*
X148961004Y-55142429D01*
X148686816Y-55073700D01*
X148659864Y-55072371D01*
X150118236Y-53614000D01*
X153144744Y-53614000D01*
X153168655Y-53658734D01*
G37*
G04 #@! TD.AperFunction*
M02*
