G04 #@! TF.GenerationSoftware,KiCad,Pcbnew,(5.1.8)-1*
G04 #@! TF.CreationDate,2021-03-30T22:00:51-03:00*
G04 #@! TF.ProjectId,PIC18F4550,50494331-3846-4343-9535-302e6b696361,rev?*
G04 #@! TF.SameCoordinates,Original*
G04 #@! TF.FileFunction,Legend,Top*
G04 #@! TF.FilePolarity,Positive*
%FSLAX46Y46*%
G04 Gerber Fmt 4.6, Leading zero omitted, Abs format (unit mm)*
G04 Created by KiCad (PCBNEW (5.1.8)-1) date 2021-03-30 22:00:51*
%MOMM*%
%LPD*%
G01*
G04 APERTURE LIST*
%ADD10C,0.100000*%
%ADD11C,0.300000*%
%ADD12C,0.200000*%
%ADD13C,0.150000*%
%ADD14C,0.120000*%
G04 APERTURE END LIST*
D10*
X173709523Y-53060714D02*
X174090476Y-53060714D01*
X173900000Y-53251190D02*
X173900000Y-52870238D01*
X159179761Y-65753571D02*
X159155952Y-65777380D01*
X159084523Y-65801190D01*
X159036904Y-65801190D01*
X158965476Y-65777380D01*
X158917857Y-65729761D01*
X158894047Y-65682142D01*
X158870238Y-65586904D01*
X158870238Y-65515476D01*
X158894047Y-65420238D01*
X158917857Y-65372619D01*
X158965476Y-65325000D01*
X159036904Y-65301190D01*
X159084523Y-65301190D01*
X159155952Y-65325000D01*
X159179761Y-65348809D01*
X160385714Y-65539285D02*
X160457142Y-65563095D01*
X160480952Y-65586904D01*
X160504761Y-65634523D01*
X160504761Y-65705952D01*
X160480952Y-65753571D01*
X160457142Y-65777380D01*
X160409523Y-65801190D01*
X160219047Y-65801190D01*
X160219047Y-65301190D01*
X160385714Y-65301190D01*
X160433333Y-65325000D01*
X160457142Y-65348809D01*
X160480952Y-65396428D01*
X160480952Y-65444047D01*
X160457142Y-65491666D01*
X160433333Y-65515476D01*
X160385714Y-65539285D01*
X160219047Y-65539285D01*
X161517857Y-65539285D02*
X161684523Y-65539285D01*
X161755952Y-65801190D02*
X161517857Y-65801190D01*
X161517857Y-65301190D01*
X161755952Y-65301190D01*
X156594047Y-138523809D02*
X156617857Y-138500000D01*
X156665476Y-138476190D01*
X156784523Y-138476190D01*
X156832142Y-138500000D01*
X156855952Y-138523809D01*
X156879761Y-138571428D01*
X156879761Y-138619047D01*
X156855952Y-138690476D01*
X156570238Y-138976190D01*
X156879761Y-138976190D01*
X157189285Y-138476190D02*
X157236904Y-138476190D01*
X157284523Y-138500000D01*
X157308333Y-138523809D01*
X157332142Y-138571428D01*
X157355952Y-138666666D01*
X157355952Y-138785714D01*
X157332142Y-138880952D01*
X157308333Y-138928571D01*
X157284523Y-138952380D01*
X157236904Y-138976190D01*
X157189285Y-138976190D01*
X157141666Y-138952380D01*
X157117857Y-138928571D01*
X157094047Y-138880952D01*
X157070238Y-138785714D01*
X157070238Y-138666666D01*
X157094047Y-138571428D01*
X157117857Y-138523809D01*
X157141666Y-138500000D01*
X157189285Y-138476190D01*
X157570238Y-138976190D02*
X157570238Y-138476190D01*
X157736904Y-138833333D01*
X157903571Y-138476190D01*
X157903571Y-138976190D01*
X158141666Y-138976190D02*
X158141666Y-138476190D01*
X158141666Y-138714285D02*
X158427380Y-138714285D01*
X158427380Y-138976190D02*
X158427380Y-138476190D01*
X158617857Y-138642857D02*
X158879761Y-138642857D01*
X158617857Y-138976190D01*
X158879761Y-138976190D01*
D11*
X158846428Y-96596428D02*
X157775000Y-96596428D01*
X157560714Y-96525000D01*
X157417857Y-96382142D01*
X157346428Y-96167857D01*
X157346428Y-96025000D01*
X157346428Y-98025000D02*
X157346428Y-97310714D01*
X158846428Y-97310714D01*
X157489285Y-99382142D02*
X157417857Y-99310714D01*
X157346428Y-99096428D01*
X157346428Y-98953571D01*
X157417857Y-98739285D01*
X157560714Y-98596428D01*
X157703571Y-98525000D01*
X157989285Y-98453571D01*
X158203571Y-98453571D01*
X158489285Y-98525000D01*
X158632142Y-98596428D01*
X158775000Y-98739285D01*
X158846428Y-98953571D01*
X158846428Y-99096428D01*
X158775000Y-99310714D01*
X158703571Y-99382142D01*
X158846428Y-100453571D02*
X157775000Y-100453571D01*
X157560714Y-100382142D01*
X157417857Y-100239285D01*
X157346428Y-100025000D01*
X157346428Y-99882142D01*
X157346428Y-101882142D02*
X157346428Y-101167857D01*
X158846428Y-101167857D01*
X157489285Y-103239285D02*
X157417857Y-103167857D01*
X157346428Y-102953571D01*
X157346428Y-102810714D01*
X157417857Y-102596428D01*
X157560714Y-102453571D01*
X157703571Y-102382142D01*
X157989285Y-102310714D01*
X158203571Y-102310714D01*
X158489285Y-102382142D01*
X158632142Y-102453571D01*
X158775000Y-102596428D01*
X158846428Y-102810714D01*
X158846428Y-102953571D01*
X158775000Y-103167857D01*
X158703571Y-103239285D01*
X158846428Y-104310714D02*
X157775000Y-104310714D01*
X157560714Y-104239285D01*
X157417857Y-104096428D01*
X157346428Y-103882142D01*
X157346428Y-103739285D01*
X157346428Y-105739285D02*
X157346428Y-105025000D01*
X158846428Y-105025000D01*
X157489285Y-107096428D02*
X157417857Y-107025000D01*
X157346428Y-106810714D01*
X157346428Y-106667857D01*
X157417857Y-106453571D01*
X157560714Y-106310714D01*
X157703571Y-106239285D01*
X157989285Y-106167857D01*
X158203571Y-106167857D01*
X158489285Y-106239285D01*
X158632142Y-106310714D01*
X158775000Y-106453571D01*
X158846428Y-106667857D01*
X158846428Y-106810714D01*
X158775000Y-107025000D01*
X158703571Y-107096428D01*
X158846428Y-108167857D02*
X157775000Y-108167857D01*
X157560714Y-108096428D01*
X157417857Y-107953571D01*
X157346428Y-107739285D01*
X157346428Y-107596428D01*
X157346428Y-109596428D02*
X157346428Y-108882142D01*
X158846428Y-108882142D01*
X157489285Y-110953571D02*
X157417857Y-110882142D01*
X157346428Y-110667857D01*
X157346428Y-110525000D01*
X157417857Y-110310714D01*
X157560714Y-110167857D01*
X157703571Y-110096428D01*
X157989285Y-110025000D01*
X158203571Y-110025000D01*
X158489285Y-110096428D01*
X158632142Y-110167857D01*
X158775000Y-110310714D01*
X158846428Y-110525000D01*
X158846428Y-110667857D01*
X158775000Y-110882142D01*
X158703571Y-110953571D01*
D12*
X170892856Y-144407142D02*
X170845237Y-144454761D01*
X170702380Y-144502380D01*
X170607142Y-144502380D01*
X170464285Y-144454761D01*
X170369047Y-144359523D01*
X170321428Y-144264285D01*
X170273809Y-144073809D01*
X170273809Y-143930952D01*
X170321428Y-143740476D01*
X170369047Y-143645238D01*
X170464285Y-143550000D01*
X170607142Y-143502380D01*
X170702380Y-143502380D01*
X170845237Y-143550000D01*
X170892856Y-143597619D01*
X171892856Y-144502380D02*
X171559523Y-144026190D01*
X171321428Y-144502380D02*
X171321428Y-143502380D01*
X171702380Y-143502380D01*
X171797618Y-143550000D01*
X171845237Y-143597619D01*
X171892856Y-143692857D01*
X171892856Y-143835714D01*
X171845237Y-143930952D01*
X171797618Y-143978571D01*
X171702380Y-144026190D01*
X171321428Y-144026190D01*
X172321428Y-144502380D02*
X172321428Y-143502380D01*
X172749999Y-144454761D02*
X172892856Y-144502380D01*
X173130952Y-144502380D01*
X173226190Y-144454761D01*
X173273809Y-144407142D01*
X173321428Y-144311904D01*
X173321428Y-144216666D01*
X173273809Y-144121428D01*
X173226190Y-144073809D01*
X173130952Y-144026190D01*
X172940476Y-143978571D01*
X172845237Y-143930952D01*
X172797618Y-143883333D01*
X172749999Y-143788095D01*
X172749999Y-143692857D01*
X172797618Y-143597619D01*
X172845237Y-143550000D01*
X172940476Y-143502380D01*
X173178571Y-143502380D01*
X173321428Y-143550000D01*
X173607142Y-143502380D02*
X174178571Y-143502380D01*
X173892856Y-144502380D02*
X173892856Y-143502380D01*
X174702380Y-143502380D02*
X174892856Y-143502380D01*
X174988095Y-143550000D01*
X175083333Y-143645238D01*
X175130952Y-143835714D01*
X175130952Y-144169047D01*
X175083333Y-144359523D01*
X174988095Y-144454761D01*
X174892856Y-144502380D01*
X174702380Y-144502380D01*
X174607142Y-144454761D01*
X174511904Y-144359523D01*
X174464285Y-144169047D01*
X174464285Y-143835714D01*
X174511904Y-143645238D01*
X174607142Y-143550000D01*
X174702380Y-143502380D01*
X175892856Y-143978571D02*
X176035714Y-144026190D01*
X176083333Y-144073809D01*
X176130952Y-144169047D01*
X176130952Y-144311904D01*
X176083333Y-144407142D01*
X176035714Y-144454761D01*
X175940476Y-144502380D01*
X175559523Y-144502380D01*
X175559523Y-143502380D01*
X175892856Y-143502380D01*
X175988095Y-143550000D01*
X176035714Y-143597619D01*
X176083333Y-143692857D01*
X176083333Y-143788095D01*
X176035714Y-143883333D01*
X175988095Y-143930952D01*
X175892856Y-143978571D01*
X175559523Y-143978571D01*
X176511904Y-144216666D02*
X176988095Y-144216666D01*
X176416666Y-144502380D02*
X176749999Y-143502380D01*
X177083333Y-144502380D01*
X177892856Y-144502380D02*
X177416666Y-144502380D01*
X177416666Y-143502380D01*
X179559523Y-144407142D02*
X179511904Y-144454761D01*
X179369047Y-144502380D01*
X179273809Y-144502380D01*
X179130952Y-144454761D01*
X179035714Y-144359523D01*
X178988095Y-144264285D01*
X178940476Y-144073809D01*
X178940476Y-143930952D01*
X178988095Y-143740476D01*
X179035714Y-143645238D01*
X179130952Y-143550000D01*
X179273809Y-143502380D01*
X179369047Y-143502380D01*
X179511904Y-143550000D01*
X179559523Y-143597619D01*
X179988095Y-143502380D02*
X179988095Y-144311904D01*
X180035714Y-144407142D01*
X180083333Y-144454761D01*
X180178571Y-144502380D01*
X180369047Y-144502380D01*
X180464285Y-144454761D01*
X180511904Y-144407142D01*
X180559523Y-144311904D01*
X180559523Y-143502380D01*
X181035714Y-143978571D02*
X181369047Y-143978571D01*
X181511904Y-144502380D02*
X181035714Y-144502380D01*
X181035714Y-143502380D01*
X181511904Y-143502380D01*
X181797618Y-143502380D02*
X182130952Y-144502380D01*
X182464285Y-143502380D01*
X182749999Y-144216666D02*
X183226190Y-144216666D01*
X182654761Y-144502380D02*
X182988095Y-143502380D01*
X183321428Y-144502380D01*
X183607142Y-144454761D02*
X183749999Y-144502380D01*
X183988095Y-144502380D01*
X184083333Y-144454761D01*
X184130952Y-144407142D01*
X184178571Y-144311904D01*
X184178571Y-144216666D01*
X184130952Y-144121428D01*
X184083333Y-144073809D01*
X183988095Y-144026190D01*
X183797618Y-143978571D01*
X183702380Y-143930952D01*
X183654761Y-143883333D01*
X183607142Y-143788095D01*
X183607142Y-143692857D01*
X183654761Y-143597619D01*
X183702380Y-143550000D01*
X183797618Y-143502380D01*
X184035714Y-143502380D01*
X184178571Y-143550000D01*
X185845237Y-144502380D02*
X185369047Y-144502380D01*
X185369047Y-143502380D01*
X186130952Y-144216666D02*
X186607142Y-144216666D01*
X186035714Y-144502380D02*
X186369047Y-143502380D01*
X186702380Y-144502380D01*
X187559523Y-143550000D02*
X187464285Y-143502380D01*
X187321428Y-143502380D01*
X187178571Y-143550000D01*
X187083333Y-143645238D01*
X187035714Y-143740476D01*
X186988095Y-143930952D01*
X186988095Y-144073809D01*
X187035714Y-144264285D01*
X187083333Y-144359523D01*
X187178571Y-144454761D01*
X187321428Y-144502380D01*
X187416666Y-144502380D01*
X187559523Y-144454761D01*
X187607142Y-144407142D01*
X187607142Y-144073809D01*
X187416666Y-144073809D01*
X188226190Y-143502380D02*
X188416666Y-143502380D01*
X188511904Y-143550000D01*
X188607142Y-143645238D01*
X188654761Y-143835714D01*
X188654761Y-144169047D01*
X188607142Y-144359523D01*
X188511904Y-144454761D01*
X188416666Y-144502380D01*
X188226190Y-144502380D01*
X188130952Y-144454761D01*
X188035714Y-144359523D01*
X187988095Y-144169047D01*
X187988095Y-143835714D01*
X188035714Y-143645238D01*
X188130952Y-143550000D01*
X188226190Y-143502380D01*
X189035714Y-144454761D02*
X189178571Y-144502380D01*
X189416666Y-144502380D01*
X189511904Y-144454761D01*
X189559523Y-144407142D01*
X189607142Y-144311904D01*
X189607142Y-144216666D01*
X189559523Y-144121428D01*
X189511904Y-144073809D01*
X189416666Y-144026190D01*
X189226190Y-143978571D01*
X189130952Y-143930952D01*
X189083333Y-143883333D01*
X189035714Y-143788095D01*
X189035714Y-143692857D01*
X189083333Y-143597619D01*
X189130952Y-143550000D01*
X189226190Y-143502380D01*
X189464285Y-143502380D01*
X189607142Y-143550000D01*
D10*
X179892857Y-145322619D02*
X179940476Y-145275000D01*
X180035714Y-145227380D01*
X180273809Y-145227380D01*
X180369047Y-145275000D01*
X180416666Y-145322619D01*
X180464285Y-145417857D01*
X180464285Y-145513095D01*
X180416666Y-145655952D01*
X179845238Y-146227380D01*
X180464285Y-146227380D01*
X181035714Y-145655952D02*
X180940476Y-145608333D01*
X180892857Y-145560714D01*
X180845238Y-145465476D01*
X180845238Y-145417857D01*
X180892857Y-145322619D01*
X180940476Y-145275000D01*
X181035714Y-145227380D01*
X181226190Y-145227380D01*
X181321428Y-145275000D01*
X181369047Y-145322619D01*
X181416666Y-145417857D01*
X181416666Y-145465476D01*
X181369047Y-145560714D01*
X181321428Y-145608333D01*
X181226190Y-145655952D01*
X181035714Y-145655952D01*
X180940476Y-145703571D01*
X180892857Y-145751190D01*
X180845238Y-145846428D01*
X180845238Y-146036904D01*
X180892857Y-146132142D01*
X180940476Y-146179761D01*
X181035714Y-146227380D01*
X181226190Y-146227380D01*
X181321428Y-146179761D01*
X181369047Y-146132142D01*
X181416666Y-146036904D01*
X181416666Y-145846428D01*
X181369047Y-145751190D01*
X181321428Y-145703571D01*
X181226190Y-145655952D01*
X181845238Y-145846428D02*
X182607142Y-145846428D01*
X183273809Y-145227380D02*
X183369047Y-145227380D01*
X183464285Y-145275000D01*
X183511904Y-145322619D01*
X183559523Y-145417857D01*
X183607142Y-145608333D01*
X183607142Y-145846428D01*
X183559523Y-146036904D01*
X183511904Y-146132142D01*
X183464285Y-146179761D01*
X183369047Y-146227380D01*
X183273809Y-146227380D01*
X183178571Y-146179761D01*
X183130952Y-146132142D01*
X183083333Y-146036904D01*
X183035714Y-145846428D01*
X183035714Y-145608333D01*
X183083333Y-145417857D01*
X183130952Y-145322619D01*
X183178571Y-145275000D01*
X183273809Y-145227380D01*
X183940476Y-145227380D02*
X184559523Y-145227380D01*
X184226190Y-145608333D01*
X184369047Y-145608333D01*
X184464285Y-145655952D01*
X184511904Y-145703571D01*
X184559523Y-145798809D01*
X184559523Y-146036904D01*
X184511904Y-146132142D01*
X184464285Y-146179761D01*
X184369047Y-146227380D01*
X184083333Y-146227380D01*
X183988095Y-146179761D01*
X183940476Y-146132142D01*
X184988095Y-145846428D02*
X185750000Y-145846428D01*
X186178571Y-145322619D02*
X186226190Y-145275000D01*
X186321428Y-145227380D01*
X186559523Y-145227380D01*
X186654761Y-145275000D01*
X186702380Y-145322619D01*
X186750000Y-145417857D01*
X186750000Y-145513095D01*
X186702380Y-145655952D01*
X186130952Y-146227380D01*
X186750000Y-146227380D01*
X187369047Y-145227380D02*
X187464285Y-145227380D01*
X187559523Y-145275000D01*
X187607142Y-145322619D01*
X187654761Y-145417857D01*
X187702380Y-145608333D01*
X187702380Y-145846428D01*
X187654761Y-146036904D01*
X187607142Y-146132142D01*
X187559523Y-146179761D01*
X187464285Y-146227380D01*
X187369047Y-146227380D01*
X187273809Y-146179761D01*
X187226190Y-146132142D01*
X187178571Y-146036904D01*
X187130952Y-145846428D01*
X187130952Y-145608333D01*
X187178571Y-145417857D01*
X187226190Y-145322619D01*
X187273809Y-145275000D01*
X187369047Y-145227380D01*
X188083333Y-145322619D02*
X188130952Y-145275000D01*
X188226190Y-145227380D01*
X188464285Y-145227380D01*
X188559523Y-145275000D01*
X188607142Y-145322619D01*
X188654761Y-145417857D01*
X188654761Y-145513095D01*
X188607142Y-145655952D01*
X188035714Y-146227380D01*
X188654761Y-146227380D01*
X189607142Y-146227380D02*
X189035714Y-146227380D01*
X189321428Y-146227380D02*
X189321428Y-145227380D01*
X189226190Y-145370238D01*
X189130952Y-145465476D01*
X189035714Y-145513095D01*
D13*
X152990833Y-77652380D02*
X152990833Y-76652380D01*
X153371785Y-76652380D01*
X153467023Y-76700000D01*
X153514642Y-76747619D01*
X153562261Y-76842857D01*
X153562261Y-76985714D01*
X153514642Y-77080952D01*
X153467023Y-77128571D01*
X153371785Y-77176190D01*
X152990833Y-77176190D01*
X153990833Y-77652380D02*
X153990833Y-76652380D01*
X155038452Y-77557142D02*
X154990833Y-77604761D01*
X154847976Y-77652380D01*
X154752738Y-77652380D01*
X154609880Y-77604761D01*
X154514642Y-77509523D01*
X154467023Y-77414285D01*
X154419404Y-77223809D01*
X154419404Y-77080952D01*
X154467023Y-76890476D01*
X154514642Y-76795238D01*
X154609880Y-76700000D01*
X154752738Y-76652380D01*
X154847976Y-76652380D01*
X154990833Y-76700000D01*
X155038452Y-76747619D01*
X156752738Y-77652380D02*
X156181309Y-77652380D01*
X156467023Y-77652380D02*
X156467023Y-76652380D01*
X156371785Y-76795238D01*
X156276547Y-76890476D01*
X156181309Y-76938095D01*
X157324166Y-77080952D02*
X157228928Y-77033333D01*
X157181309Y-76985714D01*
X157133690Y-76890476D01*
X157133690Y-76842857D01*
X157181309Y-76747619D01*
X157228928Y-76700000D01*
X157324166Y-76652380D01*
X157514642Y-76652380D01*
X157609880Y-76700000D01*
X157657500Y-76747619D01*
X157705119Y-76842857D01*
X157705119Y-76890476D01*
X157657500Y-76985714D01*
X157609880Y-77033333D01*
X157514642Y-77080952D01*
X157324166Y-77080952D01*
X157228928Y-77128571D01*
X157181309Y-77176190D01*
X157133690Y-77271428D01*
X157133690Y-77461904D01*
X157181309Y-77557142D01*
X157228928Y-77604761D01*
X157324166Y-77652380D01*
X157514642Y-77652380D01*
X157609880Y-77604761D01*
X157657500Y-77557142D01*
X157705119Y-77461904D01*
X157705119Y-77271428D01*
X157657500Y-77176190D01*
X157609880Y-77128571D01*
X157514642Y-77080952D01*
X158467023Y-77128571D02*
X158133690Y-77128571D01*
X158133690Y-77652380D02*
X158133690Y-76652380D01*
X158609880Y-76652380D01*
X159419404Y-76985714D02*
X159419404Y-77652380D01*
X159181309Y-76604761D02*
X158943214Y-77319047D01*
X159562261Y-77319047D01*
X160419404Y-76652380D02*
X159943214Y-76652380D01*
X159895595Y-77128571D01*
X159943214Y-77080952D01*
X160038452Y-77033333D01*
X160276547Y-77033333D01*
X160371785Y-77080952D01*
X160419404Y-77128571D01*
X160467023Y-77223809D01*
X160467023Y-77461904D01*
X160419404Y-77557142D01*
X160371785Y-77604761D01*
X160276547Y-77652380D01*
X160038452Y-77652380D01*
X159943214Y-77604761D01*
X159895595Y-77557142D01*
X161371785Y-76652380D02*
X160895595Y-76652380D01*
X160847976Y-77128571D01*
X160895595Y-77080952D01*
X160990833Y-77033333D01*
X161228928Y-77033333D01*
X161324166Y-77080952D01*
X161371785Y-77128571D01*
X161419404Y-77223809D01*
X161419404Y-77461904D01*
X161371785Y-77557142D01*
X161324166Y-77604761D01*
X161228928Y-77652380D01*
X160990833Y-77652380D01*
X160895595Y-77604761D01*
X160847976Y-77557142D01*
X162038452Y-76652380D02*
X162133690Y-76652380D01*
X162228928Y-76700000D01*
X162276547Y-76747619D01*
X162324166Y-76842857D01*
X162371785Y-77033333D01*
X162371785Y-77271428D01*
X162324166Y-77461904D01*
X162276547Y-77557142D01*
X162228928Y-77604761D01*
X162133690Y-77652380D01*
X162038452Y-77652380D01*
X161943214Y-77604761D01*
X161895595Y-77557142D01*
X161847976Y-77461904D01*
X161800357Y-77271428D01*
X161800357Y-77033333D01*
X161847976Y-76842857D01*
X161895595Y-76747619D01*
X161943214Y-76700000D01*
X162038452Y-76652380D01*
X141274345Y-146002380D02*
X141274345Y-145002380D01*
X141655297Y-145002380D01*
X141750535Y-145050000D01*
X141798154Y-145097619D01*
X141845773Y-145192857D01*
X141845773Y-145335714D01*
X141798154Y-145430952D01*
X141750535Y-145478571D01*
X141655297Y-145526190D01*
X141274345Y-145526190D01*
X142274345Y-146002380D02*
X142274345Y-145002380D01*
X142845773Y-146002380D02*
X142417202Y-145430952D01*
X142845773Y-145002380D02*
X142274345Y-145573809D01*
X136670535Y-145478571D02*
X136337202Y-145478571D01*
X136337202Y-146002380D02*
X136337202Y-145002380D01*
X136813392Y-145002380D01*
X137146726Y-145716666D02*
X137622916Y-145716666D01*
X137051488Y-146002380D02*
X137384821Y-145002380D01*
X137718154Y-146002380D01*
X182607619Y-77152380D02*
X182274285Y-76676190D01*
X182036190Y-77152380D02*
X182036190Y-76152380D01*
X182417142Y-76152380D01*
X182512380Y-76200000D01*
X182560000Y-76247619D01*
X182607619Y-76342857D01*
X182607619Y-76485714D01*
X182560000Y-76580952D01*
X182512380Y-76628571D01*
X182417142Y-76676190D01*
X182036190Y-76676190D01*
X183036190Y-76628571D02*
X183369523Y-76628571D01*
X183512380Y-77152380D02*
X183036190Y-77152380D01*
X183036190Y-76152380D01*
X183512380Y-76152380D01*
X183893333Y-77104761D02*
X184036190Y-77152380D01*
X184274285Y-77152380D01*
X184369523Y-77104761D01*
X184417142Y-77057142D01*
X184464761Y-76961904D01*
X184464761Y-76866666D01*
X184417142Y-76771428D01*
X184369523Y-76723809D01*
X184274285Y-76676190D01*
X184083809Y-76628571D01*
X183988571Y-76580952D01*
X183940952Y-76533333D01*
X183893333Y-76438095D01*
X183893333Y-76342857D01*
X183940952Y-76247619D01*
X183988571Y-76200000D01*
X184083809Y-76152380D01*
X184321904Y-76152380D01*
X184464761Y-76200000D01*
X184893333Y-76628571D02*
X185226666Y-76628571D01*
X185369523Y-77152380D02*
X184893333Y-77152380D01*
X184893333Y-76152380D01*
X185369523Y-76152380D01*
X185655238Y-76152380D02*
X186226666Y-76152380D01*
X185940952Y-77152380D02*
X185940952Y-76152380D01*
X131104761Y-84559880D02*
X130771428Y-84083690D01*
X130533333Y-84559880D02*
X130533333Y-83559880D01*
X130914285Y-83559880D01*
X131009523Y-83607500D01*
X131057142Y-83655119D01*
X131104761Y-83750357D01*
X131104761Y-83893214D01*
X131057142Y-83988452D01*
X131009523Y-84036071D01*
X130914285Y-84083690D01*
X130533333Y-84083690D01*
X131485714Y-84274166D02*
X131961904Y-84274166D01*
X131390476Y-84559880D02*
X131723809Y-83559880D01*
X132057142Y-84559880D01*
X132580952Y-83559880D02*
X132676190Y-83559880D01*
X132771428Y-83607500D01*
X132819047Y-83655119D01*
X132866666Y-83750357D01*
X132914285Y-83940833D01*
X132914285Y-84178928D01*
X132866666Y-84369404D01*
X132819047Y-84464642D01*
X132771428Y-84512261D01*
X132676190Y-84559880D01*
X132580952Y-84559880D01*
X132485714Y-84512261D01*
X132438095Y-84464642D01*
X132390476Y-84369404D01*
X132342857Y-84178928D01*
X132342857Y-83940833D01*
X132390476Y-83750357D01*
X132438095Y-83655119D01*
X132485714Y-83607500D01*
X132580952Y-83559880D01*
X131104761Y-106184880D02*
X130771428Y-105708690D01*
X130533332Y-106184880D02*
X130533332Y-105184880D01*
X130914285Y-105184880D01*
X131009523Y-105232500D01*
X131057142Y-105280119D01*
X131104761Y-105375357D01*
X131104761Y-105518214D01*
X131057142Y-105613452D01*
X131009523Y-105661071D01*
X130914285Y-105708690D01*
X130533332Y-105708690D01*
X131533332Y-105661071D02*
X131866666Y-105661071D01*
X132009523Y-106184880D02*
X131533332Y-106184880D01*
X131533332Y-105184880D01*
X132009523Y-105184880D01*
X132628570Y-105184880D02*
X132723809Y-105184880D01*
X132819047Y-105232500D01*
X132866666Y-105280119D01*
X132914285Y-105375357D01*
X132961904Y-105565833D01*
X132961904Y-105803928D01*
X132914285Y-105994404D01*
X132866666Y-106089642D01*
X132819047Y-106137261D01*
X132723809Y-106184880D01*
X132628570Y-106184880D01*
X132533332Y-106137261D01*
X132485713Y-106089642D01*
X132438094Y-105994404D01*
X132390475Y-105803928D01*
X132390475Y-105565833D01*
X132438094Y-105375357D01*
X132485713Y-105280119D01*
X132533332Y-105232500D01*
X132628570Y-105184880D01*
X131104761Y-117609880D02*
X130771428Y-117133690D01*
X130533332Y-117609880D02*
X130533332Y-116609880D01*
X130914285Y-116609880D01*
X131009523Y-116657500D01*
X131057142Y-116705119D01*
X131104761Y-116800357D01*
X131104761Y-116943214D01*
X131057142Y-117038452D01*
X131009523Y-117086071D01*
X130914285Y-117133690D01*
X130533332Y-117133690D01*
X132104761Y-117514642D02*
X132057142Y-117562261D01*
X131914285Y-117609880D01*
X131819047Y-117609880D01*
X131676189Y-117562261D01*
X131580951Y-117467023D01*
X131533332Y-117371785D01*
X131485713Y-117181309D01*
X131485713Y-117038452D01*
X131533332Y-116847976D01*
X131580951Y-116752738D01*
X131676189Y-116657500D01*
X131819047Y-116609880D01*
X131914285Y-116609880D01*
X132057142Y-116657500D01*
X132104761Y-116705119D01*
X132723808Y-116609880D02*
X132819047Y-116609880D01*
X132914285Y-116657500D01*
X132961904Y-116705119D01*
X133009523Y-116800357D01*
X133057142Y-116990833D01*
X133057142Y-117228928D01*
X133009523Y-117419404D01*
X132961904Y-117514642D01*
X132914285Y-117562261D01*
X132819047Y-117609880D01*
X132723808Y-117609880D01*
X132628570Y-117562261D01*
X132580951Y-117514642D01*
X132533332Y-117419404D01*
X132485713Y-117228928D01*
X132485713Y-116990833D01*
X132533332Y-116800357D01*
X132580951Y-116705119D01*
X132628570Y-116657500D01*
X132723808Y-116609880D01*
X131104761Y-132849880D02*
X130771428Y-132373690D01*
X130533332Y-132849880D02*
X130533332Y-131849880D01*
X130914285Y-131849880D01*
X131009523Y-131897500D01*
X131057142Y-131945119D01*
X131104761Y-132040357D01*
X131104761Y-132183214D01*
X131057142Y-132278452D01*
X131009523Y-132326071D01*
X130914285Y-132373690D01*
X130533332Y-132373690D01*
X131438094Y-131849880D02*
X132104761Y-132849880D01*
X132104761Y-131849880D02*
X131438094Y-132849880D01*
X130390476Y-129309880D02*
X130961904Y-129309880D01*
X130676190Y-130309880D02*
X130676190Y-129309880D01*
X131200000Y-129309880D02*
X131866666Y-130309880D01*
X131866666Y-129309880D02*
X131200000Y-130309880D01*
D11*
X154371428Y-146628571D02*
X154371428Y-145128571D01*
X154942857Y-145128571D01*
X155085714Y-145200000D01*
X155157142Y-145271428D01*
X155228571Y-145414285D01*
X155228571Y-145628571D01*
X155157142Y-145771428D01*
X155085714Y-145842857D01*
X154942857Y-145914285D01*
X154371428Y-145914285D01*
X155871428Y-146628571D02*
X155871428Y-145128571D01*
X157442857Y-146485714D02*
X157371428Y-146557142D01*
X157157142Y-146628571D01*
X157014285Y-146628571D01*
X156800000Y-146557142D01*
X156657142Y-146414285D01*
X156585714Y-146271428D01*
X156514285Y-145985714D01*
X156514285Y-145771428D01*
X156585714Y-145485714D01*
X156657142Y-145342857D01*
X156800000Y-145200000D01*
X157014285Y-145128571D01*
X157157142Y-145128571D01*
X157371428Y-145200000D01*
X157442857Y-145271428D01*
X158085714Y-146628571D02*
X158085714Y-145128571D01*
X158942857Y-146628571D02*
X158300000Y-145771428D01*
X158942857Y-145128571D02*
X158085714Y-145985714D01*
X159585714Y-146628571D02*
X159585714Y-145128571D01*
X160085714Y-145128571D02*
X160942857Y-145128571D01*
X160514285Y-146628571D02*
X160514285Y-145128571D01*
X125953571Y-128646428D02*
X124453571Y-128646428D01*
X124453571Y-128075000D01*
X124525000Y-127932142D01*
X124596428Y-127860714D01*
X124739285Y-127789285D01*
X124953571Y-127789285D01*
X125096428Y-127860714D01*
X125167857Y-127932142D01*
X125239285Y-128075000D01*
X125239285Y-128646428D01*
X124453571Y-126860714D02*
X124453571Y-126575000D01*
X124525000Y-126432142D01*
X124667857Y-126289285D01*
X124953571Y-126217857D01*
X125453571Y-126217857D01*
X125739285Y-126289285D01*
X125882142Y-126432142D01*
X125953571Y-126575000D01*
X125953571Y-126860714D01*
X125882142Y-127003571D01*
X125739285Y-127146428D01*
X125453571Y-127217857D01*
X124953571Y-127217857D01*
X124667857Y-127146428D01*
X124525000Y-127003571D01*
X124453571Y-126860714D01*
X125953571Y-124717857D02*
X125239285Y-125217857D01*
X125953571Y-125575000D02*
X124453571Y-125575000D01*
X124453571Y-125003571D01*
X124525000Y-124860714D01*
X124596428Y-124789285D01*
X124739285Y-124717857D01*
X124953571Y-124717857D01*
X125096428Y-124789285D01*
X125167857Y-124860714D01*
X125239285Y-125003571D01*
X125239285Y-125575000D01*
X124453571Y-124289285D02*
X124453571Y-123432142D01*
X125953571Y-123860714D02*
X124453571Y-123860714D01*
X126096428Y-123289285D02*
X126096428Y-122146428D01*
X125810714Y-120932142D02*
X125882142Y-121003571D01*
X125953571Y-121217857D01*
X125953571Y-121360714D01*
X125882142Y-121575000D01*
X125739285Y-121717857D01*
X125596428Y-121789285D01*
X125310714Y-121860714D01*
X125096428Y-121860714D01*
X124810714Y-121789285D01*
X124667857Y-121717857D01*
X124525000Y-121575000D01*
X124453571Y-121360714D01*
X124453571Y-121217857D01*
X124525000Y-121003571D01*
X124596428Y-120932142D01*
X125953571Y-112075001D02*
X124453571Y-112075001D01*
X124453571Y-111503572D01*
X124525000Y-111360715D01*
X124596428Y-111289286D01*
X124739285Y-111217858D01*
X124953571Y-111217858D01*
X125096428Y-111289286D01*
X125167857Y-111360715D01*
X125239285Y-111503572D01*
X125239285Y-112075001D01*
X124453571Y-110289286D02*
X124453571Y-110003572D01*
X124525000Y-109860715D01*
X124667857Y-109717858D01*
X124953571Y-109646429D01*
X125453571Y-109646429D01*
X125739285Y-109717858D01*
X125882142Y-109860715D01*
X125953571Y-110003572D01*
X125953571Y-110289286D01*
X125882142Y-110432143D01*
X125739285Y-110575001D01*
X125453571Y-110646429D01*
X124953571Y-110646429D01*
X124667857Y-110575001D01*
X124525000Y-110432143D01*
X124453571Y-110289286D01*
X125953571Y-108146429D02*
X125239285Y-108646429D01*
X125953571Y-109003572D02*
X124453571Y-109003572D01*
X124453571Y-108432143D01*
X124525000Y-108289286D01*
X124596428Y-108217858D01*
X124739285Y-108146429D01*
X124953571Y-108146429D01*
X125096428Y-108217858D01*
X125167857Y-108289286D01*
X125239285Y-108432143D01*
X125239285Y-109003572D01*
X124453571Y-107717858D02*
X124453571Y-106860715D01*
X125953571Y-107289286D02*
X124453571Y-107289286D01*
X126096428Y-106717858D02*
X126096428Y-105575001D01*
X125167857Y-105217858D02*
X125167857Y-104717858D01*
X125953571Y-104503572D02*
X125953571Y-105217858D01*
X124453571Y-105217858D01*
X124453571Y-104503572D01*
X189371428Y-112078571D02*
X190871428Y-112078571D01*
X190871428Y-112650000D01*
X190800000Y-112792857D01*
X190728571Y-112864285D01*
X190585714Y-112935714D01*
X190371428Y-112935714D01*
X190228571Y-112864285D01*
X190157142Y-112792857D01*
X190085714Y-112650000D01*
X190085714Y-112078571D01*
X190871428Y-113864285D02*
X190871428Y-114150000D01*
X190800000Y-114292857D01*
X190657142Y-114435714D01*
X190371428Y-114507142D01*
X189871428Y-114507142D01*
X189585714Y-114435714D01*
X189442857Y-114292857D01*
X189371428Y-114150000D01*
X189371428Y-113864285D01*
X189442857Y-113721428D01*
X189585714Y-113578571D01*
X189871428Y-113507142D01*
X190371428Y-113507142D01*
X190657142Y-113578571D01*
X190800000Y-113721428D01*
X190871428Y-113864285D01*
X189371428Y-116007142D02*
X190085714Y-115507142D01*
X189371428Y-115150000D02*
X190871428Y-115150000D01*
X190871428Y-115721428D01*
X190800000Y-115864285D01*
X190728571Y-115935714D01*
X190585714Y-116007142D01*
X190371428Y-116007142D01*
X190228571Y-115935714D01*
X190157142Y-115864285D01*
X190085714Y-115721428D01*
X190085714Y-115150000D01*
X190871428Y-116435714D02*
X190871428Y-117292857D01*
X189371428Y-116864285D02*
X190871428Y-116864285D01*
X189228571Y-117435714D02*
X189228571Y-118578571D01*
X189371428Y-118935714D02*
X190871428Y-118935714D01*
X190871428Y-119292857D01*
X190800000Y-119507142D01*
X190657142Y-119650000D01*
X190514285Y-119721428D01*
X190228571Y-119792857D01*
X190014285Y-119792857D01*
X189728571Y-119721428D01*
X189585714Y-119650000D01*
X189442857Y-119507142D01*
X189371428Y-119292857D01*
X189371428Y-118935714D01*
X189371428Y-86778571D02*
X190871428Y-86778571D01*
X190871428Y-87350000D01*
X190800000Y-87492857D01*
X190728571Y-87564285D01*
X190585714Y-87635714D01*
X190371428Y-87635714D01*
X190228571Y-87564285D01*
X190157142Y-87492857D01*
X190085714Y-87350000D01*
X190085714Y-86778571D01*
X190871428Y-88564285D02*
X190871428Y-88850000D01*
X190800000Y-88992857D01*
X190657142Y-89135714D01*
X190371428Y-89207142D01*
X189871428Y-89207142D01*
X189585714Y-89135714D01*
X189442857Y-88992857D01*
X189371428Y-88850000D01*
X189371428Y-88564285D01*
X189442857Y-88421428D01*
X189585714Y-88278571D01*
X189871428Y-88207142D01*
X190371428Y-88207142D01*
X190657142Y-88278571D01*
X190800000Y-88421428D01*
X190871428Y-88564285D01*
X189371428Y-90707142D02*
X190085714Y-90207142D01*
X189371428Y-89850000D02*
X190871428Y-89850000D01*
X190871428Y-90421428D01*
X190800000Y-90564285D01*
X190728571Y-90635714D01*
X190585714Y-90707142D01*
X190371428Y-90707142D01*
X190228571Y-90635714D01*
X190157142Y-90564285D01*
X190085714Y-90421428D01*
X190085714Y-89850000D01*
X190871428Y-91135714D02*
X190871428Y-91992857D01*
X189371428Y-91564285D02*
X190871428Y-91564285D01*
X189228571Y-92135714D02*
X189228571Y-93278571D01*
X190157142Y-94135714D02*
X190085714Y-94350000D01*
X190014285Y-94421428D01*
X189871428Y-94492857D01*
X189657142Y-94492857D01*
X189514285Y-94421428D01*
X189442857Y-94350000D01*
X189371428Y-94207142D01*
X189371428Y-93635714D01*
X190871428Y-93635714D01*
X190871428Y-94135714D01*
X190800000Y-94278571D01*
X190728571Y-94350000D01*
X190585714Y-94421428D01*
X190442857Y-94421428D01*
X190300000Y-94350000D01*
X190228571Y-94278571D01*
X190157142Y-94135714D01*
X190157142Y-93635714D01*
D13*
X182783333Y-99859880D02*
X182450000Y-99383690D01*
X182211904Y-99859880D02*
X182211904Y-98859880D01*
X182592857Y-98859880D01*
X182688095Y-98907500D01*
X182735714Y-98955119D01*
X182783333Y-99050357D01*
X182783333Y-99193214D01*
X182735714Y-99288452D01*
X182688095Y-99336071D01*
X182592857Y-99383690D01*
X182211904Y-99383690D01*
X183545238Y-99336071D02*
X183688095Y-99383690D01*
X183735714Y-99431309D01*
X183783333Y-99526547D01*
X183783333Y-99669404D01*
X183735714Y-99764642D01*
X183688095Y-99812261D01*
X183592857Y-99859880D01*
X183211904Y-99859880D01*
X183211904Y-98859880D01*
X183545238Y-98859880D01*
X183640476Y-98907500D01*
X183688095Y-98955119D01*
X183735714Y-99050357D01*
X183735714Y-99145595D01*
X183688095Y-99240833D01*
X183640476Y-99288452D01*
X183545238Y-99336071D01*
X183211904Y-99336071D01*
X184402380Y-98859880D02*
X184497619Y-98859880D01*
X184592857Y-98907500D01*
X184640476Y-98955119D01*
X184688095Y-99050357D01*
X184735714Y-99240833D01*
X184735714Y-99478928D01*
X184688095Y-99669404D01*
X184640476Y-99764642D01*
X184592857Y-99812261D01*
X184497619Y-99859880D01*
X184402380Y-99859880D01*
X184307142Y-99812261D01*
X184259523Y-99764642D01*
X184211904Y-99669404D01*
X184164285Y-99478928D01*
X184164285Y-99240833D01*
X184211904Y-99050357D01*
X184259523Y-98955119D01*
X184307142Y-98907500D01*
X184402380Y-98859880D01*
X182783333Y-125159880D02*
X182450000Y-124683690D01*
X182211904Y-125159880D02*
X182211904Y-124159880D01*
X182592857Y-124159880D01*
X182688095Y-124207500D01*
X182735714Y-124255119D01*
X182783333Y-124350357D01*
X182783333Y-124493214D01*
X182735714Y-124588452D01*
X182688095Y-124636071D01*
X182592857Y-124683690D01*
X182211904Y-124683690D01*
X183211904Y-125159880D02*
X183211904Y-124159880D01*
X183450000Y-124159880D01*
X183592857Y-124207500D01*
X183688095Y-124302738D01*
X183735714Y-124397976D01*
X183783333Y-124588452D01*
X183783333Y-124731309D01*
X183735714Y-124921785D01*
X183688095Y-125017023D01*
X183592857Y-125112261D01*
X183450000Y-125159880D01*
X183211904Y-125159880D01*
X184402380Y-124159880D02*
X184497619Y-124159880D01*
X184592857Y-124207500D01*
X184640476Y-124255119D01*
X184688095Y-124350357D01*
X184735714Y-124540833D01*
X184735714Y-124778928D01*
X184688095Y-124969404D01*
X184640476Y-125064642D01*
X184592857Y-125112261D01*
X184497619Y-125159880D01*
X184402380Y-125159880D01*
X184307142Y-125112261D01*
X184259523Y-125064642D01*
X184211904Y-124969404D01*
X184164285Y-124778928D01*
X184164285Y-124540833D01*
X184211904Y-124350357D01*
X184259523Y-124255119D01*
X184307142Y-124207500D01*
X184402380Y-124159880D01*
X174391666Y-139052380D02*
X174725000Y-140052380D01*
X175058333Y-139052380D01*
X175963095Y-139957142D02*
X175915476Y-140004761D01*
X175772619Y-140052380D01*
X175677380Y-140052380D01*
X175534523Y-140004761D01*
X175439285Y-139909523D01*
X175391666Y-139814285D01*
X175344047Y-139623809D01*
X175344047Y-139480952D01*
X175391666Y-139290476D01*
X175439285Y-139195238D01*
X175534523Y-139100000D01*
X175677380Y-139052380D01*
X175772619Y-139052380D01*
X175915476Y-139100000D01*
X175963095Y-139147619D01*
X176963095Y-139957142D02*
X176915476Y-140004761D01*
X176772619Y-140052380D01*
X176677380Y-140052380D01*
X176534523Y-140004761D01*
X176439285Y-139909523D01*
X176391666Y-139814285D01*
X176344047Y-139623809D01*
X176344047Y-139480952D01*
X176391666Y-139290476D01*
X176439285Y-139195238D01*
X176534523Y-139100000D01*
X176677380Y-139052380D01*
X176772619Y-139052380D01*
X176915476Y-139100000D01*
X176963095Y-139147619D01*
X138763095Y-139100000D02*
X138667857Y-139052380D01*
X138525000Y-139052380D01*
X138382142Y-139100000D01*
X138286904Y-139195238D01*
X138239285Y-139290476D01*
X138191666Y-139480952D01*
X138191666Y-139623809D01*
X138239285Y-139814285D01*
X138286904Y-139909523D01*
X138382142Y-140004761D01*
X138525000Y-140052380D01*
X138620238Y-140052380D01*
X138763095Y-140004761D01*
X138810714Y-139957142D01*
X138810714Y-139623809D01*
X138620238Y-139623809D01*
X139239285Y-140052380D02*
X139239285Y-139052380D01*
X139810714Y-140052380D01*
X139810714Y-139052380D01*
X140286904Y-140052380D02*
X140286904Y-139052380D01*
X140525000Y-139052380D01*
X140667857Y-139100000D01*
X140763095Y-139195238D01*
X140810714Y-139290476D01*
X140858333Y-139480952D01*
X140858333Y-139623809D01*
X140810714Y-139814285D01*
X140763095Y-139909523D01*
X140667857Y-140004761D01*
X140525000Y-140052380D01*
X140286904Y-140052380D01*
D11*
X125953571Y-95489285D02*
X124453571Y-95489285D01*
X124453571Y-94917857D01*
X124525000Y-94775000D01*
X124596428Y-94703571D01*
X124739285Y-94632142D01*
X124953571Y-94632142D01*
X125096428Y-94703571D01*
X125167857Y-94775000D01*
X125239285Y-94917857D01*
X125239285Y-95489285D01*
X124453571Y-93703571D02*
X124453571Y-93417857D01*
X124525000Y-93275000D01*
X124667857Y-93132142D01*
X124953571Y-93060714D01*
X125453571Y-93060714D01*
X125739285Y-93132142D01*
X125882142Y-93275000D01*
X125953571Y-93417857D01*
X125953571Y-93703571D01*
X125882142Y-93846428D01*
X125739285Y-93989285D01*
X125453571Y-94060714D01*
X124953571Y-94060714D01*
X124667857Y-93989285D01*
X124525000Y-93846428D01*
X124453571Y-93703571D01*
X125953571Y-91560714D02*
X125239285Y-92060714D01*
X125953571Y-92417857D02*
X124453571Y-92417857D01*
X124453571Y-91846428D01*
X124525000Y-91703571D01*
X124596428Y-91632142D01*
X124739285Y-91560714D01*
X124953571Y-91560714D01*
X125096428Y-91632142D01*
X125167857Y-91703571D01*
X125239285Y-91846428D01*
X125239285Y-92417857D01*
X124453571Y-91132142D02*
X124453571Y-90275000D01*
X125953571Y-90703571D02*
X124453571Y-90703571D01*
X126096428Y-90132142D02*
X126096428Y-88989285D01*
X125525000Y-88703571D02*
X125525000Y-87989285D01*
X125953571Y-88846428D02*
X124453571Y-88346428D01*
X125953571Y-87846428D01*
D14*
X170060000Y-53030000D02*
X170060000Y-56120000D01*
X175120000Y-54575000D02*
G75*
G03*
X175120000Y-54575000I-2500000J0D01*
G01*
X175610000Y-54574538D02*
G75*
G02*
X170060000Y-56119830I-2990000J-462D01*
G01*
X175610000Y-54575462D02*
G75*
G03*
X170060000Y-53030170I-2990000J462D01*
G01*
X174185000Y-62915000D02*
X174185000Y-63245000D01*
X174185000Y-63245000D02*
X167645000Y-63245000D01*
X167645000Y-63245000D02*
X167645000Y-62915000D01*
X174185000Y-60835000D02*
X174185000Y-60505000D01*
X174185000Y-60505000D02*
X167645000Y-60505000D01*
X167645000Y-60505000D02*
X167645000Y-60835000D01*
X156677500Y-80345000D02*
X151217500Y-80345000D01*
X151217500Y-80345000D02*
X151217500Y-131265000D01*
X151217500Y-131265000D02*
X164137500Y-131265000D01*
X164137500Y-131265000D02*
X164137500Y-80345000D01*
X164137500Y-80345000D02*
X158677500Y-80345000D01*
X158677500Y-80345000D02*
G75*
G02*
X156677500Y-80345000I-1000000J0D01*
G01*
X145895000Y-130675000D02*
G75*
G03*
X145895000Y-130675000I-3270000J0D01*
G01*
X142625000Y-127445000D02*
X142625000Y-133905000D01*
X142665000Y-127445000D02*
X142665000Y-133905000D01*
X142705000Y-127445000D02*
X142705000Y-133905000D01*
X142745000Y-127447000D02*
X142745000Y-133903000D01*
X142785000Y-127448000D02*
X142785000Y-133902000D01*
X142825000Y-127451000D02*
X142825000Y-133899000D01*
X142865000Y-127453000D02*
X142865000Y-129635000D01*
X142865000Y-131715000D02*
X142865000Y-133897000D01*
X142905000Y-127457000D02*
X142905000Y-129635000D01*
X142905000Y-131715000D02*
X142905000Y-133893000D01*
X142945000Y-127460000D02*
X142945000Y-129635000D01*
X142945000Y-131715000D02*
X142945000Y-133890000D01*
X142985000Y-127464000D02*
X142985000Y-129635000D01*
X142985000Y-131715000D02*
X142985000Y-133886000D01*
X143025000Y-127469000D02*
X143025000Y-129635000D01*
X143025000Y-131715000D02*
X143025000Y-133881000D01*
X143065000Y-127474000D02*
X143065000Y-129635000D01*
X143065000Y-131715000D02*
X143065000Y-133876000D01*
X143105000Y-127480000D02*
X143105000Y-129635000D01*
X143105000Y-131715000D02*
X143105000Y-133870000D01*
X143145000Y-127486000D02*
X143145000Y-129635000D01*
X143145000Y-131715000D02*
X143145000Y-133864000D01*
X143185000Y-127493000D02*
X143185000Y-129635000D01*
X143185000Y-131715000D02*
X143185000Y-133857000D01*
X143225000Y-127500000D02*
X143225000Y-129635000D01*
X143225000Y-131715000D02*
X143225000Y-133850000D01*
X143265000Y-127508000D02*
X143265000Y-129635000D01*
X143265000Y-131715000D02*
X143265000Y-133842000D01*
X143305000Y-127516000D02*
X143305000Y-129635000D01*
X143305000Y-131715000D02*
X143305000Y-133834000D01*
X143346000Y-127525000D02*
X143346000Y-129635000D01*
X143346000Y-131715000D02*
X143346000Y-133825000D01*
X143386000Y-127534000D02*
X143386000Y-129635000D01*
X143386000Y-131715000D02*
X143386000Y-133816000D01*
X143426000Y-127544000D02*
X143426000Y-129635000D01*
X143426000Y-131715000D02*
X143426000Y-133806000D01*
X143466000Y-127554000D02*
X143466000Y-129635000D01*
X143466000Y-131715000D02*
X143466000Y-133796000D01*
X143506000Y-127565000D02*
X143506000Y-129635000D01*
X143506000Y-131715000D02*
X143506000Y-133785000D01*
X143546000Y-127577000D02*
X143546000Y-129635000D01*
X143546000Y-131715000D02*
X143546000Y-133773000D01*
X143586000Y-127589000D02*
X143586000Y-129635000D01*
X143586000Y-131715000D02*
X143586000Y-133761000D01*
X143626000Y-127601000D02*
X143626000Y-129635000D01*
X143626000Y-131715000D02*
X143626000Y-133749000D01*
X143666000Y-127614000D02*
X143666000Y-129635000D01*
X143666000Y-131715000D02*
X143666000Y-133736000D01*
X143706000Y-127628000D02*
X143706000Y-129635000D01*
X143706000Y-131715000D02*
X143706000Y-133722000D01*
X143746000Y-127642000D02*
X143746000Y-129635000D01*
X143746000Y-131715000D02*
X143746000Y-133708000D01*
X143786000Y-127657000D02*
X143786000Y-129635000D01*
X143786000Y-131715000D02*
X143786000Y-133693000D01*
X143826000Y-127673000D02*
X143826000Y-129635000D01*
X143826000Y-131715000D02*
X143826000Y-133677000D01*
X143866000Y-127689000D02*
X143866000Y-129635000D01*
X143866000Y-131715000D02*
X143866000Y-133661000D01*
X143906000Y-127705000D02*
X143906000Y-129635000D01*
X143906000Y-131715000D02*
X143906000Y-133645000D01*
X143946000Y-127723000D02*
X143946000Y-129635000D01*
X143946000Y-131715000D02*
X143946000Y-133627000D01*
X143986000Y-127741000D02*
X143986000Y-129635000D01*
X143986000Y-131715000D02*
X143986000Y-133609000D01*
X144026000Y-127759000D02*
X144026000Y-129635000D01*
X144026000Y-131715000D02*
X144026000Y-133591000D01*
X144066000Y-127779000D02*
X144066000Y-129635000D01*
X144066000Y-131715000D02*
X144066000Y-133571000D01*
X144106000Y-127799000D02*
X144106000Y-129635000D01*
X144106000Y-131715000D02*
X144106000Y-133551000D01*
X144146000Y-127819000D02*
X144146000Y-129635000D01*
X144146000Y-131715000D02*
X144146000Y-133531000D01*
X144186000Y-127841000D02*
X144186000Y-129635000D01*
X144186000Y-131715000D02*
X144186000Y-133509000D01*
X144226000Y-127863000D02*
X144226000Y-129635000D01*
X144226000Y-131715000D02*
X144226000Y-133487000D01*
X144266000Y-127885000D02*
X144266000Y-129635000D01*
X144266000Y-131715000D02*
X144266000Y-133465000D01*
X144306000Y-127909000D02*
X144306000Y-129635000D01*
X144306000Y-131715000D02*
X144306000Y-133441000D01*
X144346000Y-127933000D02*
X144346000Y-129635000D01*
X144346000Y-131715000D02*
X144346000Y-133417000D01*
X144386000Y-127959000D02*
X144386000Y-129635000D01*
X144386000Y-131715000D02*
X144386000Y-133391000D01*
X144426000Y-127985000D02*
X144426000Y-129635000D01*
X144426000Y-131715000D02*
X144426000Y-133365000D01*
X144466000Y-128011000D02*
X144466000Y-129635000D01*
X144466000Y-131715000D02*
X144466000Y-133339000D01*
X144506000Y-128039000D02*
X144506000Y-129635000D01*
X144506000Y-131715000D02*
X144506000Y-133311000D01*
X144546000Y-128068000D02*
X144546000Y-129635000D01*
X144546000Y-131715000D02*
X144546000Y-133282000D01*
X144586000Y-128097000D02*
X144586000Y-129635000D01*
X144586000Y-131715000D02*
X144586000Y-133253000D01*
X144626000Y-128127000D02*
X144626000Y-129635000D01*
X144626000Y-131715000D02*
X144626000Y-133223000D01*
X144666000Y-128159000D02*
X144666000Y-129635000D01*
X144666000Y-131715000D02*
X144666000Y-133191000D01*
X144706000Y-128191000D02*
X144706000Y-129635000D01*
X144706000Y-131715000D02*
X144706000Y-133159000D01*
X144746000Y-128225000D02*
X144746000Y-129635000D01*
X144746000Y-131715000D02*
X144746000Y-133125000D01*
X144786000Y-128259000D02*
X144786000Y-129635000D01*
X144786000Y-131715000D02*
X144786000Y-133091000D01*
X144826000Y-128295000D02*
X144826000Y-129635000D01*
X144826000Y-131715000D02*
X144826000Y-133055000D01*
X144866000Y-128332000D02*
X144866000Y-129635000D01*
X144866000Y-131715000D02*
X144866000Y-133018000D01*
X144906000Y-128370000D02*
X144906000Y-129635000D01*
X144906000Y-131715000D02*
X144906000Y-132980000D01*
X144946000Y-128410000D02*
X144946000Y-132940000D01*
X144986000Y-128451000D02*
X144986000Y-132899000D01*
X145026000Y-128493000D02*
X145026000Y-132857000D01*
X145066000Y-128538000D02*
X145066000Y-132812000D01*
X145106000Y-128583000D02*
X145106000Y-132767000D01*
X145146000Y-128631000D02*
X145146000Y-132719000D01*
X145186000Y-128680000D02*
X145186000Y-132670000D01*
X145226000Y-128731000D02*
X145226000Y-132619000D01*
X145266000Y-128785000D02*
X145266000Y-132565000D01*
X145306000Y-128841000D02*
X145306000Y-132509000D01*
X145346000Y-128899000D02*
X145346000Y-132451000D01*
X145386000Y-128961000D02*
X145386000Y-132389000D01*
X145426000Y-129025000D02*
X145426000Y-132325000D01*
X145466000Y-129094000D02*
X145466000Y-132256000D01*
X145506000Y-129166000D02*
X145506000Y-132184000D01*
X145546000Y-129243000D02*
X145546000Y-132107000D01*
X145586000Y-129325000D02*
X145586000Y-132025000D01*
X145626000Y-129413000D02*
X145626000Y-131937000D01*
X145666000Y-129510000D02*
X145666000Y-131840000D01*
X145706000Y-129616000D02*
X145706000Y-131734000D01*
X145746000Y-129735000D02*
X145746000Y-131615000D01*
X145786000Y-129873000D02*
X145786000Y-131477000D01*
X145826000Y-130042000D02*
X145826000Y-131308000D01*
X145866000Y-130273000D02*
X145866000Y-131077000D01*
X139124759Y-128836000D02*
X139754759Y-128836000D01*
X139439759Y-128521000D02*
X139439759Y-129151000D01*
X140245000Y-73625000D02*
G75*
G03*
X140245000Y-73625000I-5120000J0D01*
G01*
X135125000Y-68545000D02*
X135125000Y-78705000D01*
X135165000Y-68545000D02*
X135165000Y-78705000D01*
X135205000Y-68545000D02*
X135205000Y-78705000D01*
X135245000Y-68546000D02*
X135245000Y-78704000D01*
X135285000Y-68547000D02*
X135285000Y-78703000D01*
X135325000Y-68548000D02*
X135325000Y-78702000D01*
X135365000Y-68550000D02*
X135365000Y-72585000D01*
X135365000Y-74665000D02*
X135365000Y-78700000D01*
X135405000Y-68552000D02*
X135405000Y-72585000D01*
X135405000Y-74665000D02*
X135405000Y-78698000D01*
X135445000Y-68555000D02*
X135445000Y-72585000D01*
X135445000Y-74665000D02*
X135445000Y-78695000D01*
X135485000Y-68557000D02*
X135485000Y-72585000D01*
X135485000Y-74665000D02*
X135485000Y-78693000D01*
X135525000Y-68560000D02*
X135525000Y-72585000D01*
X135525000Y-74665000D02*
X135525000Y-78690000D01*
X135565000Y-68563000D02*
X135565000Y-72585000D01*
X135565000Y-74665000D02*
X135565000Y-78687000D01*
X135605000Y-68567000D02*
X135605000Y-72585000D01*
X135605000Y-74665000D02*
X135605000Y-78683000D01*
X135645000Y-68571000D02*
X135645000Y-72585000D01*
X135645000Y-74665000D02*
X135645000Y-78679000D01*
X135685000Y-68575000D02*
X135685000Y-72585000D01*
X135685000Y-74665000D02*
X135685000Y-78675000D01*
X135725000Y-68580000D02*
X135725000Y-72585000D01*
X135725000Y-74665000D02*
X135725000Y-78670000D01*
X135765000Y-68585000D02*
X135765000Y-72585000D01*
X135765000Y-74665000D02*
X135765000Y-78665000D01*
X135805000Y-68590000D02*
X135805000Y-72585000D01*
X135805000Y-74665000D02*
X135805000Y-78660000D01*
X135846000Y-68595000D02*
X135846000Y-72585000D01*
X135846000Y-74665000D02*
X135846000Y-78655000D01*
X135886000Y-68601000D02*
X135886000Y-72585000D01*
X135886000Y-74665000D02*
X135886000Y-78649000D01*
X135926000Y-68607000D02*
X135926000Y-72585000D01*
X135926000Y-74665000D02*
X135926000Y-78643000D01*
X135966000Y-68614000D02*
X135966000Y-72585000D01*
X135966000Y-74665000D02*
X135966000Y-78636000D01*
X136006000Y-68621000D02*
X136006000Y-72585000D01*
X136006000Y-74665000D02*
X136006000Y-78629000D01*
X136046000Y-68628000D02*
X136046000Y-72585000D01*
X136046000Y-74665000D02*
X136046000Y-78622000D01*
X136086000Y-68635000D02*
X136086000Y-72585000D01*
X136086000Y-74665000D02*
X136086000Y-78615000D01*
X136126000Y-68643000D02*
X136126000Y-72585000D01*
X136126000Y-74665000D02*
X136126000Y-78607000D01*
X136166000Y-68651000D02*
X136166000Y-72585000D01*
X136166000Y-74665000D02*
X136166000Y-78599000D01*
X136206000Y-68660000D02*
X136206000Y-72585000D01*
X136206000Y-74665000D02*
X136206000Y-78590000D01*
X136246000Y-68669000D02*
X136246000Y-72585000D01*
X136246000Y-74665000D02*
X136246000Y-78581000D01*
X136286000Y-68678000D02*
X136286000Y-72585000D01*
X136286000Y-74665000D02*
X136286000Y-78572000D01*
X136326000Y-68687000D02*
X136326000Y-72585000D01*
X136326000Y-74665000D02*
X136326000Y-78563000D01*
X136366000Y-68697000D02*
X136366000Y-72585000D01*
X136366000Y-74665000D02*
X136366000Y-78553000D01*
X136406000Y-68707000D02*
X136406000Y-72585000D01*
X136406000Y-74665000D02*
X136406000Y-78543000D01*
X136446000Y-68718000D02*
X136446000Y-72585000D01*
X136446000Y-74665000D02*
X136446000Y-78532000D01*
X136486000Y-68728000D02*
X136486000Y-72585000D01*
X136486000Y-74665000D02*
X136486000Y-78522000D01*
X136526000Y-68740000D02*
X136526000Y-72585000D01*
X136526000Y-74665000D02*
X136526000Y-78510000D01*
X136566000Y-68751000D02*
X136566000Y-72585000D01*
X136566000Y-74665000D02*
X136566000Y-78499000D01*
X136606000Y-68763000D02*
X136606000Y-72585000D01*
X136606000Y-74665000D02*
X136606000Y-78487000D01*
X136646000Y-68775000D02*
X136646000Y-72585000D01*
X136646000Y-74665000D02*
X136646000Y-78475000D01*
X136686000Y-68788000D02*
X136686000Y-72585000D01*
X136686000Y-74665000D02*
X136686000Y-78462000D01*
X136726000Y-68801000D02*
X136726000Y-72585000D01*
X136726000Y-74665000D02*
X136726000Y-78449000D01*
X136766000Y-68814000D02*
X136766000Y-72585000D01*
X136766000Y-74665000D02*
X136766000Y-78436000D01*
X136806000Y-68828000D02*
X136806000Y-72585000D01*
X136806000Y-74665000D02*
X136806000Y-78422000D01*
X136846000Y-68842000D02*
X136846000Y-72585000D01*
X136846000Y-74665000D02*
X136846000Y-78408000D01*
X136886000Y-68857000D02*
X136886000Y-72585000D01*
X136886000Y-74665000D02*
X136886000Y-78393000D01*
X136926000Y-68871000D02*
X136926000Y-72585000D01*
X136926000Y-74665000D02*
X136926000Y-78379000D01*
X136966000Y-68887000D02*
X136966000Y-72585000D01*
X136966000Y-74665000D02*
X136966000Y-78363000D01*
X137006000Y-68902000D02*
X137006000Y-72585000D01*
X137006000Y-74665000D02*
X137006000Y-78348000D01*
X137046000Y-68918000D02*
X137046000Y-72585000D01*
X137046000Y-74665000D02*
X137046000Y-78332000D01*
X137086000Y-68935000D02*
X137086000Y-72585000D01*
X137086000Y-74665000D02*
X137086000Y-78315000D01*
X137126000Y-68951000D02*
X137126000Y-72585000D01*
X137126000Y-74665000D02*
X137126000Y-78299000D01*
X137166000Y-68968000D02*
X137166000Y-72585000D01*
X137166000Y-74665000D02*
X137166000Y-78282000D01*
X137206000Y-68986000D02*
X137206000Y-72585000D01*
X137206000Y-74665000D02*
X137206000Y-78264000D01*
X137246000Y-69004000D02*
X137246000Y-72585000D01*
X137246000Y-74665000D02*
X137246000Y-78246000D01*
X137286000Y-69022000D02*
X137286000Y-72585000D01*
X137286000Y-74665000D02*
X137286000Y-78228000D01*
X137326000Y-69041000D02*
X137326000Y-72585000D01*
X137326000Y-74665000D02*
X137326000Y-78209000D01*
X137366000Y-69061000D02*
X137366000Y-72585000D01*
X137366000Y-74665000D02*
X137366000Y-78189000D01*
X137406000Y-69080000D02*
X137406000Y-72585000D01*
X137406000Y-74665000D02*
X137406000Y-78170000D01*
X137446000Y-69100000D02*
X137446000Y-78150000D01*
X137486000Y-69121000D02*
X137486000Y-78129000D01*
X137526000Y-69142000D02*
X137526000Y-78108000D01*
X137566000Y-69163000D02*
X137566000Y-78087000D01*
X137606000Y-69185000D02*
X137606000Y-78065000D01*
X137646000Y-69208000D02*
X137646000Y-78042000D01*
X137686000Y-69230000D02*
X137686000Y-78020000D01*
X137726000Y-69254000D02*
X137726000Y-77996000D01*
X137766000Y-69278000D02*
X137766000Y-77972000D01*
X137806000Y-69302000D02*
X137806000Y-77948000D01*
X137846000Y-69327000D02*
X137846000Y-77923000D01*
X137886000Y-69352000D02*
X137886000Y-77898000D01*
X137926000Y-69378000D02*
X137926000Y-77872000D01*
X137966000Y-69404000D02*
X137966000Y-77846000D01*
X138006000Y-69431000D02*
X138006000Y-77819000D01*
X138046000Y-69459000D02*
X138046000Y-77791000D01*
X138086000Y-69487000D02*
X138086000Y-77763000D01*
X138126000Y-69515000D02*
X138126000Y-77735000D01*
X138166000Y-69545000D02*
X138166000Y-77705000D01*
X138206000Y-69575000D02*
X138206000Y-77675000D01*
X138246000Y-69605000D02*
X138246000Y-77645000D01*
X138286000Y-69636000D02*
X138286000Y-77614000D01*
X138326000Y-69668000D02*
X138326000Y-77582000D01*
X138366000Y-69700000D02*
X138366000Y-77550000D01*
X138406000Y-69733000D02*
X138406000Y-77517000D01*
X138446000Y-69767000D02*
X138446000Y-77483000D01*
X138486000Y-69801000D02*
X138486000Y-77449000D01*
X138526000Y-69836000D02*
X138526000Y-77414000D01*
X138566000Y-69872000D02*
X138566000Y-77378000D01*
X138606000Y-69909000D02*
X138606000Y-77341000D01*
X138646000Y-69946000D02*
X138646000Y-77304000D01*
X138686000Y-69985000D02*
X138686000Y-77265000D01*
X138726000Y-70024000D02*
X138726000Y-77226000D01*
X138766000Y-70064000D02*
X138766000Y-77186000D01*
X138806000Y-70105000D02*
X138806000Y-77145000D01*
X138846000Y-70147000D02*
X138846000Y-77103000D01*
X138886000Y-70189000D02*
X138886000Y-77061000D01*
X138926000Y-70233000D02*
X138926000Y-77017000D01*
X138966000Y-70278000D02*
X138966000Y-76972000D01*
X139006000Y-70324000D02*
X139006000Y-76926000D01*
X139046000Y-70371000D02*
X139046000Y-76879000D01*
X139086000Y-70419000D02*
X139086000Y-76831000D01*
X139126000Y-70469000D02*
X139126000Y-76781000D01*
X139166000Y-70519000D02*
X139166000Y-76731000D01*
X139206000Y-70571000D02*
X139206000Y-76679000D01*
X139246000Y-70625000D02*
X139246000Y-76625000D01*
X139286000Y-70680000D02*
X139286000Y-76570000D01*
X139326000Y-70736000D02*
X139326000Y-76514000D01*
X139366000Y-70795000D02*
X139366000Y-76455000D01*
X139406000Y-70855000D02*
X139406000Y-76395000D01*
X139446000Y-70916000D02*
X139446000Y-76334000D01*
X139486000Y-70980000D02*
X139486000Y-76270000D01*
X139526000Y-71046000D02*
X139526000Y-76204000D01*
X139566000Y-71115000D02*
X139566000Y-76135000D01*
X139606000Y-71186000D02*
X139606000Y-76064000D01*
X139646000Y-71260000D02*
X139646000Y-75990000D01*
X139686000Y-71336000D02*
X139686000Y-75914000D01*
X139726000Y-71416000D02*
X139726000Y-75834000D01*
X139766000Y-71500000D02*
X139766000Y-75750000D01*
X139806000Y-71588000D02*
X139806000Y-75662000D01*
X139846000Y-71681000D02*
X139846000Y-75569000D01*
X139886000Y-71779000D02*
X139886000Y-75471000D01*
X139926000Y-71883000D02*
X139926000Y-75367000D01*
X139966000Y-71995000D02*
X139966000Y-75255000D01*
X140006000Y-72115000D02*
X140006000Y-75135000D01*
X140046000Y-72247000D02*
X140046000Y-75003000D01*
X140086000Y-72395000D02*
X140086000Y-74855000D01*
X140126000Y-72563000D02*
X140126000Y-74687000D01*
X140166000Y-72763000D02*
X140166000Y-74487000D01*
X140206000Y-73026000D02*
X140206000Y-74224000D01*
X129645354Y-70750000D02*
X130645354Y-70750000D01*
X130145354Y-70250000D02*
X130145354Y-71250000D01*
X150345000Y-138395000D02*
X146305000Y-138395000D01*
X150345000Y-135555000D02*
X146305000Y-135555000D01*
X150345000Y-138395000D02*
X150345000Y-137770000D01*
X150345000Y-136180000D02*
X150345000Y-135555000D01*
X146305000Y-138395000D02*
X146305000Y-137770000D01*
X146305000Y-136180000D02*
X146305000Y-135555000D01*
X169095000Y-137770000D02*
X169095000Y-138395000D01*
X169095000Y-135555000D02*
X169095000Y-136180000D01*
X165055000Y-137770000D02*
X165055000Y-138395000D01*
X165055000Y-135555000D02*
X165055000Y-136180000D01*
X165055000Y-138395000D02*
X169095000Y-138395000D01*
X165055000Y-135555000D02*
X169095000Y-135555000D01*
X145205000Y-55080000D02*
X149245000Y-55080000D01*
X145205000Y-57920000D02*
X149245000Y-57920000D01*
X145205000Y-55080000D02*
X145205000Y-55705000D01*
X145205000Y-57295000D02*
X145205000Y-57920000D01*
X149245000Y-55080000D02*
X149245000Y-55705000D01*
X149245000Y-57295000D02*
X149245000Y-57920000D01*
X177295000Y-130525000D02*
G75*
G03*
X177295000Y-130525000I-2500000J0D01*
G01*
X172235000Y-128980000D02*
X172235000Y-132070000D01*
X177785000Y-130525462D02*
G75*
G03*
X172235000Y-128980170I-2990000J462D01*
G01*
X177785000Y-130524538D02*
G75*
G02*
X172235000Y-132069830I-2990000J-462D01*
G01*
X162435000Y-62745000D02*
X162435000Y-60505000D01*
X162435000Y-60505000D02*
X158195000Y-60505000D01*
X158195000Y-60505000D02*
X158195000Y-62745000D01*
X158195000Y-62745000D02*
X162435000Y-62745000D01*
X163085000Y-61625000D02*
X162435000Y-61625000D01*
X157545000Y-61625000D02*
X158195000Y-61625000D01*
X161715000Y-62745000D02*
X161715000Y-60505000D01*
X161595000Y-62745000D02*
X161595000Y-60505000D01*
X161835000Y-62745000D02*
X161835000Y-60505000D01*
X151305000Y-67745000D02*
X151305000Y-65505000D01*
X151065000Y-67745000D02*
X151065000Y-65505000D01*
X151185000Y-67745000D02*
X151185000Y-65505000D01*
X147015000Y-66625000D02*
X147665000Y-66625000D01*
X152555000Y-66625000D02*
X151905000Y-66625000D01*
X147665000Y-67745000D02*
X151905000Y-67745000D01*
X147665000Y-65505000D02*
X147665000Y-67745000D01*
X151905000Y-65505000D02*
X147665000Y-65505000D01*
X151905000Y-67745000D02*
X151905000Y-65505000D01*
X135726250Y-136950000D02*
X135726250Y-135620000D01*
X135726250Y-135620000D02*
X137056250Y-135620000D01*
X138326250Y-135620000D02*
X143466250Y-135620000D01*
X143466250Y-138280000D02*
X143466250Y-135620000D01*
X138326250Y-138280000D02*
X143466250Y-138280000D01*
X138326250Y-138280000D02*
X138326250Y-135620000D01*
X174528750Y-138280000D02*
X174528750Y-135620000D01*
X174528750Y-138280000D02*
X179668750Y-138280000D01*
X179668750Y-138280000D02*
X179668750Y-135620000D01*
X174528750Y-135620000D02*
X179668750Y-135620000D01*
X171928750Y-135620000D02*
X173258750Y-135620000D01*
X171928750Y-136950000D02*
X171928750Y-135620000D01*
X143466250Y-144205000D02*
X143466250Y-141545000D01*
X138326250Y-144205000D02*
X143466250Y-144205000D01*
X138326250Y-141545000D02*
X143466250Y-141545000D01*
X138326250Y-144205000D02*
X138326250Y-141545000D01*
X137056250Y-144205000D02*
X135726250Y-144205000D01*
X135726250Y-144205000D02*
X135726250Y-142875000D01*
X187725000Y-63215000D02*
X188775000Y-63215000D01*
X188775000Y-62165000D02*
X188775000Y-63215000D01*
X179375000Y-57115000D02*
X179375000Y-48315000D01*
X179375000Y-48315000D02*
X188575000Y-48315000D01*
X182075000Y-63015000D02*
X179375000Y-63015000D01*
X179375000Y-63015000D02*
X179375000Y-61115000D01*
X188575000Y-48315000D02*
X188575000Y-63015000D01*
X188575000Y-63015000D02*
X185975000Y-63015000D01*
X128665000Y-60965000D02*
X128665000Y-65225000D01*
X128665000Y-65225000D02*
X140985000Y-65225000D01*
X140985000Y-65225000D02*
X140985000Y-60965000D01*
X128665000Y-56865000D02*
X128665000Y-48505000D01*
X128665000Y-48505000D02*
X140985000Y-48505000D01*
X140985000Y-48505000D02*
X140985000Y-56865000D01*
X133575000Y-65445000D02*
X133075000Y-65945000D01*
X133075000Y-65945000D02*
X134075000Y-65945000D01*
X134075000Y-65945000D02*
X133575000Y-65445000D01*
X162115000Y-65075000D02*
X158515000Y-65075000D01*
X162153478Y-65086522D02*
G75*
G02*
X160315000Y-69525000I-1838478J-1838478D01*
G01*
X158476522Y-65086522D02*
G75*
G03*
X160315000Y-69525000I1838478J-1838478D01*
G01*
X167645000Y-75305000D02*
X167645000Y-75635000D01*
X174185000Y-75305000D02*
X167645000Y-75305000D01*
X174185000Y-75635000D02*
X174185000Y-75305000D01*
X167645000Y-78045000D02*
X167645000Y-77715000D01*
X174185000Y-78045000D02*
X167645000Y-78045000D01*
X174185000Y-77715000D02*
X174185000Y-78045000D01*
X180680000Y-129155000D02*
X180680000Y-129485000D01*
X187220000Y-129155000D02*
X180680000Y-129155000D01*
X187220000Y-129485000D02*
X187220000Y-129155000D01*
X180680000Y-131895000D02*
X180680000Y-131565000D01*
X187220000Y-131895000D02*
X180680000Y-131895000D01*
X187220000Y-131565000D02*
X187220000Y-131895000D01*
X174185000Y-67915000D02*
X174185000Y-68245000D01*
X174185000Y-68245000D02*
X167645000Y-68245000D01*
X167645000Y-68245000D02*
X167645000Y-67915000D01*
X174185000Y-65835000D02*
X174185000Y-65505000D01*
X174185000Y-65505000D02*
X167645000Y-65505000D01*
X167645000Y-65505000D02*
X167645000Y-65835000D01*
X146515000Y-60835000D02*
X146515000Y-60505000D01*
X146515000Y-60505000D02*
X153055000Y-60505000D01*
X153055000Y-60505000D02*
X153055000Y-60835000D01*
X146515000Y-62915000D02*
X146515000Y-63245000D01*
X146515000Y-63245000D02*
X153055000Y-63245000D01*
X153055000Y-63245000D02*
X153055000Y-62915000D01*
X146515000Y-70405000D02*
X146515000Y-70735000D01*
X153055000Y-70405000D02*
X146515000Y-70405000D01*
X153055000Y-70735000D02*
X153055000Y-70405000D01*
X146515000Y-73145000D02*
X146515000Y-72815000D01*
X153055000Y-73145000D02*
X146515000Y-73145000D01*
X153055000Y-72815000D02*
X153055000Y-73145000D01*
X167645000Y-70735000D02*
X167645000Y-70405000D01*
X167645000Y-70405000D02*
X174185000Y-70405000D01*
X174185000Y-70405000D02*
X174185000Y-70735000D01*
X167645000Y-72815000D02*
X167645000Y-73145000D01*
X167645000Y-73145000D02*
X174185000Y-73145000D01*
X174185000Y-73145000D02*
X174185000Y-72815000D01*
X181810000Y-75125000D02*
X186310000Y-75125000D01*
X180560000Y-71125000D02*
X180560000Y-72625000D01*
X186310000Y-68625000D02*
X181810000Y-68625000D01*
X187560000Y-72625000D02*
X187560000Y-71125000D01*
X162155000Y-55995000D02*
X151915000Y-55995000D01*
X162155000Y-51354000D02*
X151915000Y-51354000D01*
X162155000Y-55995000D02*
X162155000Y-51354000D01*
X151915000Y-55995000D02*
X151915000Y-51354000D01*
X162155000Y-54485000D02*
X151915000Y-54485000D01*
X158885000Y-55995000D02*
X158885000Y-54485000D01*
X155184000Y-55995000D02*
X155184000Y-54485000D01*
X154482500Y-134450000D02*
X160882500Y-134450000D01*
X154482500Y-139500000D02*
X160882500Y-139500000D01*
X154482500Y-139500000D02*
G75*
G02*
X154482500Y-134450000I0J2525000D01*
G01*
X160882500Y-139500000D02*
G75*
G03*
X160882500Y-134450000I0J2525000D01*
G01*
X188340000Y-123505000D02*
X185680000Y-123505000D01*
X188340000Y-123505000D02*
X188340000Y-105665000D01*
X188340000Y-105665000D02*
X185680000Y-105665000D01*
X185680000Y-123505000D02*
X185680000Y-105665000D01*
X185680000Y-126105000D02*
X185680000Y-124775000D01*
X187010000Y-126105000D02*
X185680000Y-126105000D01*
X128355000Y-82845000D02*
X129685000Y-82845000D01*
X129685000Y-82845000D02*
X129685000Y-84175000D01*
X129685000Y-85445000D02*
X129685000Y-100745000D01*
X127025000Y-100745000D02*
X129685000Y-100745000D01*
X127025000Y-85445000D02*
X127025000Y-100745000D01*
X127025000Y-85445000D02*
X129685000Y-85445000D01*
X127025000Y-107070000D02*
X129685000Y-107070000D01*
X127025000Y-107070000D02*
X127025000Y-112210000D01*
X127025000Y-112210000D02*
X129685000Y-112210000D01*
X129685000Y-107070000D02*
X129685000Y-112210000D01*
X129685000Y-104470000D02*
X129685000Y-105800000D01*
X128355000Y-104470000D02*
X129685000Y-104470000D01*
X187010000Y-100805000D02*
X185680000Y-100805000D01*
X185680000Y-100805000D02*
X185680000Y-99475000D01*
X185680000Y-98205000D02*
X185680000Y-80365000D01*
X188340000Y-80365000D02*
X185680000Y-80365000D01*
X188340000Y-98205000D02*
X188340000Y-80365000D01*
X188340000Y-98205000D02*
X185680000Y-98205000D01*
X127025000Y-118495000D02*
X129685000Y-118495000D01*
X127025000Y-118495000D02*
X127025000Y-133795000D01*
X127025000Y-133795000D02*
X129685000Y-133795000D01*
X129685000Y-118495000D02*
X129685000Y-133795000D01*
X129685000Y-115895000D02*
X129685000Y-117225000D01*
X128355000Y-115895000D02*
X129685000Y-115895000D01*
X167795000Y-57295000D02*
X167795000Y-57920000D01*
X167795000Y-55080000D02*
X167795000Y-55705000D01*
X163755000Y-57295000D02*
X163755000Y-57920000D01*
X163755000Y-55080000D02*
X163755000Y-55705000D01*
X163755000Y-57920000D02*
X167795000Y-57920000D01*
X163755000Y-55080000D02*
X167795000Y-55080000D01*
X150002500Y-144205000D02*
X150002500Y-142875000D01*
X151332500Y-144205000D02*
X150002500Y-144205000D01*
X152602500Y-144205000D02*
X152602500Y-141545000D01*
X152602500Y-141545000D02*
X165362500Y-141545000D01*
X152602500Y-144205000D02*
X165362500Y-144205000D01*
X165362500Y-144205000D02*
X165362500Y-141545000D01*
D13*
X171881904Y-51067380D02*
X171881904Y-50067380D01*
X172120000Y-50067380D01*
X172262857Y-50115000D01*
X172358095Y-50210238D01*
X172405714Y-50305476D01*
X172453333Y-50495952D01*
X172453333Y-50638809D01*
X172405714Y-50829285D01*
X172358095Y-50924523D01*
X172262857Y-51019761D01*
X172120000Y-51067380D01*
X171881904Y-51067380D01*
X173310476Y-50400714D02*
X173310476Y-51067380D01*
X173072380Y-50019761D02*
X172834285Y-50734047D01*
X173453333Y-50734047D01*
X170748333Y-60027380D02*
X170415000Y-59551190D01*
X170176904Y-60027380D02*
X170176904Y-59027380D01*
X170557857Y-59027380D01*
X170653095Y-59075000D01*
X170700714Y-59122619D01*
X170748333Y-59217857D01*
X170748333Y-59360714D01*
X170700714Y-59455952D01*
X170653095Y-59503571D01*
X170557857Y-59551190D01*
X170176904Y-59551190D01*
X171081666Y-59027380D02*
X171748333Y-59027380D01*
X171319761Y-60027380D01*
X156890595Y-78447380D02*
X156890595Y-79256904D01*
X156938214Y-79352142D01*
X156985833Y-79399761D01*
X157081071Y-79447380D01*
X157271547Y-79447380D01*
X157366785Y-79399761D01*
X157414404Y-79352142D01*
X157462023Y-79256904D01*
X157462023Y-78447380D01*
X158462023Y-79447380D02*
X157890595Y-79447380D01*
X158176309Y-79447380D02*
X158176309Y-78447380D01*
X158081071Y-78590238D01*
X157985833Y-78685476D01*
X157890595Y-78733095D01*
X142458333Y-126632142D02*
X142410714Y-126679761D01*
X142267857Y-126727380D01*
X142172619Y-126727380D01*
X142029761Y-126679761D01*
X141934523Y-126584523D01*
X141886904Y-126489285D01*
X141839285Y-126298809D01*
X141839285Y-126155952D01*
X141886904Y-125965476D01*
X141934523Y-125870238D01*
X142029761Y-125775000D01*
X142172619Y-125727380D01*
X142267857Y-125727380D01*
X142410714Y-125775000D01*
X142458333Y-125822619D01*
X143410714Y-126727380D02*
X142839285Y-126727380D01*
X143125000Y-126727380D02*
X143125000Y-125727380D01*
X143029761Y-125870238D01*
X142934523Y-125965476D01*
X142839285Y-126013095D01*
X134958333Y-80332142D02*
X134910714Y-80379761D01*
X134767857Y-80427380D01*
X134672619Y-80427380D01*
X134529761Y-80379761D01*
X134434523Y-80284523D01*
X134386904Y-80189285D01*
X134339285Y-79998809D01*
X134339285Y-79855952D01*
X134386904Y-79665476D01*
X134434523Y-79570238D01*
X134529761Y-79475000D01*
X134672619Y-79427380D01*
X134767857Y-79427380D01*
X134910714Y-79475000D01*
X134958333Y-79522619D01*
X135863095Y-79427380D02*
X135386904Y-79427380D01*
X135339285Y-79903571D01*
X135386904Y-79855952D01*
X135482142Y-79808333D01*
X135720238Y-79808333D01*
X135815476Y-79855952D01*
X135863095Y-79903571D01*
X135910714Y-79998809D01*
X135910714Y-80236904D01*
X135863095Y-80332142D01*
X135815476Y-80379761D01*
X135720238Y-80427380D01*
X135482142Y-80427380D01*
X135386904Y-80379761D01*
X135339285Y-80332142D01*
X148133333Y-139732142D02*
X148085714Y-139779761D01*
X147942857Y-139827380D01*
X147847619Y-139827380D01*
X147704761Y-139779761D01*
X147609523Y-139684523D01*
X147561904Y-139589285D01*
X147514285Y-139398809D01*
X147514285Y-139255952D01*
X147561904Y-139065476D01*
X147609523Y-138970238D01*
X147704761Y-138875000D01*
X147847619Y-138827380D01*
X147942857Y-138827380D01*
X148085714Y-138875000D01*
X148133333Y-138922619D01*
X148514285Y-138922619D02*
X148561904Y-138875000D01*
X148657142Y-138827380D01*
X148895238Y-138827380D01*
X148990476Y-138875000D01*
X149038095Y-138922619D01*
X149085714Y-139017857D01*
X149085714Y-139113095D01*
X149038095Y-139255952D01*
X148466666Y-139827380D01*
X149085714Y-139827380D01*
X166908333Y-139882142D02*
X166860714Y-139929761D01*
X166717857Y-139977380D01*
X166622619Y-139977380D01*
X166479761Y-139929761D01*
X166384523Y-139834523D01*
X166336904Y-139739285D01*
X166289285Y-139548809D01*
X166289285Y-139405952D01*
X166336904Y-139215476D01*
X166384523Y-139120238D01*
X166479761Y-139025000D01*
X166622619Y-138977380D01*
X166717857Y-138977380D01*
X166860714Y-139025000D01*
X166908333Y-139072619D01*
X167241666Y-138977380D02*
X167860714Y-138977380D01*
X167527380Y-139358333D01*
X167670238Y-139358333D01*
X167765476Y-139405952D01*
X167813095Y-139453571D01*
X167860714Y-139548809D01*
X167860714Y-139786904D01*
X167813095Y-139882142D01*
X167765476Y-139929761D01*
X167670238Y-139977380D01*
X167384523Y-139977380D01*
X167289285Y-139929761D01*
X167241666Y-139882142D01*
X147058333Y-54607142D02*
X147010714Y-54654761D01*
X146867857Y-54702380D01*
X146772619Y-54702380D01*
X146629761Y-54654761D01*
X146534523Y-54559523D01*
X146486904Y-54464285D01*
X146439285Y-54273809D01*
X146439285Y-54130952D01*
X146486904Y-53940476D01*
X146534523Y-53845238D01*
X146629761Y-53750000D01*
X146772619Y-53702380D01*
X146867857Y-53702380D01*
X147010714Y-53750000D01*
X147058333Y-53797619D01*
X147915476Y-54035714D02*
X147915476Y-54702380D01*
X147677380Y-53654761D02*
X147439285Y-54369047D01*
X148058333Y-54369047D01*
X169811904Y-131127380D02*
X169811904Y-130127380D01*
X170050000Y-130127380D01*
X170192857Y-130175000D01*
X170288095Y-130270238D01*
X170335714Y-130365476D01*
X170383333Y-130555952D01*
X170383333Y-130698809D01*
X170335714Y-130889285D01*
X170288095Y-130984523D01*
X170192857Y-131079761D01*
X170050000Y-131127380D01*
X169811904Y-131127380D01*
X171335714Y-131127380D02*
X170764285Y-131127380D01*
X171050000Y-131127380D02*
X171050000Y-130127380D01*
X170954761Y-130270238D01*
X170859523Y-130365476D01*
X170764285Y-130413095D01*
X159576904Y-59977380D02*
X159576904Y-58977380D01*
X159815000Y-58977380D01*
X159957857Y-59025000D01*
X160053095Y-59120238D01*
X160100714Y-59215476D01*
X160148333Y-59405952D01*
X160148333Y-59548809D01*
X160100714Y-59739285D01*
X160053095Y-59834523D01*
X159957857Y-59929761D01*
X159815000Y-59977380D01*
X159576904Y-59977380D01*
X160529285Y-59072619D02*
X160576904Y-59025000D01*
X160672142Y-58977380D01*
X160910238Y-58977380D01*
X161005476Y-59025000D01*
X161053095Y-59072619D01*
X161100714Y-59167857D01*
X161100714Y-59263095D01*
X161053095Y-59405952D01*
X160481666Y-59977380D01*
X161100714Y-59977380D01*
X163863095Y-60127380D02*
X163863095Y-59127380D01*
X164434523Y-60127380D02*
X164005952Y-59555952D01*
X164434523Y-59127380D02*
X163863095Y-59698809D01*
X149036904Y-64927380D02*
X149036904Y-63927380D01*
X149275000Y-63927380D01*
X149417857Y-63975000D01*
X149513095Y-64070238D01*
X149560714Y-64165476D01*
X149608333Y-64355952D01*
X149608333Y-64498809D01*
X149560714Y-64689285D01*
X149513095Y-64784523D01*
X149417857Y-64879761D01*
X149275000Y-64927380D01*
X149036904Y-64927380D01*
X149941666Y-63927380D02*
X150560714Y-63927380D01*
X150227380Y-64308333D01*
X150370238Y-64308333D01*
X150465476Y-64355952D01*
X150513095Y-64403571D01*
X150560714Y-64498809D01*
X150560714Y-64736904D01*
X150513095Y-64832142D01*
X150465476Y-64879761D01*
X150370238Y-64927380D01*
X150084523Y-64927380D01*
X149989285Y-64879761D01*
X149941666Y-64832142D01*
X153213095Y-65077380D02*
X153213095Y-64077380D01*
X153784523Y-65077380D02*
X153355952Y-64505952D01*
X153784523Y-64077380D02*
X153213095Y-64648809D01*
X133952916Y-136402380D02*
X133952916Y-137116666D01*
X133905297Y-137259523D01*
X133810059Y-137354761D01*
X133667202Y-137402380D01*
X133571964Y-137402380D01*
X134857678Y-136402380D02*
X134667202Y-136402380D01*
X134571964Y-136450000D01*
X134524345Y-136497619D01*
X134429107Y-136640476D01*
X134381488Y-136830952D01*
X134381488Y-137211904D01*
X134429107Y-137307142D01*
X134476726Y-137354761D01*
X134571964Y-137402380D01*
X134762440Y-137402380D01*
X134857678Y-137354761D01*
X134905297Y-137307142D01*
X134952916Y-137211904D01*
X134952916Y-136973809D01*
X134905297Y-136878571D01*
X134857678Y-136830952D01*
X134762440Y-136783333D01*
X134571964Y-136783333D01*
X134476726Y-136830952D01*
X134429107Y-136878571D01*
X134381488Y-136973809D01*
X181041666Y-136577380D02*
X181041666Y-137291666D01*
X180994047Y-137434523D01*
X180898809Y-137529761D01*
X180755952Y-137577380D01*
X180660714Y-137577380D01*
X181422619Y-136577380D02*
X182089285Y-136577380D01*
X181660714Y-137577380D01*
X133741666Y-142552380D02*
X133741666Y-143266666D01*
X133694047Y-143409523D01*
X133598809Y-143504761D01*
X133455952Y-143552380D01*
X133360714Y-143552380D01*
X134360714Y-142980952D02*
X134265476Y-142933333D01*
X134217857Y-142885714D01*
X134170238Y-142790476D01*
X134170238Y-142742857D01*
X134217857Y-142647619D01*
X134265476Y-142600000D01*
X134360714Y-142552380D01*
X134551190Y-142552380D01*
X134646428Y-142600000D01*
X134694047Y-142647619D01*
X134741666Y-142742857D01*
X134741666Y-142790476D01*
X134694047Y-142885714D01*
X134646428Y-142933333D01*
X134551190Y-142980952D01*
X134360714Y-142980952D01*
X134265476Y-143028571D01*
X134217857Y-143076190D01*
X134170238Y-143171428D01*
X134170238Y-143361904D01*
X134217857Y-143457142D01*
X134265476Y-143504761D01*
X134360714Y-143552380D01*
X134551190Y-143552380D01*
X134646428Y-143504761D01*
X134694047Y-143457142D01*
X134741666Y-143361904D01*
X134741666Y-143171428D01*
X134694047Y-143076190D01*
X134646428Y-143028571D01*
X134551190Y-142980952D01*
X179616666Y-63852380D02*
X179616666Y-64566666D01*
X179569047Y-64709523D01*
X179473809Y-64804761D01*
X179330952Y-64852380D01*
X179235714Y-64852380D01*
X180140476Y-64852380D02*
X180330952Y-64852380D01*
X180426190Y-64804761D01*
X180473809Y-64757142D01*
X180569047Y-64614285D01*
X180616666Y-64423809D01*
X180616666Y-64042857D01*
X180569047Y-63947619D01*
X180521428Y-63900000D01*
X180426190Y-63852380D01*
X180235714Y-63852380D01*
X180140476Y-63900000D01*
X180092857Y-63947619D01*
X180045238Y-64042857D01*
X180045238Y-64280952D01*
X180092857Y-64376190D01*
X180140476Y-64423809D01*
X180235714Y-64471428D01*
X180426190Y-64471428D01*
X180521428Y-64423809D01*
X180569047Y-64376190D01*
X180616666Y-64280952D01*
X138965476Y-65777380D02*
X138965476Y-66491666D01*
X138917857Y-66634523D01*
X138822619Y-66729761D01*
X138679761Y-66777380D01*
X138584523Y-66777380D01*
X139965476Y-66777380D02*
X139394047Y-66777380D01*
X139679761Y-66777380D02*
X139679761Y-65777380D01*
X139584523Y-65920238D01*
X139489285Y-66015476D01*
X139394047Y-66063095D01*
X140584523Y-65777380D02*
X140679761Y-65777380D01*
X140775000Y-65825000D01*
X140822619Y-65872619D01*
X140870238Y-65967857D01*
X140917857Y-66158333D01*
X140917857Y-66396428D01*
X140870238Y-66586904D01*
X140822619Y-66682142D01*
X140775000Y-66729761D01*
X140679761Y-66777380D01*
X140584523Y-66777380D01*
X140489285Y-66729761D01*
X140441666Y-66682142D01*
X140394047Y-66586904D01*
X140346428Y-66396428D01*
X140346428Y-66158333D01*
X140394047Y-65967857D01*
X140441666Y-65872619D01*
X140489285Y-65825000D01*
X140584523Y-65777380D01*
X160179761Y-64547619D02*
X160084523Y-64500000D01*
X159989285Y-64404761D01*
X159846428Y-64261904D01*
X159751190Y-64214285D01*
X159655952Y-64214285D01*
X159703571Y-64452380D02*
X159608333Y-64404761D01*
X159513095Y-64309523D01*
X159465476Y-64119047D01*
X159465476Y-63785714D01*
X159513095Y-63595238D01*
X159608333Y-63500000D01*
X159703571Y-63452380D01*
X159894047Y-63452380D01*
X159989285Y-63500000D01*
X160084523Y-63595238D01*
X160132142Y-63785714D01*
X160132142Y-64119047D01*
X160084523Y-64309523D01*
X159989285Y-64404761D01*
X159894047Y-64452380D01*
X159703571Y-64452380D01*
X161084523Y-64452380D02*
X160513095Y-64452380D01*
X160798809Y-64452380D02*
X160798809Y-63452380D01*
X160703571Y-63595238D01*
X160608333Y-63690476D01*
X160513095Y-63738095D01*
X170748333Y-74777380D02*
X170415000Y-74301190D01*
X170176904Y-74777380D02*
X170176904Y-73777380D01*
X170557857Y-73777380D01*
X170653095Y-73825000D01*
X170700714Y-73872619D01*
X170748333Y-73967857D01*
X170748333Y-74110714D01*
X170700714Y-74205952D01*
X170653095Y-74253571D01*
X170557857Y-74301190D01*
X170176904Y-74301190D01*
X171700714Y-74777380D02*
X171129285Y-74777380D01*
X171415000Y-74777380D02*
X171415000Y-73777380D01*
X171319761Y-73920238D01*
X171224523Y-74015476D01*
X171129285Y-74063095D01*
X183783333Y-133347380D02*
X183450000Y-132871190D01*
X183211904Y-133347380D02*
X183211904Y-132347380D01*
X183592857Y-132347380D01*
X183688095Y-132395000D01*
X183735714Y-132442619D01*
X183783333Y-132537857D01*
X183783333Y-132680714D01*
X183735714Y-132775952D01*
X183688095Y-132823571D01*
X183592857Y-132871190D01*
X183211904Y-132871190D01*
X184164285Y-132442619D02*
X184211904Y-132395000D01*
X184307142Y-132347380D01*
X184545238Y-132347380D01*
X184640476Y-132395000D01*
X184688095Y-132442619D01*
X184735714Y-132537857D01*
X184735714Y-132633095D01*
X184688095Y-132775952D01*
X184116666Y-133347380D01*
X184735714Y-133347380D01*
X170748333Y-65002380D02*
X170415000Y-64526190D01*
X170176904Y-65002380D02*
X170176904Y-64002380D01*
X170557857Y-64002380D01*
X170653095Y-64050000D01*
X170700714Y-64097619D01*
X170748333Y-64192857D01*
X170748333Y-64335714D01*
X170700714Y-64430952D01*
X170653095Y-64478571D01*
X170557857Y-64526190D01*
X170176904Y-64526190D01*
X171081666Y-64002380D02*
X171700714Y-64002380D01*
X171367380Y-64383333D01*
X171510238Y-64383333D01*
X171605476Y-64430952D01*
X171653095Y-64478571D01*
X171700714Y-64573809D01*
X171700714Y-64811904D01*
X171653095Y-64907142D01*
X171605476Y-64954761D01*
X171510238Y-65002380D01*
X171224523Y-65002380D01*
X171129285Y-64954761D01*
X171081666Y-64907142D01*
X149608333Y-60002380D02*
X149275000Y-59526190D01*
X149036904Y-60002380D02*
X149036904Y-59002380D01*
X149417857Y-59002380D01*
X149513095Y-59050000D01*
X149560714Y-59097619D01*
X149608333Y-59192857D01*
X149608333Y-59335714D01*
X149560714Y-59430952D01*
X149513095Y-59478571D01*
X149417857Y-59526190D01*
X149036904Y-59526190D01*
X150465476Y-59335714D02*
X150465476Y-60002380D01*
X150227380Y-58954761D02*
X149989285Y-59669047D01*
X150608333Y-59669047D01*
X149618333Y-69847380D02*
X149285000Y-69371190D01*
X149046904Y-69847380D02*
X149046904Y-68847380D01*
X149427857Y-68847380D01*
X149523095Y-68895000D01*
X149570714Y-68942619D01*
X149618333Y-69037857D01*
X149618333Y-69180714D01*
X149570714Y-69275952D01*
X149523095Y-69323571D01*
X149427857Y-69371190D01*
X149046904Y-69371190D01*
X150523095Y-68847380D02*
X150046904Y-68847380D01*
X149999285Y-69323571D01*
X150046904Y-69275952D01*
X150142142Y-69228333D01*
X150380238Y-69228333D01*
X150475476Y-69275952D01*
X150523095Y-69323571D01*
X150570714Y-69418809D01*
X150570714Y-69656904D01*
X150523095Y-69752142D01*
X150475476Y-69799761D01*
X150380238Y-69847380D01*
X150142142Y-69847380D01*
X150046904Y-69799761D01*
X149999285Y-69752142D01*
X170748333Y-69857380D02*
X170415000Y-69381190D01*
X170176904Y-69857380D02*
X170176904Y-68857380D01*
X170557857Y-68857380D01*
X170653095Y-68905000D01*
X170700714Y-68952619D01*
X170748333Y-69047857D01*
X170748333Y-69190714D01*
X170700714Y-69285952D01*
X170653095Y-69333571D01*
X170557857Y-69381190D01*
X170176904Y-69381190D01*
X171605476Y-68857380D02*
X171415000Y-68857380D01*
X171319761Y-68905000D01*
X171272142Y-68952619D01*
X171176904Y-69095476D01*
X171129285Y-69285952D01*
X171129285Y-69666904D01*
X171176904Y-69762142D01*
X171224523Y-69809761D01*
X171319761Y-69857380D01*
X171510238Y-69857380D01*
X171605476Y-69809761D01*
X171653095Y-69762142D01*
X171700714Y-69666904D01*
X171700714Y-69428809D01*
X171653095Y-69333571D01*
X171605476Y-69285952D01*
X171510238Y-69238333D01*
X171319761Y-69238333D01*
X171224523Y-69285952D01*
X171176904Y-69333571D01*
X171129285Y-69428809D01*
X182726666Y-67629761D02*
X182869523Y-67677380D01*
X183107619Y-67677380D01*
X183202857Y-67629761D01*
X183250476Y-67582142D01*
X183298095Y-67486904D01*
X183298095Y-67391666D01*
X183250476Y-67296428D01*
X183202857Y-67248809D01*
X183107619Y-67201190D01*
X182917142Y-67153571D01*
X182821904Y-67105952D01*
X182774285Y-67058333D01*
X182726666Y-66963095D01*
X182726666Y-66867857D01*
X182774285Y-66772619D01*
X182821904Y-66725000D01*
X182917142Y-66677380D01*
X183155238Y-66677380D01*
X183298095Y-66725000D01*
X183631428Y-66677380D02*
X183869523Y-67677380D01*
X184060000Y-66963095D01*
X184250476Y-67677380D01*
X184488571Y-66677380D01*
X185393333Y-67677380D02*
X184821904Y-67677380D01*
X185107619Y-67677380D02*
X185107619Y-66677380D01*
X185012380Y-66820238D01*
X184917142Y-66915476D01*
X184821904Y-66963095D01*
X156233095Y-56577380D02*
X156233095Y-57386904D01*
X156280714Y-57482142D01*
X156328333Y-57529761D01*
X156423571Y-57577380D01*
X156614047Y-57577380D01*
X156709285Y-57529761D01*
X156756904Y-57482142D01*
X156804523Y-57386904D01*
X156804523Y-56577380D01*
X157233095Y-56672619D02*
X157280714Y-56625000D01*
X157375952Y-56577380D01*
X157614047Y-56577380D01*
X157709285Y-56625000D01*
X157756904Y-56672619D01*
X157804523Y-56767857D01*
X157804523Y-56863095D01*
X157756904Y-57005952D01*
X157185476Y-57577380D01*
X157804523Y-57577380D01*
X157206309Y-133426190D02*
X157206309Y-133902380D01*
X156872976Y-132902380D02*
X157206309Y-133426190D01*
X157539642Y-132902380D01*
X158396785Y-133902380D02*
X157825357Y-133902380D01*
X158111071Y-133902380D02*
X158111071Y-132902380D01*
X158015833Y-133045238D01*
X157920595Y-133140476D01*
X157825357Y-133188095D01*
X186676666Y-103577380D02*
X186676666Y-104291666D01*
X186629047Y-104434523D01*
X186533809Y-104529761D01*
X186390952Y-104577380D01*
X186295714Y-104577380D01*
X187676666Y-104577380D02*
X187105238Y-104577380D01*
X187390952Y-104577380D02*
X187390952Y-103577380D01*
X187295714Y-103720238D01*
X187200476Y-103815476D01*
X187105238Y-103863095D01*
X128021666Y-80857380D02*
X128021666Y-81571666D01*
X127974047Y-81714523D01*
X127878809Y-81809761D01*
X127735952Y-81857380D01*
X127640714Y-81857380D01*
X128450238Y-80952619D02*
X128497857Y-80905000D01*
X128593095Y-80857380D01*
X128831190Y-80857380D01*
X128926428Y-80905000D01*
X128974047Y-80952619D01*
X129021666Y-81047857D01*
X129021666Y-81143095D01*
X128974047Y-81285952D01*
X128402619Y-81857380D01*
X129021666Y-81857380D01*
X128021666Y-102482380D02*
X128021666Y-103196666D01*
X127974047Y-103339523D01*
X127878809Y-103434761D01*
X127735952Y-103482380D01*
X127640714Y-103482380D01*
X128402619Y-102482380D02*
X129021666Y-102482380D01*
X128688333Y-102863333D01*
X128831190Y-102863333D01*
X128926428Y-102910952D01*
X128974047Y-102958571D01*
X129021666Y-103053809D01*
X129021666Y-103291904D01*
X128974047Y-103387142D01*
X128926428Y-103434761D01*
X128831190Y-103482380D01*
X128545476Y-103482380D01*
X128450238Y-103434761D01*
X128402619Y-103387142D01*
X186676666Y-78452380D02*
X186676666Y-79166666D01*
X186629047Y-79309523D01*
X186533809Y-79404761D01*
X186390952Y-79452380D01*
X186295714Y-79452380D01*
X187581428Y-78785714D02*
X187581428Y-79452380D01*
X187343333Y-78404761D02*
X187105238Y-79119047D01*
X187724285Y-79119047D01*
X128021666Y-113907380D02*
X128021666Y-114621666D01*
X127974047Y-114764523D01*
X127878809Y-114859761D01*
X127735952Y-114907380D01*
X127640714Y-114907380D01*
X128974047Y-113907380D02*
X128497857Y-113907380D01*
X128450238Y-114383571D01*
X128497857Y-114335952D01*
X128593095Y-114288333D01*
X128831190Y-114288333D01*
X128926428Y-114335952D01*
X128974047Y-114383571D01*
X129021666Y-114478809D01*
X129021666Y-114716904D01*
X128974047Y-114812142D01*
X128926428Y-114859761D01*
X128831190Y-114907380D01*
X128593095Y-114907380D01*
X128497857Y-114859761D01*
X128450238Y-114812142D01*
X165608333Y-54457142D02*
X165560714Y-54504761D01*
X165417857Y-54552380D01*
X165322619Y-54552380D01*
X165179761Y-54504761D01*
X165084523Y-54409523D01*
X165036904Y-54314285D01*
X164989285Y-54123809D01*
X164989285Y-53980952D01*
X165036904Y-53790476D01*
X165084523Y-53695238D01*
X165179761Y-53600000D01*
X165322619Y-53552380D01*
X165417857Y-53552380D01*
X165560714Y-53600000D01*
X165608333Y-53647619D01*
X166465476Y-53552380D02*
X166275000Y-53552380D01*
X166179761Y-53600000D01*
X166132142Y-53647619D01*
X166036904Y-53790476D01*
X165989285Y-53980952D01*
X165989285Y-54361904D01*
X166036904Y-54457142D01*
X166084523Y-54504761D01*
X166179761Y-54552380D01*
X166370238Y-54552380D01*
X166465476Y-54504761D01*
X166513095Y-54457142D01*
X166560714Y-54361904D01*
X166560714Y-54123809D01*
X166513095Y-54028571D01*
X166465476Y-53980952D01*
X166370238Y-53933333D01*
X166179761Y-53933333D01*
X166084523Y-53980952D01*
X166036904Y-54028571D01*
X165989285Y-54123809D01*
X147140476Y-142152380D02*
X147140476Y-142866666D01*
X147092857Y-143009523D01*
X146997619Y-143104761D01*
X146854761Y-143152380D01*
X146759523Y-143152380D01*
X148140476Y-143152380D02*
X147569047Y-143152380D01*
X147854761Y-143152380D02*
X147854761Y-142152380D01*
X147759523Y-142295238D01*
X147664285Y-142390476D01*
X147569047Y-142438095D01*
X149092857Y-143152380D02*
X148521428Y-143152380D01*
X148807142Y-143152380D02*
X148807142Y-142152380D01*
X148711904Y-142295238D01*
X148616666Y-142390476D01*
X148521428Y-142438095D01*
M02*
