M48
; DRILL file {KiCad (5.1.8)-1} date 03/30/21 22:00:52
; FORMAT={-:-/ absolute / inch / decimal}
; #@! TF.CreationDate,2021-03-30T22:00:52-03:00
; #@! TF.GenerationSoftware,Kicad,Pcbnew,(5.1.8)-1
; #@! TF.FileFunction,Plated,1,2,PTH
FMAT,2
INCH
T1C0.0157
T2C0.0295
T3C0.0315
T4C0.0354
T5C0.0362
T6C0.0394
T7C0.0433
T8C0.0591
T9C0.0917
%
G90
G05
T1
X5.1476Y-4.4902
X5.3612Y-5.0423
X5.4567Y-5.0443
X5.5925Y-2.7234
X5.81Y-4.7717
X5.812Y-4.6634
X6.0463Y-4.623
X6.4163Y-4.7057
X6.4173Y-4.9134
T2
X6.2616Y-2.6348
X6.3116Y-2.6348
X6.3616Y-2.6348
T3
X5.747Y-2.8258
X6.047Y-2.8258
X6.5789Y-2.8258
X6.8789Y-2.8258
X6.5789Y-2.436
X6.8789Y-2.436
X5.5659Y-5.1447
X5.6644Y-5.1447
X5.747Y-2.436
X6.047Y-2.436
X6.4774Y-2.2244
X6.5758Y-2.2244
X5.9078Y-3.2156
X5.9078Y-3.3156
X5.9078Y-3.4156
X5.9078Y-3.5156
X5.9078Y-3.6156
X5.9078Y-3.7156
X5.9078Y-3.8156
X5.9078Y-3.9156
X5.9078Y-4.0156
X5.9078Y-4.1156
X5.9078Y-4.2156
X5.9078Y-4.3156
X5.9078Y-4.4156
X5.9078Y-4.5156
X5.9078Y-4.6156
X5.9078Y-4.7156
X5.9078Y-4.8156
X5.9078Y-4.9156
X5.9078Y-5.0156
X5.9078Y-5.1156
X6.5078Y-3.2156
X6.5078Y-3.3156
X6.5078Y-3.4156
X6.5078Y-3.5156
X6.5078Y-3.6156
X6.5078Y-3.7156
X6.5078Y-3.8156
X6.5078Y-3.9156
X6.5078Y-4.0156
X6.5078Y-4.1156
X6.5078Y-4.2156
X6.5078Y-4.3156
X6.5078Y-4.4156
X6.5078Y-4.5156
X6.5078Y-4.6156
X6.5078Y-4.7156
X6.5078Y-4.8156
X6.5078Y-4.9156
X6.5078Y-5.0156
X6.5078Y-5.1156
X7.0921Y-5.1388
X7.3921Y-5.1388
X5.747Y-2.623
X6.047Y-2.623
X6.5789Y-3.0187
X6.8789Y-3.0187
X5.2707Y-2.8986
X5.3691Y-2.8986
X5.7904Y-5.3927
X5.8888Y-5.3927
X6.1616Y-2.4262
X6.4616Y-2.4262
X5.747Y-2.2244
X5.8455Y-2.2244
X6.5285Y-5.3927
X6.627Y-5.3927
X6.5789Y-2.6329
X6.8789Y-2.6329
T4
X6.8317Y-5.1388
X6.9317Y-5.1388
X6.7461Y-2.1486
X6.8461Y-2.1486
T5
X5.2589Y-2.4262
X5.2589Y-2.5049
X5.3573Y-2.4262
X5.3573Y-2.5049
T6
X7.3626Y-4.2124
X7.3626Y-4.3124
X7.3626Y-4.4124
X7.3626Y-4.5124
X7.3626Y-4.6124
X7.3626Y-4.7124
X7.3626Y-4.8124
X7.3626Y-4.9124
X6.8212Y-5.3917
X6.9212Y-5.3917
X7.0212Y-5.3917
X5.0533Y-4.6152
X5.0533Y-4.7152
X5.0533Y-4.8152
X5.0533Y-4.9152
X5.0533Y-5.0152
X5.0533Y-5.1152
X5.0533Y-5.2152
X5.958Y-5.625
X6.058Y-5.625
X6.158Y-5.625
X6.258Y-5.625
X6.358Y-5.625
X6.458Y-5.625
X7.3626Y-3.2163
X7.3626Y-3.3163
X7.3626Y-3.4163
X7.3626Y-3.5163
X7.3626Y-3.6163
X7.3626Y-3.7163
X7.3626Y-3.8163
X7.3626Y-3.9163
X5.3959Y-5.625
X5.4959Y-5.625
X5.5959Y-5.625
X5.0533Y-3.314
X5.0533Y-3.414
X5.0533Y-3.514
X5.0533Y-3.614
X5.0533Y-3.714
X5.0533Y-3.814
X5.0533Y-3.914
X5.0533Y-4.1654
X5.0533Y-4.2654
X5.0533Y-4.3654
X5.3959Y-5.3917
X5.4959Y-5.3917
X5.5959Y-5.3917
T7
X7.1185Y-2.7411
X7.1185Y-2.9183
X7.3744Y-2.7411
X7.3744Y-2.9183
X6.0825Y-2.0758
X6.1825Y-2.0758
X6.2825Y-2.0758
T8
X6.1115Y-5.3927
X6.3044Y-5.3927
T9
X5.0711Y-2.3195
X5.5451Y-2.3195
T6
G00X7.0581Y-2.288
M15
G01X7.0581Y-2.3667
M16
G05
G00X7.2825Y-2.2093
M15
G01X7.2037Y-2.2093
M16
G05
G00X7.2825Y-2.4455
M15
G01X7.2037Y-2.4455
M16
G05
T0
M30
